{
DisplayStrings = (
"Elbl/aogonek g Ebola Gagu/sacute  hasztag fiku/sacute ny Hlo K/eogonek pka Barbeq Draka Tratwa Gruntowa/cacute  Deska Tiramisu Galwanizacja Bezosobowo/sacute/cacute  Cerkiew Azjatki Amortyzacja Akurat Dymny Do/lslash owa/cacute  Ewentualnie Ewakuacja Egzotycznie Fio/lslash ki Fiko/lslash ki Fr/eogonek dzle Franciszka F/eogonek ku/lslash  Gracja Gerber Gotowa/cacute  Himalaje Havana Hondur/eogonek as Iwonka Ikra Jakizm/zdotaccent e J/aogonek ka/cacute  si/eogonek  Johanna Jab/lslash on/nacute  Je/zdotaccent ozwierz Kolorowa/cacute  Kimono Kochany Kuku/lslash ka Kiwa/cacute  si/eogonek  Likier L/eogonek kliwy Lubawa Logotyp /Lslash ucznik /Lslash/eogonek gi /Lslash om/zdotaccent a /Lslash ypa/cacute  Gryps Prawiczek Prosto Muminki M/eogonek czarnia M/aogonek czny N/eogonek ci/cacute  Nikogo 0123 3210 10+32=1435250  Nygot I/lslash/lslash awa I/lslash/lslash akiewicz\U00F3wna /Nacute uki O/lslash tarz Owalny Orzech Ogrodzenie Owczarek Ob/lslash o/sacute/cacute  Oprych \U00D3wdzie Wok\U00F3/lslash Prawdziwy Pupa Pinokio P/eogonek ka/cacute  Potulny Wyjd/zacute/zdotaccent e Qwerty R/eogonek kaw R/aogonek czka R/aogonek ba/cacute  R/eogonek kodzie/lslash o Studzienka Stanny S/eogonek dzia Szcz/eogonek ka Brz/eogonek czyszczykiewicz /Sacute luza Taternik Funghi Sadysta Telewizja Bu/lslash kazmas/lslash em Ehovaseras Mimblam Organizm Prowokacja Pivonie Nazaret Rex Zorba Da/lslash n Pewex Governor Pyka/cacute  Z/eogonek batka S/eogonek p Syfon ZimnTo Nope Vita Wygra/cacute Yeti Titaka Urna W/eogonek z/lslash y Wigor Wtorek Ugryz/zacute/cacute  Uniesienie ",
"For more wittamin toocup than i/lslash/lslash akiew six decades he hassle All my remained offer a mythical force in music, his gravelly voice and poetic lyrics musing over war +=0.123.45637890+048 P/lslash yty Wtorek",
"for, examnplie#!? Kava ffifof/lslash ki kissing\012Bar Mlleczny Koot Another, I was:12,345601671761286828380.390191 \012Pijalnia czekolady"
);
classes = (
{
automatic = 1;

glyphs = (
{
color = 11;
glyphname = A;
lastChange = "2016-10-13 21:34:07 +0000";
layers = (
{
associatedMasterId = "2B556C7D-ACF4-4058-9F01-0A4D9389EAED";
layerId = "4C1D3F23-FFA9-4B87-8FAB-1D187C6B1EFD";
name = "Regular Aug 5 16, 10:31";
paths = (
{
closed = 1;
nodes = (
"7 54 OFFCURVE",
"68 -47 CURVE SMOOTH",
"92 -85 OFFCURVE",
"132 -100 OFFCURVE",
"176 -98 CURVE SMOOTH",
"435 -87 OFFCURVE",
"694 623 OFFCURVE",
"723 729 CURVE SMOOTH",
"728 748 OFFCURVE",
"708 763 OFFCURVE",
"702 724 CURVE SMOOTH",
"680 591 OFFCURVE",
"664 18 OFFCURVE",
"660 -19 CURVE SMOOTH",
"656 -63 OFFCURVE",
"723 -70 OFFCURVE",
"723 -21 CURVE SMOOTH",
"723 158 OFFCURVE",
"564 321 OFFCURVE",
"403 351 CURVE SMOOTH",
"360 359 OFFCURVE",
"333 306 OFFCURVE",
"408 290 CURVE SMOOTH",
"540 262 OFFCURVE",
"738 257 OFFCURVE",
"1003 381 CURVE SMOOTH",
"1065 410 OFFCURVE",
"1022 448 OFFCURVE",
"986 431 CURVE SMOOTH",
"763 322 OFFCURVE",
"555 305 OFFCURVE",
"420 340 CURVE SMOOTH",
"401 345 OFFCURVE",
"371 323 OFFCURVE",
"444 287 CURVE SMOOTH",
"613 203 OFFCURVE",
"664 54 OFFCURVE",
"664 -27 CURVE SMOOTH",
"664 -27 OFFCURVE",
"722 -54 OFFCURVE",
"722 -21 CURVE SMOOTH",
"722 158 OFFCURVE",
"749 625 OFFCURVE",
"764 737 CURVE SMOOTH",
"773 807 OFFCURVE",
"699 811 OFFCURVE",
"683 772 CURVE SMOOTH",
"637 657 OFFCURVE",
"375 -28 OFFCURVE",
"177 -40 CURVE SMOOTH",
"155 -41 OFFCURVE",
"135 -35 OFFCURVE",
"122 -17 CURVE SMOOTH",
"78 48 OFFCURVE",
"193 130 OFFCURVE",
"280 140 CURVE SMOOTH",
"326 145 OFFCURVE",
"321 193 OFFCURVE",
"280 193 CURVE SMOOTH",
"145 193 OFFCURVE"
);
}
);
width = 940;
},
{
associatedMasterId = "2B556C7D-ACF4-4058-9F01-0A4D9389EAED";
layerId = "EE4151CA-4D99-4232-81FB-B1CBB66AA70A";
name = "Regular Oct 6 16, 22:03";
paths = (
{
closed = 1;
nodes = (
"-32 35 OFFCURVE",
"-4 -103 OFFCURVE",
"112 -98 CURVE SMOOTH",
"353 -87 OFFCURVE",
"633 637 OFFCURVE",
"659 729 CURVE SMOOTH",
"664 748 OFFCURVE",
"644 763 OFFCURVE",
"638 724 CURVE SMOOTH",
"616 591 OFFCURVE",
"600 18 OFFCURVE",
"596 -19 CURVE SMOOTH",
"592 -63 OFFCURVE",
"659 -70 OFFCURVE",
"659 -21 CURVE SMOOTH",
"659 158 OFFCURVE",
"500 321 OFFCURVE",
"339 351 CURVE SMOOTH",
"296 359 OFFCURVE",
"269 300 OFFCURVE",
"344 284 CURVE SMOOTH",
"476 256 OFFCURVE",
"599 230 OFFCURVE",
"864 354 CURVE SMOOTH",
"926 383 OFFCURVE",
"882 428 OFFCURVE",
"846 411 CURVE SMOOTH",
"623 302 OFFCURVE",
"491 305 OFFCURVE",
"356 340 CURVE SMOOTH",
"337 345 OFFCURVE",
"307 323 OFFCURVE",
"380 287 CURVE SMOOTH",
"549 203 OFFCURVE",
"600 54 OFFCURVE",
"600 -27 CURVE SMOOTH",
"600 -27 OFFCURVE",
"658 -54 OFFCURVE",
"658 -21 CURVE SMOOTH",
"658 158 OFFCURVE",
"685 625 OFFCURVE",
"700 737 CURVE SMOOTH",
"709 807 OFFCURVE",
"635 811 OFFCURVE",
"619 772 CURVE SMOOTH",
"576 665 OFFCURVE",
"279 -24 OFFCURVE",
"113 -36 CURVE SMOOTH",
"47 -41 OFFCURVE",
"47 49 OFFCURVE",
"104 158 CURVE SMOOTH",
"132 212 OFFCURVE",
"60 230 OFFCURVE",
"37 181 CURVE SMOOTH"
);
}
);
width = 824;
},
{
layerId = "2B556C7D-ACF4-4058-9F01-0A4D9389EAED";
name = Regular;
paths = (
{
closed = 1;
nodes = (
"527 496 OFFCURVE",
"512 277 OFFCURVE",
"506 162 CURVE",
"515 162 LINE",
"499 205 OFFCURVE",
"463 248 OFFCURVE",
"426 272 CURVE",
"423 264 LINE",
"503 270 OFFCURVE",
"642 293 OFFCURVE",
"767 354 CURVE SMOOTH",
"808 374 OFFCURVE",
"785 423 OFFCURVE",
"749 407 CURVE SMOOTH",
"509 298 OFFCURVE",
"380 318 OFFCURVE",
"242 345 CURVE SMOOTH",
"219 350 OFFCURVE",
"200 340 OFFCURVE",
"200 322 CURVE SMOOTH",
"200 294 OFFCURVE",
"236 286 OFFCURVE",
"267 282 CURVE SMOOTH",
"406 266 OFFCURVE",
"500 120 OFFCURVE",
"500 37 CURVE SMOOTH",
"500 14 OFFCURVE",
"514 1 OFFCURVE",
"531 1 CURVE SMOOTH",
"547 1 OFFCURVE",
"560 12 OFFCURVE",
"561 35 CURVE SMOOTH",
"570 216 OFFCURVE",
"589 501 OFFCURVE",
"598 633 CURVE SMOOTH",
"601 675 OFFCURVE",
"578 692 OFFCURVE",
"555 692 CURVE SMOOTH",
"540 692 OFFCURVE",
"520 685 OFFCURVE",
"508 663 CURVE SMOOTH",
"491 632 OFFCURVE",
"423 492 OFFCURVE",
"368 382 CURVE SMOOTH",
"268 183 OFFCURVE",
"196 54 OFFCURVE",
"122 54 CURVE SMOOTH",
"88 54 OFFCURVE",
"62 70 OFFCURVE",
"62 107 CURVE SMOOTH",
"62 132 OFFCURVE",
"68 146 OFFCURVE",
"84 169 CURVE SMOOTH",
"102 195 OFFCURVE",
"91 219 OFFCURVE",
"68 219 CURVE SMOOTH",
"26 219 OFFCURVE",
"0 153 OFFCURVE",
"0 107 CURVE SMOOTH",
"0 30 OFFCURVE",
"52 -4 OFFCURVE",
"120 -4 CURVE SMOOTH",
"211 -4 OFFCURVE",
"275 68 OFFCURVE",
"372 257 CURVE SMOOTH",
"434 378 OFFCURVE",
"525 570 OFFCURVE",
"550 626 CURVE",
"543 626 LINE"
);
}
);
width = 749;
}
);
unicode = 0041;
},
{
color = 11;
glyphname = Aogonek;
lastChange = "2016-10-13 19:22:54 +0000";
layers = (
{
associatedMasterId = "2B556C7D-ACF4-4058-9F01-0A4D9389EAED";
layerId = "A7C5C9EC-AC6E-4D8D-8778-D49034092232";
name = "Regular Aug 19 16, 13:20";
paths = (
{
closed = 1;
nodes = (
"640 665 OFFCURVE",
"343 -24 OFFCURVE",
"177 -36 CURVE SMOOTH",
"111 -41 OFFCURVE",
"111 49 OFFCURVE",
"168 158 CURVE SMOOTH",
"196 212 OFFCURVE",
"124 230 OFFCURVE",
"101 181 CURVE SMOOTH",
"32 35 OFFCURVE",
"60 -103 OFFCURVE",
"176 -98 CURVE SMOOTH",
"417 -87 OFFCURVE",
"697 637 OFFCURVE",
"723 729 CURVE SMOOTH",
"728 748 OFFCURVE",
"708 763 OFFCURVE",
"702 724 CURVE SMOOTH",
"680 591 OFFCURVE",
"664 18 OFFCURVE",
"660 -19 CURVE SMOOTH",
"656 -63 OFFCURVE",
"723 -70 OFFCURVE",
"723 -21 CURVE SMOOTH",
"723 158 OFFCURVE",
"564 321 OFFCURVE",
"403 351 CURVE SMOOTH",
"360 359 OFFCURVE",
"333 300 OFFCURVE",
"408 284 CURVE SMOOTH",
"540 256 OFFCURVE",
"662 231 OFFCURVE",
"927 355 CURVE SMOOTH",
"989 384 OFFCURVE",
"946 428 OFFCURVE",
"910 411 CURVE SMOOTH",
"687 302 OFFCURVE",
"555 305 OFFCURVE",
"420 340 CURVE SMOOTH",
"401 345 OFFCURVE",
"371 323 OFFCURVE",
"444 287 CURVE SMOOTH",
"613 203 OFFCURVE",
"664 54 OFFCURVE",
"664 -27 CURVE SMOOTH",
"664 -27 OFFCURVE",
"722 -54 OFFCURVE",
"722 -21 CURVE SMOOTH",
"722 158 OFFCURVE",
"749 625 OFFCURVE",
"764 737 CURVE SMOOTH",
"773 807 OFFCURVE",
"699 811 OFFCURVE",
"683 772 CURVE SMOOTH"
);
},
{
closed = 1;
nodes = (
"593 -58 OFFCURVE",
"568 -160 OFFCURVE",
"558 -200 CURVE SMOOTH",
"547 -244 OFFCURVE",
"603 -257 OFFCURVE",
"616 -216 CURVE SMOOTH",
"633 -161 OFFCURVE",
"657 -75 OFFCURVE",
"666 -41 CURVE SMOOTH",
"678 3 OFFCURVE",
"617 22 OFFCURVE",
"603 -25 CURVE SMOOTH"
);
}
);
width = 880;
},
{
associatedMasterId = "2B556C7D-ACF4-4058-9F01-0A4D9389EAED";
layerId = "1C7C7EEA-FB8B-4BC6-A051-C18623DC0EA9";
rightMetricsKey = A;
name = "Regular Oct 13 16, 19:12";
paths = (
{
closed = 1;
nodes = (
"599 97 OFFCURVE",
"559 68 OFFCURVE",
"560 75 CURVE SMOOTH",
"576 276 OFFCURVE",
"592 528 OFFCURVE",
"598 633 CURVE SMOOTH",
"600 671 OFFCURVE",
"582 683 OFFCURVE",
"558 687 CURVE SMOOTH",
"534 691 OFFCURVE",
"517 675 OFFCURVE",
"502 651 CURVE SMOOTH",
"482 620 OFFCURVE",
"422 494 OFFCURVE",
"367 382 CURVE SMOOTH",
"269 182 OFFCURVE",
"196 54 OFFCURVE",
"122 54 CURVE SMOOTH",
"88 54 OFFCURVE",
"62 70 OFFCURVE",
"62 107 CURVE SMOOTH",
"62 132 OFFCURVE",
"68 146 OFFCURVE",
"84 169 CURVE SMOOTH",
"102 195 OFFCURVE",
"91 219 OFFCURVE",
"68 219 CURVE SMOOTH",
"26 219 OFFCURVE",
"0 153 OFFCURVE",
"0 107 CURVE SMOOTH",
"0 30 OFFCURVE",
"52 -4 OFFCURVE",
"120 -4 CURVE SMOOTH",
"211 -4 OFFCURVE",
"275 68 OFFCURVE",
"372 257 CURVE SMOOTH",
"434 378 OFFCURVE",
"525 570 OFFCURVE",
"550 626 CURVE",
"543 626 LINE",
"527 496 OFFCURVE",
"506 152 OFFCURVE",
"500 37 CURVE SMOOTH",
"500 14 OFFCURVE",
"511 1 OFFCURVE",
"527 1 CURVE SMOOTH",
"569 1 OFFCURVE",
"644 66 OFFCURVE",
"683 106 CURVE SMOOTH",
"710 133 OFFCURVE",
"676 171 OFFCURVE",
"644 140 CURVE SMOOTH"
);
},
{
closed = 1;
nodes = (
"509 298 OFFCURVE",
"380 318 OFFCURVE",
"242 345 CURVE SMOOTH",
"219 350 OFFCURVE",
"200 340 OFFCURVE",
"200 322 CURVE SMOOTH",
"200 294 OFFCURVE",
"236 289 OFFCURVE",
"267 282 CURVE SMOOTH",
"319 270 OFFCURVE",
"368 264 OFFCURVE",
"423 264 CURVE SMOOTH",
"503 264 OFFCURVE",
"642 293 OFFCURVE",
"767 354 CURVE SMOOTH",
"808 374 OFFCURVE",
"785 423 OFFCURVE",
"749 407 CURVE SMOOTH"
);
},
{
closed = 1;
nodes = (
"654 72 OFFCURVE",
"678 91 OFFCURVE",
"683 99 CURVE SMOOTH",
"695 116 OFFCURVE",
"704 148 OFFCURVE",
"672 153 CURVE SMOOTH",
"627 160 OFFCURVE",
"558 54 OFFCURVE",
"558 -46 CURVE SMOOTH",
"558 -93 OFFCURVE",
"570 -144 OFFCURVE",
"633 -144 CURVE SMOOTH",
"672 -144 OFFCURVE",
"712 -108 OFFCURVE",
"728 -80 CURVE SMOOTH",
"758 -27 OFFCURVE",
"711 -8 OFFCURVE",
"698 -32 CURVE SMOOTH",
"669 -86 OFFCURVE",
"646 -94 OFFCURVE",
"635 -94 CURVE SMOOTH",
"596 -94 OFFCURVE",
"613 15 OFFCURVE",
"649 65 CURVE SMOOTH"
);
}
);
width = 789;
},
{
associatedMasterId = "2B556C7D-ACF4-4058-9F01-0A4D9389EAED";
layerId = "42FCC3E3-30F0-4CFF-A86A-5F2B84B709C1";
name = "Regular Oct 13 16, 21:17";
paths = (
{
closed = 1;
nodes = (
"574 665 OFFCURVE",
"277 -24 OFFCURVE",
"111 -36 CURVE SMOOTH",
"45 -41 OFFCURVE",
"45 49 OFFCURVE",
"102 158 CURVE SMOOTH",
"130 212 OFFCURVE",
"58 230 OFFCURVE",
"35 181 CURVE SMOOTH",
"-34 35 OFFCURVE",
"-6 -103 OFFCURVE",
"110 -98 CURVE SMOOTH",
"351 -87 OFFCURVE",
"631 637 OFFCURVE",
"657 729 CURVE SMOOTH",
"662 748 OFFCURVE",
"642 763 OFFCURVE",
"636 724 CURVE SMOOTH",
"614 591 OFFCURVE",
"598 18 OFFCURVE",
"594 -19 CURVE SMOOTH",
"590 -63 OFFCURVE",
"657 -70 OFFCURVE",
"657 -21 CURVE SMOOTH",
"657 158 OFFCURVE",
"498 321 OFFCURVE",
"337 351 CURVE SMOOTH",
"294 359 OFFCURVE",
"267 300 OFFCURVE",
"342 284 CURVE SMOOTH",
"474 256 OFFCURVE",
"596 231 OFFCURVE",
"861 355 CURVE SMOOTH",
"923 384 OFFCURVE",
"880 428 OFFCURVE",
"844 411 CURVE SMOOTH",
"621 302 OFFCURVE",
"489 305 OFFCURVE",
"354 340 CURVE SMOOTH",
"335 345 OFFCURVE",
"305 323 OFFCURVE",
"378 287 CURVE SMOOTH",
"547 203 OFFCURVE",
"598 54 OFFCURVE",
"598 -27 CURVE SMOOTH",
"598 -27 OFFCURVE",
"656 -54 OFFCURVE",
"656 -21 CURVE SMOOTH",
"656 158 OFFCURVE",
"683 625 OFFCURVE",
"698 737 CURVE SMOOTH",
"707 807 OFFCURVE",
"633 811 OFFCURVE",
"617 772 CURVE SMOOTH"
);
},
{
closed = 1;
nodes = (
"532 -64 OFFCURVE",
"527 -161 OFFCURVE",
"550 -216 CURVE SMOOTH",
"569 -261 OFFCURVE",
"624 -246 OFFCURVE",
"608 -199 CURVE SMOOTH",
"591 -149 OFFCURVE",
"596 -97 OFFCURVE",
"643 -52 CURVE SMOOTH",
"674 -23 OFFCURVE",
"645 18 OFFCURVE",
"610 -7 CURVE SMOOTH"
);
}
);
width = 822;
},
{
layerId = "2B556C7D-ACF4-4058-9F01-0A4D9389EAED";
rightMetricsKey = A;
name = Regular;
paths = (
{
closed = 1;
nodes = (
"509 298 OFFCURVE",
"380 318 OFFCURVE",
"242 345 CURVE SMOOTH",
"219 350 OFFCURVE",
"200 340 OFFCURVE",
"200 322 CURVE SMOOTH",
"200 294 OFFCURVE",
"236 289 OFFCURVE",
"267 282 CURVE SMOOTH",
"319 270 OFFCURVE",
"368 264 OFFCURVE",
"423 264 CURVE SMOOTH",
"503 264 OFFCURVE",
"642 293 OFFCURVE",
"767 354 CURVE SMOOTH",
"808 374 OFFCURVE",
"785 423 OFFCURVE",
"749 407 CURVE SMOOTH"
);
},
{
closed = 1;
nodes = (
"698 123 OFFCURVE",
"698 153 OFFCURVE",
"668 153 CURVE SMOOTH",
"663 153 OFFCURVE",
"653 149 OFFCURVE",
"644 140 CURVE SMOOTH",
"586 81 OFFCURVE",
"554 65 OFFCURVE",
"545 62 CURVE",
"558 56 LINE",
"575 260 OFFCURVE",
"592 525 OFFCURVE",
"598 633 CURVE SMOOTH",
"600 671 OFFCURVE",
"582 683 OFFCURVE",
"558 687 CURVE SMOOTH",
"534 691 OFFCURVE",
"517 675 OFFCURVE",
"502 651 CURVE SMOOTH",
"482 620 OFFCURVE",
"422 494 OFFCURVE",
"367 382 CURVE SMOOTH",
"269 182 OFFCURVE",
"196 54 OFFCURVE",
"122 54 CURVE SMOOTH",
"88 54 OFFCURVE",
"62 70 OFFCURVE",
"62 107 CURVE SMOOTH",
"62 132 OFFCURVE",
"68 146 OFFCURVE",
"84 169 CURVE SMOOTH",
"102 195 OFFCURVE",
"91 219 OFFCURVE",
"68 219 CURVE SMOOTH",
"26 219 OFFCURVE",
"0 153 OFFCURVE",
"0 107 CURVE SMOOTH",
"0 30 OFFCURVE",
"52 -4 OFFCURVE",
"120 -4 CURVE SMOOTH",
"211 -4 OFFCURVE",
"275 68 OFFCURVE",
"372 257 CURVE SMOOTH",
"434 378 OFFCURVE",
"525 570 OFFCURVE",
"550 626 CURVE",
"543 626 LINE",
"527 496 OFFCURVE",
"506 152 OFFCURVE",
"500 37 CURVE SMOOTH",
"499 11 OFFCURVE",
"511 1 OFFCURVE",
"527 1 CURVE SMOOTH",
"542 1 OFFCURVE",
"573 16 OFFCURVE",
"591 24 CURVE",
"577 30 LINE",
"572 18 OFFCURVE",
"556 -10 OFFCURVE",
"556 -64 CURVE SMOOTH",
"556 -94 OFFCURVE",
"570 -148 OFFCURVE",
"633 -148 CURVE SMOOTH",
"672 -148 OFFCURVE",
"715 -118 OFFCURVE",
"736 -81 CURVE SMOOTH",
"742 -70 OFFCURVE",
"745 -59 OFFCURVE",
"745 -51 CURVE SMOOTH",
"745 -30 OFFCURVE",
"728 -21 OFFCURVE",
"716 -21 CURVE SMOOTH",
"709 -21 OFFCURVE",
"702 -25 OFFCURVE",
"698 -32 CURVE SMOOTH",
"669 -86 OFFCURVE",
"644 -92 OFFCURVE",
"633 -92 CURVE SMOOTH",
"606 -92 OFFCURVE",
"606 -35 OFFCURVE",
"641 46 CURVE SMOOTH",
"643 51 OFFCURVE",
"677 88 OFFCURVE",
"688 106 CURVE SMOOTH"
);
}
);
width = 789;
}
);
leftMetricsKey = A;
rightMetricsKey = A;
unicode = 0104;
},
{
color = 11;
glyphname = B;
lastChange = "2016-10-16 20:48:17 +0000";
layers = (
{
layerId = "2B556C7D-ACF4-4058-9F01-0A4D9389EAED";
name = Regular;
paths = (
{
closed = 1;
nodes = (
"330 652 OFFCURVE",
"183 616 OFFCURVE",
"53 475 CURVE SMOOTH",
"44 465 OFFCURVE",
"38 454 OFFCURVE",
"38 445 CURVE SMOOTH",
"38 429 OFFCURVE",
"50 418 OFFCURVE",
"65 418 CURVE SMOOTH",
"75 418 OFFCURVE",
"87 422 OFFCURVE",
"98 435 CURVE SMOOTH",
"199 548 OFFCURVE",
"327 596 OFFCURVE",
"437 596 CURVE SMOOTH",
"491 596 OFFCURVE",
"561 570 OFFCURVE",
"561 503 CURVE SMOOTH",
"561 391 OFFCURVE",
"425 328 OFFCURVE",
"265 328 CURVE SMOOTH",
"243 328 OFFCURVE",
"234 317 OFFCURVE",
"234 299 CURVE SMOOTH",
"234 287 OFFCURVE",
"244 274 OFFCURVE",
"265 274 CURVE SMOOTH",
"363 274 OFFCURVE",
"498 279 OFFCURVE",
"498 188 CURVE SMOOTH",
"498 118 OFFCURVE",
"433 55 OFFCURVE",
"335 55 CURVE SMOOTH",
"311 55 OFFCURVE",
"287 61 OFFCURVE",
"270 68 CURVE SMOOTH",
"243 79 OFFCURVE",
"229 68 OFFCURVE",
"225 59 CURVE SMOOTH",
"213 32 OFFCURVE",
"243 -1 OFFCURVE",
"337 -1 CURVE SMOOTH",
"465 -1 OFFCURVE",
"560 84 OFFCURVE",
"560 187 CURVE SMOOTH",
"560 261 OFFCURVE",
"505 308 OFFCURVE",
"451 315 CURVE",
"446 299 LINE",
"566 345 OFFCURVE",
"621 419 OFFCURVE",
"623 503 CURVE SMOOTH",
"625 575 OFFCURVE",
"570 652 OFFCURVE",
"429 652 CURVE SMOOTH"
);
},
{
closed = 1;
nodes = (
"168 459 OFFCURVE",
"117 164 OFFCURVE",
"99 43 CURVE SMOOTH",
"97 25 OFFCURVE",
"98 1 OFFCURVE",
"126 1 CURVE SMOOTH",
"151 1 OFFCURVE",
"158 21 OFFCURVE",
"160 36 CURVE SMOOTH",
"183 184 OFFCURVE",
"234 481 OFFCURVE",
"261 655 CURVE SMOOTH",
"265 680 OFFCURVE",
"250 693 OFFCURVE",
"235 693 CURVE SMOOTH",
"217 693 OFFCURVE",
"203 682 OFFCURVE",
"200 658 CURVE SMOOTH"
);
}
);
width = 653;
}
);
unicode = 0042;
},
{
color = 11;
glyphname = C;
lastChange = "2016-10-13 21:40:03 +0000";
layers = (
{
associatedMasterId = "2B556C7D-ACF4-4058-9F01-0A4D9389EAED";
layerId = "EA7D86C5-9249-49D9-9CA4-D718F585F224";
name = "Regular Aug 3 16, 12:17";
paths = (
{
closed = 1;
nodes = (
"353 624 OFFCURVE",
"316 703 OFFCURVE",
"269 694 CURVE SMOOTH",
"94 662 OFFCURVE",
"-3 43 OFFCURVE",
"151 43 CURVE SMOOTH",
"222 43 OFFCURVE",
"301 158 OFFCURVE",
"372 311 CURVE SMOOTH",
"395 360 OFFCURVE",
"426 311 OFFCURVE",
"426 311 CURVE SMOOTH",
"358 115 OFFCURVE",
"254 -5 OFFCURVE",
"162 -11 CURVE SMOOTH",
"26 -20 OFFCURVE",
"10 131 OFFCURVE",
"10 248 CURVE SMOOTH",
"10 417 OFFCURVE",
"95 733 OFFCURVE",
"265 741 CURVE SMOOTH",
"390 746 OFFCURVE",
"415 601 OFFCURVE",
"373 476 CURVE SMOOTH",
"373 476 OFFCURVE",
"297 437 OFFCURVE",
"316 500 CURVE SMOOTH"
);
}
);
width = 368;
},
{
associatedMasterId = "2B556C7D-ACF4-4058-9F01-0A4D9389EAED";
layerId = "E447CD82-98D5-4191-A8C4-F7AC0D8B5AE8";
name = "Regular Oct 9 16, 17:51";
paths = (
{
closed = 1;
nodes = (
"353 624 OFFCURVE",
"313 690 OFFCURVE",
"266 684 CURVE SMOOTH",
"135 668 OFFCURVE",
"47 294 OFFCURVE",
"88 127 CURVE SMOOTH",
"100 78 OFFCURVE",
"129 53 OFFCURVE",
"165 48 CURVE SMOOTH",
"244 38 OFFCURVE",
"351 139 OFFCURVE",
"436 309 CURVE SMOOTH",
"454 345 OFFCURVE",
"499 329 OFFCURVE",
"481 288 CURVE SMOOTH",
"389 81 OFFCURVE",
"287 -12 OFFCURVE",
"165 -12 CURVE SMOOTH",
"29 -12 OFFCURVE",
"8 120 OFFCURVE",
"8 237 CURVE SMOOTH",
"8 406 OFFCURVE",
"89 733 OFFCURVE",
"265 741 CURVE SMOOTH",
"390 747 OFFCURVE",
"413 602 OFFCURVE",
"373 476 CURVE SMOOTH",
"360 437 OFFCURVE",
"300 445 OFFCURVE",
"316 500 CURVE SMOOTH"
);
}
);
width = 436;
},
{
layerId = "2B556C7D-ACF4-4058-9F01-0A4D9389EAED";
name = Regular;
paths = (
{
closed = 1;
nodes = (
"336 559 OFFCURVE",
"303 631 OFFCURVE",
"256 631 CURVE SMOOTH",
"146 631 OFFCURVE",
"64 446 OFFCURVE",
"64 200 CURVE SMOOTH",
"64 162 OFFCURVE",
"76 53 OFFCURVE",
"159 53 CURVE SMOOTH",
"230 53 OFFCURVE",
"308 86 OFFCURVE",
"398 243 CURVE SMOOTH",
"422 284 OFFCURVE",
"474 258 OFFCURVE",
"451 213 CURVE SMOOTH",
"376 63 OFFCURVE",
"268 -4 OFFCURVE",
"158 -4 CURVE SMOOTH",
"22 -4 OFFCURVE",
"0 134 OFFCURVE",
"0 216 CURVE SMOOTH",
"0 419 OFFCURVE",
"77 688 OFFCURVE",
"253 689 CURVE SMOOTH",
"378 690 OFFCURVE",
"401 538 OFFCURVE",
"365 436 CURVE SMOOTH",
"351 396 OFFCURVE",
"291 404 OFFCURVE",
"304 448 CURVE SMOOTH"
);
}
);
width = 432;
}
);
unicode = 0043;
},
{
color = 11;
glyphname = Cacute;
lastChange = "2016-10-13 21:40:13 +0000";
layers = (
{
associatedMasterId = "2B556C7D-ACF4-4058-9F01-0A4D9389EAED";
layerId = "985EBCFA-217D-4CD7-8242-3EE4F8887E02";
leftMetricsKey = C;
rightMetricsKey = C;
name = "Regular Oct 13 16, 21:36";
paths = (
{
closed = 1;
nodes = (
"254 831 OFFCURVE",
"248 806 OFFCURVE",
"239 769 CURVE SMOOTH",
"233 743 OFFCURVE",
"248 728 OFFCURVE",
"265 728 CURVE SMOOTH",
"277 728 OFFCURVE",
"291 736 OFFCURVE",
"296 753 CURVE SMOOTH",
"313 808 OFFCURVE",
"317 823 OFFCURVE",
"326 857 CURVE SMOOTH",
"333 883 OFFCURVE",
"316 901 OFFCURVE",
"297 901 CURVE SMOOTH",
"284 901 OFFCURVE",
"270 892 OFFCURVE",
"265 873 CURVE SMOOTH"
);
},
{
closed = 1;
nodes = (
"338 559 OFFCURVE",
"305 631 OFFCURVE",
"258 631 CURVE SMOOTH",
"148 631 OFFCURVE",
"66 446 OFFCURVE",
"66 200 CURVE SMOOTH",
"66 162 OFFCURVE",
"78 53 OFFCURVE",
"161 53 CURVE SMOOTH",
"227 53 OFFCURVE",
"310 86 OFFCURVE",
"400 243 CURVE SMOOTH",
"424 284 OFFCURVE",
"476 258 OFFCURVE",
"453 213 CURVE SMOOTH",
"378 63 OFFCURVE",
"275 -4 OFFCURVE",
"160 -4 CURVE SMOOTH",
"24 -4 OFFCURVE",
"2 134 OFFCURVE",
"2 216 CURVE SMOOTH",
"2 419 OFFCURVE",
"79 688 OFFCURVE",
"255 689 CURVE SMOOTH",
"380 690 OFFCURVE",
"403 538 OFFCURVE",
"367 436 CURVE SMOOTH",
"353 396 OFFCURVE",
"293 404 OFFCURVE",
"306 448 CURVE SMOOTH"
);
}
);
width = 457;
},
{
layerId = "2B556C7D-ACF4-4058-9F01-0A4D9389EAED";
leftMetricsKey = C;
rightMetricsKey = C;
name = Regular;
paths = (
{
closed = 1;
nodes = (
"345 493 OFFCURVE",
"305 565 OFFCURVE",
"248 565 CURVE SMOOTH",
"144 565 OFFCURVE",
"66 390 OFFCURVE",
"66 218 CURVE SMOOTH",
"66 162 OFFCURVE",
"78 53 OFFCURVE",
"161 53 CURVE SMOOTH",
"227 53 OFFCURVE",
"310 86 OFFCURVE",
"400 243 CURVE SMOOTH",
"424 284 OFFCURVE",
"476 258 OFFCURVE",
"453 213 CURVE SMOOTH",
"378 63 OFFCURVE",
"275 -4 OFFCURVE",
"160 -4 CURVE SMOOTH",
"24 -4 OFFCURVE",
"3 136 OFFCURVE",
"3 207 CURVE SMOOTH",
"3 402 OFFCURVE",
"89 622 OFFCURVE",
"245 623 CURVE SMOOTH",
"381 624 OFFCURVE",
"406 472 OFFCURVE",
"367 370 CURVE SMOOTH",
"353 330 OFFCURVE",
"293 338 OFFCURVE",
"306 382 CURVE SMOOTH"
);
},
{
closed = 1;
nodes = (
"257 770 OFFCURVE",
"247 746 OFFCURVE",
"232 711 CURVE SMOOTH",
"221 687 OFFCURVE",
"234 669 OFFCURVE",
"250 666 CURVE SMOOTH",
"262 664 OFFCURVE",
"277 670 OFFCURVE",
"285 686 CURVE SMOOTH",
"312 737 OFFCURVE",
"318 751 OFFCURVE",
"333 783 CURVE SMOOTH",
"344 807 OFFCURVE",
"331 828 OFFCURVE",
"312 831 CURVE SMOOTH",
"299 833 OFFCURVE",
"284 827 OFFCURVE",
"275 809 CURVE SMOOTH"
);
}
);
width = 434;
}
);
leftMetricsKey = C;
rightMetricsKey = C;
unicode = 0106;
},
{
color = 11;
glyphname = D;
lastChange = "2016-10-13 22:23:55 +0000";
layers = (
{
associatedMasterId = "2B556C7D-ACF4-4058-9F01-0A4D9389EAED";
layerId = "E874BFF0-C5B7-492D-8A7E-CEC073690808";
name = "Regular Oct 9 16, 18:04";
paths = (
{
closed = 1;
nodes = (
"318 559 OFFCURVE",
"241 194 OFFCURVE",
"199 67 CURVE SMOOTH",
"187 30 OFFCURVE",
"157 29 OFFCURVE",
"132 53 CURVE SMOOTH",
"99 84 OFFCURVE",
"83 141 OFFCURVE",
"108 155 CURVE SMOOTH",
"155 181 OFFCURVE",
"305 15 OFFCURVE",
"511 -48 CURVE SMOOTH",
"584 -70 OFFCURVE",
"685 -65 OFFCURVE",
"743 -12 CURVE SMOOTH",
"943 170 OFFCURVE",
"589 702 OFFCURVE",
"311 698 CURVE SMOOTH",
"223 697 OFFCURVE",
"164 632 OFFCURVE",
"170 543 CURVE SMOOTH",
"177 445 OFFCURVE",
"254 276 OFFCURVE",
"465 228 CURVE SMOOTH",
"597 198 OFFCURVE",
"803 218 OFFCURVE",
"927 289 CURVE SMOOTH",
"964 310 OFFCURVE",
"945 356 OFFCURVE",
"908 339 CURVE SMOOTH",
"724 255 OFFCURVE",
"448 234 OFFCURVE",
"297 391 CURVE SMOOTH",
"218 473 OFFCURVE",
"218 592 OFFCURVE",
"257 622 CURVE SMOOTH",
"426 755 OFFCURVE",
"855 214 OFFCURVE",
"703 40 CURVE SMOOTH",
"665 -4 OFFCURVE",
"590 3 OFFCURVE",
"553 10 CURVE SMOOTH",
"396 42 OFFCURVE",
"246 182 OFFCURVE",
"152 212 CURVE SMOOTH",
"103 228 OFFCURVE",
"54 212 OFFCURVE",
"43 165 CURVE SMOOTH",
"25 89 OFFCURVE",
"74 4 OFFCURVE",
"133 -17 CURVE SMOOTH",
"157 -26 OFFCURVE",
"221 -29 OFFCURVE",
"247 31 CURVE SMOOTH",
"286 122 OFFCURVE",
"372 533 OFFCURVE",
"416 727 CURVE SMOOTH",
"426 772 OFFCURVE",
"367 783 OFFCURVE",
"358 741 CURVE SMOOTH"
);
}
);
width = 907;
},
{
layerId = "2B556C7D-ACF4-4058-9F01-0A4D9389EAED";
name = Regular;
paths = (
{
closed = 1;
nodes = (
"263 486 OFFCURVE",
"202 218 OFFCURVE",
"162 101 CURVE SMOOTH",
"152 72 OFFCURVE",
"139 59 OFFCURVE",
"124 59 CURVE SMOOTH",
"94 59 OFFCURVE",
"79 86 OFFCURVE",
"79 118 CURVE SMOOTH",
"79 147 OFFCURVE",
"93 168 OFFCURVE",
"113 168 CURVE SMOOTH",
"174 170 OFFCURVE",
"302 -26 OFFCURVE",
"500 -24 CURVE SMOOTH",
"622 -24 OFFCURVE",
"705 49 OFFCURVE",
"705 172 CURVE SMOOTH",
"705 370 OFFCURVE",
"487 623 OFFCURVE",
"260 620 CURVE SMOOTH",
"164 619 OFFCURVE",
"109 555 OFFCURVE",
"115 466 CURVE SMOOTH",
"128 287 OFFCURVE",
"327 202 OFFCURVE",
"507 202 CURVE SMOOTH",
"604 202 OFFCURVE",
"728 225 OFFCURVE",
"816 275 CURVE SMOOTH",
"853 296 OFFCURVE",
"834 342 OFFCURVE",
"797 325 CURVE SMOOTH",
"713 287 OFFCURVE",
"599 258 OFFCURVE",
"502 258 CURVE SMOOTH",
"331 258 OFFCURVE",
"176 352 OFFCURVE",
"176 486 CURVE SMOOTH",
"176 541 OFFCURVE",
"219 564 OFFCURVE",
"273 564 CURVE SMOOTH",
"424 564 OFFCURVE",
"641 353 OFFCURVE",
"642 173 CURVE SMOOTH",
"642 85 OFFCURVE",
"588 32 OFFCURVE",
"506 32 CURVE SMOOTH",
"323 32 OFFCURVE",
"221 225 OFFCURVE",
"107 223 CURVE SMOOTH",
"49 222 OFFCURVE",
"20 167 OFFCURVE",
"20 115 CURVE SMOOTH",
"20 47 OFFCURVE",
"69 1 OFFCURVE",
"121 1 CURVE SMOOTH",
"157 1 OFFCURVE",
"193 10 OFFCURVE",
"214 70 CURVE SMOOTH",
"246 159 OFFCURVE",
"319 455 OFFCURVE",
"363 649 CURVE SMOOTH",
"373 694 OFFCURVE",
"313 703 OFFCURVE",
"304 663 CURVE SMOOTH"
);
}
);
width = 806;
}
);
unicode = 0044;
},
{
color = 11;
glyphname = E;
lastChange = "2016-10-14 11:56:06 +0000";
layers = (
{
associatedMasterId = "2B556C7D-ACF4-4058-9F01-0A4D9389EAED";
layerId = "9A7D8182-8E65-4099-99F7-AB9EF51F415D";
name = "Regular Jul 31 16, 15:52 Jul 31 16, 15:55";
paths = (
{
closed = 1;
nodes = (
"405 566 OFFCURVE",
"428 719 OFFCURVE",
"379 731 CURVE SMOOTH",
"323 745 OFFCURVE",
"222 606 OFFCURVE",
"199 435 CURVE SMOOTH",
"174 253 OFFCURVE",
"352 246 OFFCURVE",
"359 275 CURVE SMOOTH",
"363 292 OFFCURVE",
"277 278 OFFCURVE",
"234 245 CURVE SMOOTH",
"124 161 OFFCURVE",
"142 -31 OFFCURVE",
"262 -12 CURVE SMOOTH",
"315 -4 OFFCURVE",
"477 83 OFFCURVE",
"597 303 CURVE SMOOTH",
"628 360 OFFCURVE",
"672 356 OFFCURVE",
"640 283 CURVE SMOOTH",
"567 118 OFFCURVE",
"445 0 OFFCURVE",
"330 -51 CURVE SMOOTH",
"235 -93 OFFCURVE",
"147 -73 OFFCURVE",
"113 14 CURVE SMOOTH",
"89 75 OFFCURVE",
"97 176 OFFCURVE",
"162 249 CURVE SMOOTH",
"259 358 OFFCURVE",
"422 352 OFFCURVE",
"406 281 CURVE SMOOTH",
"389 207 OFFCURVE",
"288 212 OFFCURVE",
"237 233 CURVE SMOOTH",
"165 263 OFFCURVE",
"108 367 OFFCURVE",
"163 544 CURVE SMOOTH",
"218 721 OFFCURVE",
"348 830 OFFCURVE",
"428 765 CURVE SMOOTH",
"484 720 OFFCURVE",
"461 554 OFFCURVE",
"443 500 CURVE SMOOTH",
"425 446 OFFCURVE",
"376 471 OFFCURVE",
"378 478 CURVE SMOOTH"
);
}
);
width = 600;
},
{
associatedMasterId = "2B556C7D-ACF4-4058-9F01-0A4D9389EAED";
layerId = "C403BBC6-2BAF-46C2-A845-DC9B4BB1C171";
name = "Regular Aug 3 16, 13:40";
paths = (
{
closed = 1;
nodes = (
"412 556 OFFCURVE",
"416 717 OFFCURVE",
"376 731 CURVE SMOOTH",
"309 754 OFFCURVE",
"206 576 OFFCURVE",
"199 434 CURVE SMOOTH",
"189 239 OFFCURVE",
"352 246 OFFCURVE",
"359 275 CURVE SMOOTH",
"363 292 OFFCURVE",
"275 287 OFFCURVE",
"235 251 CURVE SMOOTH",
"190 210 OFFCURVE",
"169 161 OFFCURVE",
"168 121 CURVE SMOOTH",
"166 67 OFFCURVE",
"192 27 OFFCURVE",
"239 27 CURVE SMOOTH",
"365 27 OFFCURVE",
"496 164 OFFCURVE",
"612 378 CURVE SMOOTH",
"643 435 OFFCURVE",
"689 430 OFFCURVE",
"655 358 CURVE SMOOTH",
"552 138 OFFCURVE",
"399 -26 OFFCURVE",
"246 -26 CURVE SMOOTH",
"149 -26 OFFCURVE",
"111 43 OFFCURVE",
"111 104 CURVE SMOOTH",
"111 224 OFFCURVE",
"214 333 OFFCURVE",
"319 333 CURVE SMOOTH",
"375 333 OFFCURVE",
"411 313 OFFCURVE",
"411 279 CURVE SMOOTH",
"411 241 OFFCURVE",
"365 220 OFFCURVE",
"312 220 CURVE SMOOTH",
"241 220 OFFCURVE",
"141 271 OFFCURVE",
"141 413 CURVE SMOOTH",
"141 563 OFFCURVE",
"233 800 OFFCURVE",
"379 784 CURVE SMOOTH",
"479 773 OFFCURVE",
"478 604 OFFCURVE",
"443 500 CURVE SMOOTH",
"425 446 OFFCURVE",
"375 471 OFFCURVE",
"378 478 CURVE SMOOTH"
);
}
);
width = 600;
},
{
associatedMasterId = "2B556C7D-ACF4-4058-9F01-0A4D9389EAED";
layerId = "105CA31B-0050-48D9-9237-7275BF9902AB";
name = "Regular Oct 9 16, 20:56";
paths = (
{
closed = 1;
nodes = (
"304 571 OFFCURVE",
"304 710 OFFCURVE",
"264 724 CURVE SMOOTH",
"197 747 OFFCURVE",
"103 547 OFFCURVE",
"97 417 CURVE SMOOTH",
"88 212 OFFCURVE",
"241 246 OFFCURVE",
"248 275 CURVE SMOOTH",
"252 292 OFFCURVE",
"178 292 OFFCURVE",
"131 251 CURVE SMOOTH",
"88 214 OFFCURVE",
"65 158 OFFCURVE",
"65 112 CURVE SMOOTH",
"65 67 OFFCURVE",
"87 31 OFFCURVE",
"135 31 CURVE SMOOTH",
"261 31 OFFCURVE",
"407 182 OFFCURVE",
"518 378 CURVE SMOOTH",
"540 417 OFFCURVE",
"589 403 OFFCURVE",
"565 354 CURVE SMOOTH",
"451 124 OFFCURVE",
"292 -27 OFFCURVE",
"139 -27 CURVE SMOOTH",
"42 -27 OFFCURVE",
"0 43 OFFCURVE",
"0 104 CURVE SMOOTH",
"0 224 OFFCURVE",
"98 334 OFFCURVE",
"212 334 CURVE SMOOTH",
"268 334 OFFCURVE",
"305 313 OFFCURVE",
"305 279 CURVE SMOOTH",
"305 241 OFFCURVE",
"258 206 OFFCURVE",
"205 206 CURVE SMOOTH",
"134 206 OFFCURVE",
"32 246 OFFCURVE",
"32 400 CURVE SMOOTH",
"32 558 OFFCURVE",
"126 802 OFFCURVE",
"272 786 CURVE SMOOTH",
"372 775 OFFCURVE",
"378 586 OFFCURVE",
"343 482 CURVE SMOOTH",
"324 424 OFFCURVE",
"260 447 OFFCURVE",
"271 478 CURVE SMOOTH"
);
}
);
width = 493;
},
{
associatedMasterId = "2B556C7D-ACF4-4058-9F01-0A4D9389EAED";
layerId = "E4FD7E52-6C5A-422D-AC87-0E9FEB664E2D";
name = "Regular Oct 9 16, 22:21";
paths = (
{
closed = 1;
nodes = (
"288 432 OFFCURVE",
"304 496 OFFCURVE",
"304 539 CURVE SMOOTH",
"304 609 OFFCURVE",
"274 629 OFFCURVE",
"245 629 CURVE SMOOTH",
"179 629 OFFCURVE",
"110 514 OFFCURVE",
"105 411 CURVE SMOOTH",
"99 282 OFFCURVE",
"156 248 OFFCURVE",
"199 248 CURVE SMOOTH",
"224 248 OFFCURVE",
"242 260 OFFCURVE",
"242 271 CURVE SMOOTH",
"242 278 OFFCURVE",
"233 285 OFFCURVE",
"209 285 CURVE SMOOTH",
"194 285 OFFCURVE",
"160 276 OFFCURVE",
"131 251 CURVE SMOOTH",
"88 214 OFFCURVE",
"63 164 OFFCURVE",
"63 118 CURVE SMOOTH",
"63 68 OFFCURVE",
"88 30 OFFCURVE",
"161 30 CURVE SMOOTH",
"253 30 OFFCURVE",
"356 84 OFFCURVE",
"472 292 CURVE SMOOTH",
"494 331 OFFCURVE",
"548 309 OFFCURVE",
"523 260 CURVE SMOOTH",
"409 38 OFFCURVE",
"276 -27 OFFCURVE",
"164 -27 CURVE SMOOTH",
"42 -27 OFFCURVE",
"0 43 OFFCURVE",
"0 104 CURVE SMOOTH",
"0 224 OFFCURVE",
"97 340 OFFCURVE",
"211 340 CURVE SMOOTH",
"267 340 OFFCURVE",
"301 308 OFFCURVE",
"301 274 CURVE SMOOTH",
"301 230 OFFCURVE",
"254 191 OFFCURVE",
"194 191 CURVE SMOOTH",
"125 191 OFFCURVE",
"41 240 OFFCURVE",
"41 394 CURVE SMOOTH",
"41 508 OFFCURVE",
"112 688 OFFCURVE",
"250 688 CURVE SMOOTH",
"314 688 OFFCURVE",
"367 648 OFFCURVE",
"367 538 CURVE SMOOTH",
"367 484 OFFCURVE",
"349 413 OFFCURVE",
"338 386 CURVE SMOOTH",
"333 370 OFFCURVE",
"318 362 OFFCURVE",
"304 362 CURVE SMOOTH",
"285 362 OFFCURVE",
"269 376 OFFCURVE",
"278 406 CURVE SMOOTH"
);
}
);
width = 529;
},
{
layerId = "2B556C7D-ACF4-4058-9F01-0A4D9389EAED";
name = Regular;
paths = (
{
closed = 1;
nodes = (
"294 459 OFFCURVE",
"304 496 OFFCURVE",
"304 539 CURVE SMOOTH",
"304 609 OFFCURVE",
"274 629 OFFCURVE",
"245 629 CURVE SMOOTH",
"179 629 OFFCURVE",
"110 514 OFFCURVE",
"105 411 CURVE SMOOTH",
"99 282 OFFCURVE",
"156 248 OFFCURVE",
"199 248 CURVE SMOOTH",
"224 248 OFFCURVE",
"242 260 OFFCURVE",
"242 271 CURVE SMOOTH",
"242 278 OFFCURVE",
"233 285 OFFCURVE",
"209 285 CURVE SMOOTH",
"194 285 OFFCURVE",
"160 276 OFFCURVE",
"131 251 CURVE SMOOTH",
"88 214 OFFCURVE",
"63 164 OFFCURVE",
"63 118 CURVE SMOOTH",
"63 68 OFFCURVE",
"88 30 OFFCURVE",
"161 30 CURVE SMOOTH",
"253 30 OFFCURVE",
"356 84 OFFCURVE",
"472 292 CURVE SMOOTH",
"494 331 OFFCURVE",
"548 309 OFFCURVE",
"523 260 CURVE SMOOTH",
"409 38 OFFCURVE",
"276 -27 OFFCURVE",
"164 -27 CURVE SMOOTH",
"42 -27 OFFCURVE",
"0 43 OFFCURVE",
"0 104 CURVE SMOOTH",
"0 224 OFFCURVE",
"97 340 OFFCURVE",
"211 340 CURVE SMOOTH",
"267 340 OFFCURVE",
"301 308 OFFCURVE",
"301 274 CURVE SMOOTH",
"301 230 OFFCURVE",
"254 191 OFFCURVE",
"194 191 CURVE SMOOTH",
"125 191 OFFCURVE",
"41 240 OFFCURVE",
"41 394 CURVE SMOOTH",
"41 508 OFFCURVE",
"112 688 OFFCURVE",
"250 688 CURVE SMOOTH",
"314 688 OFFCURVE",
"367 648 OFFCURVE",
"367 538 CURVE SMOOTH",
"367 484 OFFCURVE",
"355 440 OFFCURVE",
"344 413 CURVE SMOOTH",
"339 397 OFFCURVE",
"324 389 OFFCURVE",
"310 389 CURVE SMOOTH",
"291 389 OFFCURVE",
"275 403 OFFCURVE",
"284 433 CURVE SMOOTH"
);
}
);
width = 489;
}
);
unicode = 0045;
},
{
color = 11;
glyphname = Eogonek;
lastChange = "2016-10-13 19:27:55 +0000";
layers = (
{
associatedMasterId = "2B556C7D-ACF4-4058-9F01-0A4D9389EAED";
layerId = "0C50D9FA-E69F-4E58-AEA5-255A2ED53756";
name = "Regular Oct 13 16, 21:24";
paths = (
{
closed = 1;
nodes = (
"126 802 OFFCURVE",
"32 558 OFFCURVE",
"32 400 CURVE SMOOTH",
"32 246 OFFCURVE",
"134 206 OFFCURVE",
"205 206 CURVE SMOOTH",
"258 206 OFFCURVE",
"305 241 OFFCURVE",
"305 279 CURVE SMOOTH",
"305 313 OFFCURVE",
"271 337 OFFCURVE",
"215 337 CURVE SMOOTH",
"101 337 OFFCURVE",
"0 224 OFFCURVE",
"0 104 CURVE SMOOTH",
"0 43 OFFCURVE",
"42 -27 OFFCURVE",
"139 -27 CURVE SMOOTH",
"230 -27 OFFCURVE",
"323 26 OFFCURVE",
"407 118 CURVE SMOOTH",
"448 162 OFFCURVE",
"400 201 OFFCURVE",
"360 159 CURVE SMOOTH",
"285 80 OFFCURVE",
"207 31 OFFCURVE",
"135 31 CURVE SMOOTH",
"38 31 OFFCURVE",
"46 178 OFFCURVE",
"131 251 CURVE SMOOTH",
"178 292 OFFCURVE",
"252 292 OFFCURVE",
"248 275 CURVE SMOOTH",
"241 246 OFFCURVE",
"88 212 OFFCURVE",
"97 417 CURVE SMOOTH",
"103 547 OFFCURVE",
"197 747 OFFCURVE",
"264 724 CURVE SMOOTH",
"304 710 OFFCURVE",
"304 571 OFFCURVE",
"271 478 CURVE SMOOTH",
"260 447 OFFCURVE",
"324 424 OFFCURVE",
"343 482 CURVE SMOOTH",
"378 586 OFFCURVE",
"372 775 OFFCURVE",
"272 786 CURVE SMOOTH"
);
},
{
closed = 1;
nodes = (
"202 30 OFFCURVE",
"165 -80 OFFCURVE",
"207 -149 CURVE SMOOTH",
"234 -193 OFFCURVE",
"286 -166 OFFCURVE",
"263 -129 CURVE SMOOTH",
"227 -72 OFFCURVE",
"256 -2 OFFCURVE",
"286 16 CURVE SMOOTH",
"321 37 OFFCURVE",
"286 74 OFFCURVE",
"248 54 CURVE SMOOTH"
);
}
);
width = 430;
},
{
associatedMasterId = "2B556C7D-ACF4-4058-9F01-0A4D9389EAED";
layerId = "EC1301D6-A652-46E8-A51B-956BE5F355D5";
rightMetricsKey = E;
name = "Regular Oct 13 16, 21:26";
paths = (
{
closed = 1;
nodes = (
"226 37 OFFCURVE",
"195 30 OFFCURVE",
"161 30 CURVE SMOOTH",
"88 30 OFFCURVE",
"63 68 OFFCURVE",
"63 118 CURVE SMOOTH",
"63 164 OFFCURVE",
"88 214 OFFCURVE",
"131 251 CURVE SMOOTH",
"160 276 OFFCURVE",
"194 285 OFFCURVE",
"209 285 CURVE SMOOTH",
"233 285 OFFCURVE",
"242 278 OFFCURVE",
"242 271 CURVE SMOOTH",
"242 260 OFFCURVE",
"224 248 OFFCURVE",
"199 248 CURVE SMOOTH",
"156 248 OFFCURVE",
"99 282 OFFCURVE",
"105 411 CURVE SMOOTH",
"110 514 OFFCURVE",
"179 629 OFFCURVE",
"245 629 CURVE SMOOTH",
"274 629 OFFCURVE",
"304 609 OFFCURVE",
"304 539 CURVE SMOOTH",
"304 496 OFFCURVE",
"294 459 OFFCURVE",
"284 433 CURVE SMOOTH",
"275 403 OFFCURVE",
"291 389 OFFCURVE",
"310 389 CURVE SMOOTH",
"324 389 OFFCURVE",
"339 397 OFFCURVE",
"344 413 CURVE SMOOTH",
"355 440 OFFCURVE",
"367 484 OFFCURVE",
"367 538 CURVE SMOOTH",
"367 648 OFFCURVE",
"314 688 OFFCURVE",
"250 688 CURVE SMOOTH",
"112 688 OFFCURVE",
"41 508 OFFCURVE",
"41 394 CURVE SMOOTH",
"41 240 OFFCURVE",
"125 191 OFFCURVE",
"194 191 CURVE SMOOTH",
"254 191 OFFCURVE",
"301 230 OFFCURVE",
"301 274 CURVE SMOOTH",
"301 308 OFFCURVE",
"267 340 OFFCURVE",
"211 340 CURVE SMOOTH",
"97 340 OFFCURVE",
"0 224 OFFCURVE",
"0 104 CURVE SMOOTH",
"0 43 OFFCURVE",
"42 -27 OFFCURVE",
"164 -27 CURVE SMOOTH",
"183 -27 OFFCURVE",
"208 -25 OFFCURVE",
"218 -21 CURVE",
"197 0 LINE",
"176 -31 OFFCURVE",
"162 -87 OFFCURVE",
"162 -118 CURVE SMOOTH",
"162 -162 OFFCURVE",
"183 -200 OFFCURVE",
"240 -200 CURVE SMOOTH",
"279 -200 OFFCURVE",
"327 -174 OFFCURVE",
"348 -135 CURVE SMOOTH",
"354 -124 OFFCURVE",
"356 -115 OFFCURVE",
"356 -107 CURVE SMOOTH",
"356 -86 OFFCURVE",
"343 -75 OFFCURVE",
"329 -75 CURVE SMOOTH",
"321 -75 OFFCURVE",
"313 -79 OFFCURVE",
"309 -86 CURVE SMOOTH",
"283 -135 OFFCURVE",
"253 -142 OFFCURVE",
"242 -142 CURVE SMOOTH",
"198 -142 OFFCURVE",
"239 -38 OFFCURVE",
"272 -7 CURVE SMOOTH",
"302 22 OFFCURVE",
"366 53 OFFCURVE",
"366 94 CURVE SMOOTH",
"366 119 OFFCURVE",
"349 135 OFFCURVE",
"330 135 CURVE SMOOTH",
"296 136 OFFCURVE",
"231 67 OFFCURVE",
"202 16 CURVE",
"258 52 LINE"
);
}
);
width = 367;
},
{
layerId = "2B556C7D-ACF4-4058-9F01-0A4D9389EAED";
rightMetricsKey = E;
name = Regular;
paths = (
{
closed = 1;
nodes = (
"226 37 OFFCURVE",
"195 30 OFFCURVE",
"161 30 CURVE SMOOTH",
"88 30 OFFCURVE",
"63 68 OFFCURVE",
"63 118 CURVE SMOOTH",
"63 164 OFFCURVE",
"88 214 OFFCURVE",
"131 251 CURVE SMOOTH",
"160 276 OFFCURVE",
"194 285 OFFCURVE",
"209 285 CURVE SMOOTH",
"233 285 OFFCURVE",
"242 278 OFFCURVE",
"242 271 CURVE SMOOTH",
"242 260 OFFCURVE",
"224 248 OFFCURVE",
"199 248 CURVE SMOOTH",
"156 248 OFFCURVE",
"99 282 OFFCURVE",
"105 411 CURVE SMOOTH",
"110 514 OFFCURVE",
"179 629 OFFCURVE",
"245 629 CURVE SMOOTH",
"274 629 OFFCURVE",
"304 609 OFFCURVE",
"304 539 CURVE SMOOTH",
"304 496 OFFCURVE",
"294 459 OFFCURVE",
"284 433 CURVE SMOOTH",
"275 403 OFFCURVE",
"291 389 OFFCURVE",
"310 389 CURVE SMOOTH",
"324 389 OFFCURVE",
"339 397 OFFCURVE",
"344 413 CURVE SMOOTH",
"355 440 OFFCURVE",
"367 484 OFFCURVE",
"367 538 CURVE SMOOTH",
"367 648 OFFCURVE",
"314 688 OFFCURVE",
"250 688 CURVE SMOOTH",
"112 688 OFFCURVE",
"41 508 OFFCURVE",
"41 394 CURVE SMOOTH",
"41 240 OFFCURVE",
"125 191 OFFCURVE",
"194 191 CURVE SMOOTH",
"254 191 OFFCURVE",
"301 230 OFFCURVE",
"301 274 CURVE SMOOTH",
"301 308 OFFCURVE",
"267 340 OFFCURVE",
"211 340 CURVE SMOOTH",
"97 340 OFFCURVE",
"0 224 OFFCURVE",
"0 104 CURVE SMOOTH",
"0 43 OFFCURVE",
"42 -25 OFFCURVE",
"164 -25 CURVE SMOOTH",
"183 -25 OFFCURVE",
"208 -19 OFFCURVE",
"218 -15 CURVE",
"199 0 LINE",
"178 -31 OFFCURVE",
"162 -87 OFFCURVE",
"162 -118 CURVE SMOOTH",
"162 -162 OFFCURVE",
"183 -200 OFFCURVE",
"240 -200 CURVE SMOOTH",
"279 -200 OFFCURVE",
"327 -174 OFFCURVE",
"348 -135 CURVE SMOOTH",
"354 -124 OFFCURVE",
"356 -115 OFFCURVE",
"356 -107 CURVE SMOOTH",
"356 -86 OFFCURVE",
"343 -75 OFFCURVE",
"329 -75 CURVE SMOOTH",
"321 -75 OFFCURVE",
"313 -79 OFFCURVE",
"309 -86 CURVE SMOOTH",
"280 -140 OFFCURVE",
"253 -144 OFFCURVE",
"242 -144 CURVE SMOOTH",
"197 -144 OFFCURVE",
"234 -38 OFFCURVE",
"267 -7 CURVE SMOOTH",
"297 22 OFFCURVE",
"347 52 OFFCURVE",
"347 93 CURVE SMOOTH",
"347 123 OFFCURVE",
"313 130 OFFCURVE",
"294 115 CURVE SMOOTH",
"278 103 OFFCURVE",
"233 57 OFFCURVE",
"204 11 CURVE",
"258 52 LINE"
);
}
);
width = 367;
}
);
leftMetricsKey = E;
rightMetricsKey = E;
unicode = 0118;
},
{
color = 11;
glyphname = F;
lastChange = "2016-10-14 10:56:21 +0000";
layers = (
{
associatedMasterId = "2B556C7D-ACF4-4058-9F01-0A4D9389EAED";
layerId = "447324B8-78B9-478F-A088-18D2EFB53B29";
name = "Regular Oct 9 16, 21:28";
paths = (
{
closed = 1;
nodes = (
"364 509 OFFCURVE",
"329 300 OFFCURVE",
"275 42 CURVE SMOOTH",
"269 14 OFFCURVE",
"287 1 OFFCURVE",
"305 1 CURVE SMOOTH",
"318 1 OFFCURVE",
"330 9 OFFCURVE",
"336 32 CURVE SMOOTH",
"371 189 OFFCURVE",
"443 580 OFFCURVE",
"454 632 CURVE SMOOTH",
"461 663 OFFCURVE",
"404 685 OFFCURVE",
"395 644 CURVE SMOOTH"
);
},
{
closed = 1;
nodes = (
"465 319 OFFCURVE",
"323 303 OFFCURVE",
"264 288 CURVE SMOOTH",
"246 283 OFFCURVE",
"238 271 OFFCURVE",
"238 260 CURVE SMOOTH",
"238 244 OFFCURVE",
"253 230 OFFCURVE",
"279 235 CURVE SMOOTH",
"360 251 OFFCURVE",
"533 263 OFFCURVE",
"561 263 CURVE SMOOTH",
"579 263 OFFCURVE",
"591 279 OFFCURVE",
"591 293 CURVE SMOOTH",
"591 310 OFFCURVE",
"576 319 OFFCURVE",
"559 319 CURVE SMOOTH"
);
},
{
closed = 1;
nodes = (
"205 389 OFFCURVE",
"165 380 OFFCURVE",
"131 381 CURVE SMOOTH",
"97 382 OFFCURVE",
"64 399 OFFCURVE",
"64 443 CURVE SMOOTH",
"64 596 OFFCURVE",
"416 626 OFFCURVE",
"622 629 CURVE SMOOTH",
"646 629 OFFCURVE",
"658 643 OFFCURVE",
"658 657 CURVE SMOOTH",
"658 677 OFFCURVE",
"643 688 OFFCURVE",
"618 687 CURVE SMOOTH",
"460 682 OFFCURVE",
"3 669 OFFCURVE",
"0 444 CURVE SMOOTH",
"-1 349 OFFCURVE",
"71 325 OFFCURVE",
"140 325 CURVE SMOOTH",
"182 325 OFFCURVE",
"223 334 OFFCURVE",
"246 342 CURVE SMOOTH",
"270 350 OFFCURVE",
"280 362 OFFCURVE",
"280 373 CURVE SMOOTH",
"280 399 OFFCURVE",
"253 408 OFFCURVE",
"227 397 CURVE SMOOTH"
);
}
);
width = 658;
},
{
associatedMasterId = "2B556C7D-ACF4-4058-9F01-0A4D9389EAED";
layerId = "D2362CBB-EBAB-4070-B0E7-EB696AC768B0";
name = "Regular Oct 9 16, 22:13";
paths = (
{
closed = 1;
nodes = (
"364 509 OFFCURVE",
"329 300 OFFCURVE",
"275 42 CURVE SMOOTH",
"269 14 OFFCURVE",
"287 1 OFFCURVE",
"305 1 CURVE SMOOTH",
"318 1 OFFCURVE",
"330 9 OFFCURVE",
"336 32 CURVE SMOOTH",
"371 189 OFFCURVE",
"443 580 OFFCURVE",
"454 632 CURVE SMOOTH",
"461 663 OFFCURVE",
"404 685 OFFCURVE",
"395 644 CURVE SMOOTH"
);
},
{
closed = 1;
nodes = (
"465 319 OFFCURVE",
"323 303 OFFCURVE",
"264 288 CURVE SMOOTH",
"246 283 OFFCURVE",
"238 271 OFFCURVE",
"238 260 CURVE SMOOTH",
"238 244 OFFCURVE",
"253 230 OFFCURVE",
"279 235 CURVE SMOOTH",
"360 251 OFFCURVE",
"533 263 OFFCURVE",
"561 263 CURVE SMOOTH",
"579 263 OFFCURVE",
"591 279 OFFCURVE",
"591 293 CURVE SMOOTH",
"591 310 OFFCURVE",
"576 319 OFFCURVE",
"559 319 CURVE SMOOTH"
);
},
{
closed = 1;
nodes = (
"176 414 OFFCURVE",
"63 396 OFFCURVE",
"63 472 CURVE SMOOTH",
"63 534 OFFCURVE",
"135 570 OFFCURVE",
"232 593 CURVE SMOOTH",
"340 619 OFFCURVE",
"523 627 OFFCURVE",
"646 629 CURVE SMOOTH",
"670 629 OFFCURVE",
"682 643 OFFCURVE",
"682 657 CURVE SMOOTH",
"682 677 OFFCURVE",
"667 688 OFFCURVE",
"642 687 CURVE SMOOTH",
"550 684 OFFCURVE",
"347 683 OFFCURVE",
"207 646 CURVE SMOOTH",
"86 615 OFFCURVE",
"2 564 OFFCURVE",
"1 470 CURVE SMOOTH",
"-1 322 OFFCURVE",
"186 353 OFFCURVE",
"249 397 CURVE SMOOTH",
"266 409 OFFCURVE",
"275 421 OFFCURVE",
"275 436 CURVE SMOOTH",
"275 460 OFFCURVE",
"251 469 OFFCURVE",
"227 451 CURVE SMOOTH"
);
}
);
width = 658;
},
{
associatedMasterId = "2B556C7D-ACF4-4058-9F01-0A4D9389EAED";
layerId = "189B81B3-311B-4A80-9130-C456257BBDA4";
name = "Regular Oct 10 16, 12:35";
paths = (
{
closed = 1;
nodes = (
"374 509 OFFCURVE",
"339 300 OFFCURVE",
"285 42 CURVE SMOOTH",
"279 14 OFFCURVE",
"297 1 OFFCURVE",
"315 1 CURVE SMOOTH",
"328 1 OFFCURVE",
"340 9 OFFCURVE",
"346 32 CURVE SMOOTH",
"381 189 OFFCURVE",
"453 580 OFFCURVE",
"464 632 CURVE SMOOTH",
"471 663 OFFCURVE",
"414 685 OFFCURVE",
"405 644 CURVE SMOOTH"
);
},
{
closed = 1;
nodes = (
"451 312 OFFCURVE",
"347 307 OFFCURVE",
"291 303 CURVE SMOOTH",
"268 301 OFFCURVE",
"265 282 OFFCURVE",
"265 277 CURVE SMOOTH",
"265 255 OFFCURVE",
"280 248 OFFCURVE",
"306 249 CURVE SMOOTH",
"424 254 OFFCURVE",
"534 259 OFFCURVE",
"573 262 CURVE SMOOTH",
"591 264 OFFCURVE",
"601 278 OFFCURVE",
"601 292 CURVE SMOOTH",
"601 309 OFFCURVE",
"586 319 OFFCURVE",
"569 318 CURVE SMOOTH"
);
},
{
closed = 1;
nodes = (
"175 465 OFFCURVE",
"62 447 OFFCURVE",
"62 523 CURVE SMOOTH",
"62 585 OFFCURVE",
"137 613 OFFCURVE",
"242 618 CURVE SMOOTH",
"360 624 OFFCURVE",
"519 630 OFFCURVE",
"664 635 CURVE SMOOTH",
"688 636 OFFCURVE",
"700 651 OFFCURVE",
"700 665 CURVE SMOOTH",
"700 685 OFFCURVE",
"685 694 OFFCURVE",
"660 693 CURVE SMOOTH",
"525 687 OFFCURVE",
"285 677 OFFCURVE",
"217 671 CURVE SMOOTH",
"95 661 OFFCURVE",
"1 615 OFFCURVE",
"0 521 CURVE SMOOTH",
"-2 373 OFFCURVE",
"185 404 OFFCURVE",
"248 448 CURVE SMOOTH",
"265 460 OFFCURVE",
"274 472 OFFCURVE",
"274 487 CURVE SMOOTH",
"274 511 OFFCURVE",
"250 520 OFFCURVE",
"226 502 CURVE SMOOTH"
);
}
);
width = 692;
},
{
associatedMasterId = "2B556C7D-ACF4-4058-9F01-0A4D9389EAED";
layerId = "51D9D429-2F7E-452D-BC76-C15CF73BB578";
name = "Regular Oct 11 16, 14:53";
paths = (
{
closed = 1;
nodes = (
"374 509 OFFCURVE",
"339 300 OFFCURVE",
"285 42 CURVE SMOOTH",
"279 14 OFFCURVE",
"297 1 OFFCURVE",
"315 1 CURVE SMOOTH",
"328 1 OFFCURVE",
"340 9 OFFCURVE",
"346 32 CURVE SMOOTH",
"381 189 OFFCURVE",
"453 580 OFFCURVE",
"464 632 CURVE SMOOTH",
"471 663 OFFCURVE",
"414 685 OFFCURVE",
"405 644 CURVE SMOOTH"
);
},
{
closed = 1;
nodes = (
"449 255 OFFCURVE",
"345 250 OFFCURVE",
"289 246 CURVE SMOOTH",
"266 244 OFFCURVE",
"263 225 OFFCURVE",
"263 220 CURVE SMOOTH",
"263 198 OFFCURVE",
"278 191 OFFCURVE",
"304 192 CURVE SMOOTH",
"422 197 OFFCURVE",
"532 202 OFFCURVE",
"571 205 CURVE SMOOTH",
"589 207 OFFCURVE",
"599 221 OFFCURVE",
"599 235 CURVE SMOOTH",
"599 252 OFFCURVE",
"584 262 OFFCURVE",
"567 261 CURVE SMOOTH"
);
},
{
closed = 1;
nodes = (
"581 675 OFFCURVE",
"341 665 OFFCURVE",
"273 659 CURVE SMOOTH",
"250 655 OFFCURVE",
"245 644 OFFCURVE",
"245 632 CURVE SMOOTH",
"245 618 OFFCURVE",
"251 603 OFFCURVE",
"285 603 CURVE SMOOTH",
"403 609 OFFCURVE",
"575 618 OFFCURVE",
"720 623 CURVE SMOOTH",
"744 624 OFFCURVE",
"756 639 OFFCURVE",
"756 653 CURVE SMOOTH",
"756 673 OFFCURVE",
"741 682 OFFCURVE",
"716 681 CURVE SMOOTH"
);
}
);
width = 692;
},
{
associatedMasterId = "2B556C7D-ACF4-4058-9F01-0A4D9389EAED";
layerId = "E9D6CD34-4CA4-4397-83AA-D8D134D39333";
name = "Regular Oct 11 16, 15:06";
paths = (
{
closed = 1;
nodes = (
"374 509 OFFCURVE",
"339 300 OFFCURVE",
"285 42 CURVE SMOOTH",
"279 14 OFFCURVE",
"297 1 OFFCURVE",
"315 1 CURVE SMOOTH",
"328 1 OFFCURVE",
"340 9 OFFCURVE",
"346 32 CURVE SMOOTH",
"381 189 OFFCURVE",
"453 580 OFFCURVE",
"464 632 CURVE SMOOTH",
"471 663 OFFCURVE",
"414 685 OFFCURVE",
"405 644 CURVE SMOOTH"
);
},
{
closed = 1;
nodes = (
"449 255 OFFCURVE",
"345 250 OFFCURVE",
"289 246 CURVE SMOOTH",
"266 244 OFFCURVE",
"263 225 OFFCURVE",
"263 220 CURVE SMOOTH",
"263 198 OFFCURVE",
"278 191 OFFCURVE",
"304 192 CURVE SMOOTH",
"422 197 OFFCURVE",
"532 202 OFFCURVE",
"571 205 CURVE SMOOTH",
"589 207 OFFCURVE",
"599 221 OFFCURVE",
"599 235 CURVE SMOOTH",
"599 252 OFFCURVE",
"584 262 OFFCURVE",
"567 261 CURVE SMOOTH"
);
},
{
closed = 1;
nodes = (
"173 448 OFFCURVE",
"60 430 OFFCURVE",
"60 506 CURVE SMOOTH",
"60 568 OFFCURVE",
"135 596 OFFCURVE",
"240 601 CURVE SMOOTH",
"358 607 OFFCURVE",
"517 613 OFFCURVE",
"662 618 CURVE SMOOTH",
"686 619 OFFCURVE",
"698 634 OFFCURVE",
"698 648 CURVE SMOOTH",
"698 668 OFFCURVE",
"683 677 OFFCURVE",
"658 676 CURVE SMOOTH",
"523 670 OFFCURVE",
"283 660 OFFCURVE",
"215 654 CURVE SMOOTH",
"93 644 OFFCURVE",
"-1 598 OFFCURVE",
"-2 504 CURVE SMOOTH",
"-4 356 OFFCURVE",
"183 387 OFFCURVE",
"246 431 CURVE SMOOTH",
"263 443 OFFCURVE",
"272 455 OFFCURVE",
"272 470 CURVE SMOOTH",
"272 494 OFFCURVE",
"248 503 OFFCURVE",
"224 485 CURVE SMOOTH"
);
}
);
width = 692;
},
{
layerId = "2B556C7D-ACF4-4058-9F01-0A4D9389EAED";
name = Regular;
paths = (
{
closed = 1;
nodes = (
"363 461 OFFCURVE",
"339 300 OFFCURVE",
"285 42 CURVE SMOOTH",
"279 14 OFFCURVE",
"297 1 OFFCURVE",
"315 1 CURVE SMOOTH",
"328 1 OFFCURVE",
"340 9 OFFCURVE",
"346 32 CURVE SMOOTH",
"381 189 OFFCURVE",
"441 532 OFFCURVE",
"452 584 CURVE SMOOTH",
"459 615 OFFCURVE",
"403 637 OFFCURVE",
"394 596 CURVE SMOOTH"
);
},
{
closed = 1;
nodes = (
"449 255 OFFCURVE",
"345 250 OFFCURVE",
"289 246 CURVE SMOOTH",
"266 244 OFFCURVE",
"263 225 OFFCURVE",
"263 220 CURVE SMOOTH",
"263 198 OFFCURVE",
"278 191 OFFCURVE",
"304 192 CURVE SMOOTH",
"422 197 OFFCURVE",
"532 202 OFFCURVE",
"571 205 CURVE SMOOTH",
"589 207 OFFCURVE",
"599 221 OFFCURVE",
"599 235 CURVE SMOOTH",
"599 252 OFFCURVE",
"584 262 OFFCURVE",
"567 261 CURVE SMOOTH"
);
},
{
closed = 1;
nodes = (
"173 463 OFFCURVE",
"63 462 OFFCURVE",
"63 524 CURVE SMOOTH",
"63 577 OFFCURVE",
"111 604 OFFCURVE",
"193 604 CURVE SMOOTH",
"377 604 OFFCURVE",
"567 491 OFFCURVE",
"721 627 CURVE SMOOTH",
"753 655 OFFCURVE",
"714 700 OFFCURVE",
"675 666 CURVE SMOOTH",
"552 559 OFFCURVE",
"374 662 OFFCURVE",
"190 662 CURVE SMOOTH",
"93 662 OFFCURVE",
"1 631 OFFCURVE",
"0 522 CURVE SMOOTH",
"-1 385 OFFCURVE",
"183 402 OFFCURVE",
"246 446 CURVE SMOOTH",
"263 458 OFFCURVE",
"272 470 OFFCURVE",
"272 485 CURVE SMOOTH",
"272 509 OFFCURVE",
"248 518 OFFCURVE",
"224 500 CURVE SMOOTH"
);
}
);
width = 683;
}
);
unicode = 0046;
},
{
color = 11;
glyphname = G;
lastChange = "2016-10-14 10:57:52 +0000";
layers = (
{
associatedMasterId = "2B556C7D-ACF4-4058-9F01-0A4D9389EAED";
layerId = "D67B0565-ADA9-4DE6-AC36-D0F6C97B45C2";
name = "Regular Jul 31 16, 17:26";
paths = (
{
closed = 1;
nodes = (
"449 624 OFFCURVE",
"410 700 OFFCURVE",
"363 691 CURVE SMOOTH",
"188 659 OFFCURVE",
"93 43 OFFCURVE",
"247 43 CURVE SMOOTH",
"308 43 OFFCURVE",
"400 160 OFFCURVE",
"449 274 CURVE SMOOTH",
"476 336 OFFCURVE",
"531 352 OFFCURVE",
"517 297 CURVE SMOOTH",
"464 85 OFFCURVE",
"441 -68 OFFCURVE",
"427 -148 CURVE SMOOTH",
"418 -201 OFFCURVE",
"396 -237 OFFCURVE",
"371 -223 CURVE SMOOTH",
"345 -209 OFFCURVE",
"345 -166 OFFCURVE",
"375 -102 CURVE SMOOTH",
"384 -83 OFFCURVE",
"405 -3 OFFCURVE",
"617 282 CURVE SMOOTH",
"648 323 OFFCURVE",
"701 301 OFFCURVE",
"657 244 CURVE SMOOTH",
"436 -46 OFFCURVE",
"367 -207 OFFCURVE",
"369 -191 CURVE SMOOTH",
"380 -74 OFFCURVE",
"411 145 OFFCURVE",
"457 294 CURVE SMOOTH",
"467 326 OFFCURVE",
"478 337 OFFCURVE",
"495 338 CURVE SMOOTH",
"552 343 OFFCURVE",
"501 251 OFFCURVE",
"497 244 CURVE SMOOTH",
"436 124 OFFCURVE",
"347 -5 OFFCURVE",
"258 -11 CURVE SMOOTH",
"122 -20 OFFCURVE",
"106 131 OFFCURVE",
"106 248 CURVE SMOOTH",
"106 417 OFFCURVE",
"191 733 OFFCURVE",
"361 741 CURVE SMOOTH",
"486 746 OFFCURVE",
"510 598 OFFCURVE",
"469 476 CURVE SMOOTH",
"456 437 OFFCURVE",
"391 431 OFFCURVE",
"412 500 CURVE SMOOTH"
);
}
);
width = 654;
},
{
associatedMasterId = "2B556C7D-ACF4-4058-9F01-0A4D9389EAED";
layerId = "0AF8E884-F1E1-41E9-AC98-9C52D8FE1FA4";
name = "Regular Jul 31 16, 17:26 Jul 31 16, 17:31";
paths = (
{
closed = 1;
nodes = (
"449 624 OFFCURVE",
"410 700 OFFCURVE",
"363 691 CURVE SMOOTH",
"188 659 OFFCURVE",
"93 35 OFFCURVE",
"247 35 CURVE SMOOTH",
"308 35 OFFCURVE",
"400 160 OFFCURVE",
"449 274 CURVE SMOOTH",
"476 336 OFFCURVE",
"531 352 OFFCURVE",
"517 297 CURVE SMOOTH",
"464 85 OFFCURVE",
"441 -68 OFFCURVE",
"427 -148 CURVE SMOOTH",
"418 -201 OFFCURVE",
"396 -237 OFFCURVE",
"371 -223 CURVE SMOOTH",
"345 -209 OFFCURVE",
"366 -110 OFFCURVE",
"385 -42 CURVE SMOOTH",
"394 -9 OFFCURVE",
"429 184 OFFCURVE",
"682 308 CURVE SMOOTH",
"726 330 OFFCURVE",
"743 272 OFFCURVE",
"702 252 CURVE SMOOTH",
"388 98 OFFCURVE",
"368 -216 OFFCURVE",
"368 -216 CURVE SMOOTH",
"379 -99 OFFCURVE",
"411 145 OFFCURVE",
"457 294 CURVE SMOOTH",
"467 326 OFFCURVE",
"478 337 OFFCURVE",
"495 338 CURVE SMOOTH",
"552 343 OFFCURVE",
"501 251 OFFCURVE",
"497 244 CURVE SMOOTH",
"436 124 OFFCURVE",
"347 -13 OFFCURVE",
"258 -19 CURVE SMOOTH",
"122 -28 OFFCURVE",
"107 121 OFFCURVE",
"107 238 CURVE SMOOTH",
"107 407 OFFCURVE",
"191 733 OFFCURVE",
"361 741 CURVE SMOOTH",
"486 746 OFFCURVE",
"510 598 OFFCURVE",
"469 476 CURVE SMOOTH",
"456 437 OFFCURVE",
"391 431 OFFCURVE",
"412 500 CURVE SMOOTH"
);
}
);
width = 675;
},
{
associatedMasterId = "2B556C7D-ACF4-4058-9F01-0A4D9389EAED";
layerId = "C06ED7A3-3581-4696-96B2-FDA3D8215F6E";
name = "Regular Jul 31 16, 17:46";
paths = (
{
closed = 1;
nodes = (
"449 624 OFFCURVE",
"410 700 OFFCURVE",
"363 691 CURVE SMOOTH",
"188 659 OFFCURVE",
"93 43 OFFCURVE",
"247 43 CURVE SMOOTH",
"308 43 OFFCURVE",
"400 160 OFFCURVE",
"449 274 CURVE SMOOTH",
"476 336 OFFCURVE",
"531 352 OFFCURVE",
"517 297 CURVE SMOOTH",
"464 85 OFFCURVE",
"433 -123 OFFCURVE",
"427 -189 CURVE SMOOTH",
"420 -258 OFFCURVE",
"360 -251 OFFCURVE",
"364 -207 CURVE SMOOTH",
"374 -97 OFFCURVE",
"411 145 OFFCURVE",
"457 294 CURVE SMOOTH",
"467 326 OFFCURVE",
"478 337 OFFCURVE",
"495 338 CURVE SMOOTH",
"552 343 OFFCURVE",
"501 251 OFFCURVE",
"497 244 CURVE SMOOTH",
"436 124 OFFCURVE",
"347 -5 OFFCURVE",
"258 -11 CURVE SMOOTH",
"122 -20 OFFCURVE",
"106 131 OFFCURVE",
"106 248 CURVE SMOOTH",
"106 417 OFFCURVE",
"191 733 OFFCURVE",
"361 741 CURVE SMOOTH",
"486 746 OFFCURVE",
"510 598 OFFCURVE",
"469 476 CURVE SMOOTH",
"456 437 OFFCURVE",
"391 431 OFFCURVE",
"412 500 CURVE SMOOTH"
);
}
);
width = 600;
},
{
associatedMasterId = "2B556C7D-ACF4-4058-9F01-0A4D9389EAED";
layerId = "1C78DB55-CF35-4714-9256-8862FD529364";
name = "Regular Aug 3 16, 14:07";
paths = (
{
closed = 1;
nodes = (
"449 624 OFFCURVE",
"410 700 OFFCURVE",
"363 691 CURVE SMOOTH",
"188 659 OFFCURVE",
"91 34 OFFCURVE",
"245 34 CURVE SMOOTH",
"306 34 OFFCURVE",
"403 185 OFFCURVE",
"457 290 CURVE SMOOTH",
"484 343 OFFCURVE",
"531 352 OFFCURVE",
"517 297 CURVE SMOOTH",
"464 85 OFFCURVE",
"441 -68 OFFCURVE",
"427 -148 CURVE SMOOTH",
"418 -201 OFFCURVE",
"396 -237 OFFCURVE",
"371 -223 CURVE SMOOTH",
"345 -209 OFFCURVE",
"334 -145 OFFCURVE",
"353 -77 CURVE SMOOTH",
"362 -44 OFFCURVE",
"415 173 OFFCURVE",
"682 308 CURVE SMOOTH",
"727 331 OFFCURVE",
"742 276 OFFCURVE",
"702 252 CURVE SMOOTH",
"374 57 OFFCURVE",
"371 -212 OFFCURVE",
"371 -212 CURVE SMOOTH",
"371 -125 OFFCURVE",
"418 145 OFFCURVE",
"457 294 CURVE SMOOTH",
"465 326 OFFCURVE",
"478 337 OFFCURVE",
"495 338 CURVE SMOOTH",
"552 343 OFFCURVE",
"501 262 OFFCURVE",
"497 255 CURVE SMOOTH",
"436 145 OFFCURVE",
"347 -13 OFFCURVE",
"258 -19 CURVE SMOOTH",
"122 -28 OFFCURVE",
"107 121 OFFCURVE",
"107 238 CURVE SMOOTH",
"107 407 OFFCURVE",
"191 733 OFFCURVE",
"361 741 CURVE SMOOTH",
"486 746 OFFCURVE",
"510 598 OFFCURVE",
"469 476 CURVE SMOOTH",
"456 437 OFFCURVE",
"391 431 OFFCURVE",
"412 500 CURVE SMOOTH"
);
}
);
width = 675;
},
{
associatedMasterId = "2B556C7D-ACF4-4058-9F01-0A4D9389EAED";
layerId = "0126015F-1BA0-489B-89E4-BE4D954CBFBB";
name = "Regular Oct 9 16, 22:21";
paths = (
{
closed = 1;
nodes = (
"352 590 OFFCURVE",
"310 641 OFFCURVE",
"263 632 CURVE SMOOTH",
"86 599 OFFCURVE",
"-20 25 OFFCURVE",
"134 59 CURVE SMOOTH",
"193 72 OFFCURVE",
"275 175 OFFCURVE",
"329 297 CURVE SMOOTH",
"353 351 OFFCURVE",
"390 329 OFFCURVE",
"382 297 CURVE SMOOTH",
"329 85 OFFCURVE",
"326 -31 OFFCURVE",
"312 -111 CURVE SMOOTH",
"303 -164 OFFCURVE",
"271 -197 OFFCURVE",
"236 -197 CURVE SMOOTH",
"207 -197 OFFCURVE",
"145 -184 OFFCURVE",
"164 -101 CURVE SMOOTH",
"172 -68 OFFCURVE",
"288 100 OFFCURVE",
"505 220 CURVE SMOOTH",
"545 242 OFFCURVE",
"563 195 OFFCURVE",
"530 172 CURVE SMOOTH",
"391 73 OFFCURVE",
"255 -57 OFFCURVE",
"228 -98 CURVE SMOOTH",
"211 -124 OFFCURVE",
"208 -154 OFFCURVE",
"236 -154 CURVE SMOOTH",
"270 -154 OFFCURVE",
"283 145 OFFCURVE",
"322 294 CURVE SMOOTH",
"330 326 OFFCURVE",
"343 353 OFFCURVE",
"369 345 CURVE SMOOTH",
"412 332 OFFCURVE",
"376 261 OFFCURVE",
"372 254 CURVE SMOOTH",
"311 137 OFFCURVE",
"234 21 OFFCURVE",
"141 4 CURVE SMOOTH",
"7 -21 OFFCURVE",
"-7 144 OFFCURVE",
"0 229 CURVE SMOOTH",
"16 436 OFFCURVE",
"109 682 OFFCURVE",
"267 689 CURVE SMOOTH",
"392 695 OFFCURVE",
"413 556 OFFCURVE",
"372 446 CURVE SMOOTH",
"360 414 OFFCURVE",
"297 410 OFFCURVE",
"315 470 CURVE SMOOTH"
);
}
);
width = 547;
},
{
associatedMasterId = "2B556C7D-ACF4-4058-9F01-0A4D9389EAED";
layerId = "E70FBAD1-1483-485A-9808-28D84B93EE0D";
name = "Regular Oct 9 16, 22:21 Oct 9 16, 22:25";
paths = (
{
closed = 1;
nodes = (
"445 639 OFFCURVE",
"310 641 OFFCURVE",
"263 632 CURVE SMOOTH",
"86 599 OFFCURVE",
"-20 25 OFFCURVE",
"134 59 CURVE SMOOTH",
"193 72 OFFCURVE",
"232 157 OFFCURVE",
"286 279 CURVE SMOOTH",
"310 333 OFFCURVE",
"347 311 OFFCURVE",
"339 279 CURVE SMOOTH",
"286 67 OFFCURVE",
"283 -49 OFFCURVE",
"269 -129 CURVE SMOOTH",
"260 -182 OFFCURVE",
"228 -215 OFFCURVE",
"193 -215 CURVE SMOOTH",
"164 -215 OFFCURVE",
"102 -202 OFFCURVE",
"121 -119 CURVE SMOOTH",
"129 -86 OFFCURVE",
"245 82 OFFCURVE",
"462 202 CURVE SMOOTH",
"502 224 OFFCURVE",
"520 177 OFFCURVE",
"487 154 CURVE SMOOTH",
"348 55 OFFCURVE",
"212 -75 OFFCURVE",
"185 -116 CURVE SMOOTH",
"168 -142 OFFCURVE",
"165 -172 OFFCURVE",
"193 -172 CURVE SMOOTH",
"227 -172 OFFCURVE",
"240 127 OFFCURVE",
"279 276 CURVE SMOOTH",
"287 308 OFFCURVE",
"300 335 OFFCURVE",
"326 327 CURVE SMOOTH",
"369 314 OFFCURVE",
"333 243 OFFCURVE",
"329 236 CURVE SMOOTH",
"268 119 OFFCURVE",
"234 21 OFFCURVE",
"141 4 CURVE SMOOTH",
"7 -21 OFFCURVE",
"-7 144 OFFCURVE",
"0 229 CURVE SMOOTH",
"16 436 OFFCURVE",
"109 682 OFFCURVE",
"267 689 CURVE SMOOTH",
"392 695 OFFCURVE",
"533 616 OFFCURVE",
"465 393 CURVE SMOOTH",
"455 361 OFFCURVE",
"398 355 OFFCURVE",
"408 417 CURVE SMOOTH"
);
}
);
width = 547;
},
{
associatedMasterId = "2B556C7D-ACF4-4058-9F01-0A4D9389EAED";
layerId = "3FB03088-16BC-4103-B5F6-F031F75388EE";
name = "Regular Oct 10 16, 12:35";
paths = (
{
closed = 1;
nodes = (
"343 632 OFFCURVE",
"301 696 OFFCURVE",
"254 687 CURVE SMOOTH",
"77 654 OFFCURVE",
"-29 25 OFFCURVE",
"125 59 CURVE SMOOTH",
"184 72 OFFCURVE",
"266 190 OFFCURVE",
"320 297 CURVE SMOOTH",
"347 350 OFFCURVE",
"381 329 OFFCURVE",
"373 297 CURVE SMOOTH",
"320 85 OFFCURVE",
"297 -80 OFFCURVE",
"283 -160 CURVE SMOOTH",
"274 -213 OFFCURVE",
"252 -231 OFFCURVE",
"227 -223 CURVE SMOOTH",
"199 -214 OFFCURVE",
"187 -155 OFFCURVE",
"206 -87 CURVE SMOOTH",
"215 -54 OFFCURVE",
"252 111 OFFCURVE",
"496 289 CURVE SMOOTH",
"534 317 OFFCURVE",
"555 266 OFFCURVE",
"521 241 CURVE SMOOTH",
"211 17 OFFCURVE",
"227 -212 OFFCURVE",
"227 -212 CURVE SMOOTH",
"227 -125 OFFCURVE",
"274 145 OFFCURVE",
"313 294 CURVE SMOOTH",
"321 326 OFFCURVE",
"334 353 OFFCURVE",
"360 345 CURVE SMOOTH",
"403 332 OFFCURVE",
"367 261 OFFCURVE",
"363 254 CURVE SMOOTH",
"302 137 OFFCURVE",
"225 21 OFFCURVE",
"132 4 CURVE SMOOTH",
"-2 -21 OFFCURVE",
"-16 144 OFFCURVE",
"-7 261 CURVE SMOOTH",
"7 436 OFFCURVE",
"88 736 OFFCURVE",
"258 744 CURVE SMOOTH",
"383 749 OFFCURVE",
"404 598 OFFCURVE",
"363 476 CURVE SMOOTH",
"350 437 OFFCURVE",
"287 431 OFFCURVE",
"306 500 CURVE SMOOTH"
);
}
);
width = 508;
},
{
layerId = "2B556C7D-ACF4-4058-9F01-0A4D9389EAED";
name = Regular;
paths = (
{
closed = 1;
nodes = (
"1 462 OFFCURVE",
"1 189 CURVE SMOOTH",
"1 116 OFFCURVE",
"22 0 OFFCURVE",
"150 0 CURVE SMOOTH",
"264 0 OFFCURVE",
"336 104 OFFCURVE",
"360 187 CURVE SMOOTH",
"369 219 OFFCURVE",
"383 259 OFFCURVE",
"344 259 CURVE SMOOTH",
"326 259 OFFCURVE",
"318 237 OFFCURVE",
"306 206 CURVE SMOOTH",
"268 104 OFFCURVE",
"210 56 OFFCURVE",
"146 56 CURVE SMOOTH",
"103 56 OFFCURVE",
"65 95 OFFCURVE",
"65 188 CURVE SMOOTH",
"64 388 OFFCURVE",
"149 633 OFFCURVE",
"283 633 CURVE SMOOTH",
"324 633 OFFCURVE",
"364 601 OFFCURVE",
"363 508 CURVE SMOOTH",
"363 496 OFFCURVE",
"359 464 OFFCURVE",
"353 429 CURVE SMOOTH",
"350 412 OFFCURVE",
"357 399 OFFCURVE",
"378 399 CURVE SMOOTH",
"415 399 OFFCURVE",
"427 465 OFFCURVE",
"427 514 CURVE SMOOTH",
"427 626 OFFCURVE",
"366 690 OFFCURVE",
"283 690 CURVE SMOOTH",
"124 690 OFFCURVE"
);
},
{
closed = 1;
nodes = (
"296 281 OFFCURVE",
"233 276 OFFCURVE",
"177 272 CURVE SMOOTH",
"154 270 OFFCURVE",
"151 251 OFFCURVE",
"151 246 CURVE SMOOTH",
"151 224 OFFCURVE",
"166 217 OFFCURVE",
"192 218 CURVE SMOOTH",
"300 223 OFFCURVE",
"379 228 OFFCURVE",
"418 231 CURVE SMOOTH",
"436 233 OFFCURVE",
"446 247 OFFCURVE",
"446 261 CURVE SMOOTH",
"446 278 OFFCURVE",
"431 288 OFFCURVE",
"414 287 CURVE SMOOTH"
);
}
);
width = 496;
}
);
unicode = 0047;
},
{
color = 11;
glyphname = H;
lastChange = "2016-10-13 09:40:58 +0000";
layers = (
{
associatedMasterId = "2B556C7D-ACF4-4058-9F01-0A4D9389EAED";
layerId = "E98EE475-9D18-45BF-92B7-FB4087A31D29";
name = "Regular Jul 31 16, 17:49";
paths = (
{
closed = 1;
nodes = (
"134 563 OFFCURVE",
"39 79 OFFCURVE",
"76 20 CURVE SMOOTH",
"96 -12 OFFCURVE",
"124 -11 OFFCURVE",
"139 31 CURVE SMOOTH",
"152 68 OFFCURVE",
"139 315 OFFCURVE",
"21 469 CURVE SMOOTH",
"-13 513 OFFCURVE",
"-43 514 OFFCURVE",
"-72 511 CURVE SMOOTH",
"-189 500 OFFCURVE",
"-158 213 OFFCURVE",
"-52 167 CURVE SMOOTH",
"88 107 OFFCURVE",
"493 500 OFFCURVE",
"542 682 CURVE SMOOTH",
"543 686 OFFCURVE",
"548 724 OFFCURVE",
"532 744 CURVE SMOOTH",
"527 750 OFFCURVE",
"503 768 OFFCURVE",
"466 729 CURVE SMOOTH",
"458 721 OFFCURVE",
"320 73 OFFCURVE",
"333 -27 CURVE SMOOTH",
"336 -51 OFFCURVE",
"379 -46 OFFCURVE",
"388 -25 CURVE SMOOTH",
"392 -17 OFFCURVE",
"516 717 OFFCURVE",
"511 708 CURVE SMOOTH",
"374 460 OFFCURVE",
"69 169 OFFCURVE",
"-21 211 CURVE SMOOTH",
"-130 262 OFFCURVE",
"-114 516 OFFCURVE",
"-51 472 CURVE SMOOTH",
"79 381 OFFCURVE",
"86 38 OFFCURVE",
"85 38 CURVE SMOOTH",
"85 38 OFFCURVE",
"116 31 OFFCURVE",
"116 41 CURVE SMOOTH",
"116 87 OFFCURVE",
"154 376 OFFCURVE",
"242 666 CURVE SMOOTH",
"252 699 OFFCURVE",
"179 696 OFFCURVE",
"178 694 CURVE SMOOTH"
);
}
);
width = 526;
},
{
associatedMasterId = "2B556C7D-ACF4-4058-9F01-0A4D9389EAED";
layerId = "074A9064-C275-4BE8-B2D8-765626A0475F";
name = "Regular Jul 31 16, 17:49 Jul 31 16, 18:43";
paths = (
{
closed = 1;
nodes = (
"304 635 OFFCURVE",
"190 79 OFFCURVE",
"227 20 CURVE SMOOTH",
"247 -12 OFFCURVE",
"290 0 OFFCURVE",
"290 31 CURVE SMOOTH",
"290 69 OFFCURVE",
"294 315 OFFCURVE",
"176 469 CURVE SMOOTH",
"142 513 OFFCURVE",
"108 522 OFFCURVE",
"79 519 CURVE SMOOTH",
"-52 507 OFFCURVE",
"-18 205 OFFCURVE",
"99 167 CURVE SMOOTH",
"246 119 OFFCURVE",
"542 242 OFFCURVE",
"652 555 CURVE SMOOTH",
"653 559 OFFCURVE",
"671 614 OFFCURVE",
"657 635 CURVE",
"650 653 OFFCURVE",
"612 670 OFFCURVE",
"591 620 CURVE SMOOTH",
"535 485 OFFCURVE",
"461 79 OFFCURVE",
"468 -21 CURVE SMOOTH",
"471 -63 OFFCURVE",
"521 -47 OFFCURVE",
"523 -25 CURVE SMOOTH",
"541 229 OFFCURVE",
"640 608 OFFCURVE",
"636 599 CURVE SMOOTH",
"499 282 OFFCURVE",
"225 186 OFFCURVE",
"130 216 CURVE SMOOTH",
"18 251 OFFCURVE",
"37 509 OFFCURVE",
"100 465 CURVE SMOOTH",
"230 374 OFFCURVE",
"237 38 OFFCURVE",
"236 38 CURVE SMOOTH",
"236 38 OFFCURVE",
"265 31 OFFCURVE",
"267 41 CURVE SMOOTH",
"277 99 OFFCURVE",
"294 315 OFFCURVE",
"406 741 CURVE SMOOTH",
"421 798 OFFCURVE",
"364 827 OFFCURVE",
"346 769 CURVE SMOOTH"
);
}
);
width = 676;
},
{
associatedMasterId = "2B556C7D-ACF4-4058-9F01-0A4D9389EAED";
layerId = "601CE82B-8F3F-470A-BD80-92025690EC89";
name = "Regular Jul 31 16, 18:51";
paths = (
{
closed = 1;
nodes = (
"508 -46 OFFCURVE",
"482.244 -83 OFFCURVE",
"451 -83 CURVE",
"413.674 -83 OFFCURVE",
"392 64.2294 OFFCURVE",
"392 247 CURVE",
"392 384.352 OFFCURVE",
"431.948 605 OFFCURVE",
"478 605 CURVE",
"503.072 605 OFFCURVE",
"526 548.249 OFFCURVE",
"526 500 CURVE",
"526 285.143 OFFCURVE",
"266.198 167.838 OFFCURVE",
"15.4384 174.25 CURVE",
"11.0169 71.7011 OFFCURVE",
"40.1 -25 OFFCURVE",
"100 -25 CURVE",
"210.892 -25 OFFCURVE",
"248 210.272 OFFCURVE",
"248 401 CURVE",
"248 496.741 OFFCURVE",
"234.797 572 OFFCURVE",
"161 572 CURVE",
"79.5102 572 OFFCURVE",
"-20 450.128 OFFCURVE",
"-20 391 CURVE",
"-20 353.175 OFFCURVE",
"12.1196 335.509 OFFCURVE",
"30.0345 329.91 CURVE",
"41.9655 368.09 LINE",
"28.1392 372.41 OFFCURVE",
"20 377.108 OFFCURVE",
"20 391 CURVE",
"20 433.787 OFFCURVE",
"100.552 532 OFFCURVE",
"161 532 CURVE",
"199.109 532 OFFCURVE",
"208 491.216 OFFCURVE",
"208 401 CURVE",
"208 221.706 OFFCURVE",
"169.148 15 OFFCURVE",
"100 15 CURVE",
"81.5421 15 OFFCURVE",
"59.174 64.9502 OFFCURVE",
"55.5168 134.277 CURVE",
"304.989 140.987 OFFCURVE",
"566 269.618 OFFCURVE",
"566 500 CURVE",
"566 557.674 OFFCURVE",
"532.792 645 OFFCURVE",
"478 645 CURVE",
"389.998 645 OFFCURVE",
"352 395.676 OFFCURVE",
"352 247 CURVE",
"352 53.749 OFFCURVE",
"370.265 -123 OFFCURVE",
"451 -123 CURVE",
"505.643 -123 OFFCURVE",
"548 -60 OFFCURVE",
"548 -9 CURVE",
"508 -9 LINE"
);
}
);
width = 526;
},
{
associatedMasterId = "2B556C7D-ACF4-4058-9F01-0A4D9389EAED";
layerId = "06083578-AC41-4EAD-94A3-AF6C7BD8754F";
name = "Regular Oct 13 16, 11:38";
paths = (
{
closed = 1;
nodes = (
"319 636 OFFCURVE",
"224 89 OFFCURVE",
"239 20 CURVE SMOOTH",
"247 -16 OFFCURVE",
"295 0 OFFCURVE",
"302 31 CURVE SMOOTH",
"314 88 OFFCURVE",
"306 345 OFFCURVE",
"188 478 CURVE SMOOTH",
"151 520 OFFCURVE",
"120 528 OFFCURVE",
"91 525 CURVE SMOOTH",
"29 519 OFFCURVE",
"-1 447 OFFCURVE",
"0 369 CURVE SMOOTH",
"2 169 OFFCURVE",
"156 111 OFFCURVE",
"347 196 CURVE SMOOTH",
"472 250 OFFCURVE",
"597 367 OFFCURVE",
"665 551 CURVE SMOOTH",
"666 555 OFFCURVE",
"683 614 OFFCURVE",
"669 635 CURVE",
"662 653 OFFCURVE",
"621 670 OFFCURVE",
"600 620 CURVE SMOOTH",
"544 485 OFFCURVE",
"473 79 OFFCURVE",
"480 -21 CURVE SMOOTH",
"483 -63 OFFCURVE",
"534 -47 OFFCURVE",
"536 -25 CURVE SMOOTH",
"554 229 OFFCURVE",
"652 608 OFFCURVE",
"648 599 CURVE SMOOTH",
"578 437 OFFCURVE",
"475 334 OFFCURVE",
"376 275 CURVE SMOOTH",
"213 179 OFFCURVE",
"66 189 OFFCURVE",
"60 356 CURVE SMOOTH",
"58 403 OFFCURVE",
"69 447 OFFCURVE",
"85 463 CURVE SMOOTH",
"145 523 OFFCURVE",
"273 227 OFFCURVE",
"248 53 CURVE SMOOTH",
"248 53 OFFCURVE",
"288 31 OFFCURVE",
"290 41 CURVE SMOOTH",
"301 103 OFFCURVE",
"324 323 OFFCURVE",
"420 741 CURVE SMOOTH",
"433 798 OFFCURVE",
"372 800 OFFCURVE",
"362 769 CURVE SMOOTH"
);
}
);
width = 689;
},
{
layerId = "2B556C7D-ACF4-4058-9F01-0A4D9389EAED";
name = Regular;
paths = (
{
closed = 1;
nodes = (
"217 97 OFFCURVE",
"212 61 OFFCURVE",
"210 39 CURVE SMOOTH",
"208 8 OFFCURVE",
"225 1 OFFCURVE",
"239 1 CURVE SMOOTH",
"252 1 OFFCURVE",
"268 5 OFFCURVE",
"273 39 CURVE SMOOTH",
"275 52 OFFCURVE",
"280 95 OFFCURVE",
"289 164 CURVE SMOOTH",
"301 254 OFFCURVE",
"326 396 OFFCURVE",
"383 642 CURVE SMOOTH",
"396 699 OFFCURVE",
"335 701 OFFCURVE",
"325 670 CURVE SMOOTH",
"304 606 OFFCURVE",
"269 436 OFFCURVE",
"248 319 CURVE",
"267 328 LINE",
"247 408 OFFCURVE",
"190 496 OFFCURVE",
"110 495 CURVE SMOOTH",
"51 494 OFFCURVE",
"0 444 OFFCURVE",
"0 337 CURVE SMOOTH",
"0 206 OFFCURVE",
"60 149 OFFCURVE",
"154 149 CURVE SMOOTH",
"266 149 OFFCURVE",
"425 228 OFFCURVE",
"513 335 CURVE",
"505 344 LINE",
"478 190 OFFCURVE",
"467 84 OFFCURVE",
"461 35 CURVE SMOOTH",
"458 11 OFFCURVE",
"473 0 OFFCURVE",
"488 0 CURVE SMOOTH",
"505 0 OFFCURVE",
"520 9 OFFCURVE",
"524 43 CURVE SMOOTH",
"546 227 OFFCURVE",
"579 414 OFFCURVE",
"641 644 CURVE SMOOTH",
"646 664 OFFCURVE",
"641 689 OFFCURVE",
"615 689 CURVE SMOOTH",
"603 689 OFFCURVE",
"587 682 OFFCURVE",
"580 655 CURVE SMOOTH",
"514 403 OFFCURVE",
"494 391 OFFCURVE",
"424 326 CURVE SMOOTH",
"344 251 OFFCURVE",
"235 205 OFFCURVE",
"160 205 CURVE SMOOTH",
"100 205 OFFCURVE",
"61 248 OFFCURVE",
"61 326 CURVE SMOOTH",
"61 386 OFFCURVE",
"76 439 OFFCURVE",
"108 439 CURVE SMOOTH",
"161 439 OFFCURVE",
"244 306 OFFCURVE",
"226 169 CURVE SMOOTH"
);
}
);
width = 643;
}
);
unicode = 0048;
},
{
color = 11;
glyphname = I;
lastChange = "2016-10-13 09:48:24 +0000";
layers = (
{
associatedMasterId = "2B556C7D-ACF4-4058-9F01-0A4D9389EAED";
layerId = "AE9A1981-F9F5-470C-BB4F-53A246841977";
name = "Regular Oct 13 16, 11:46";
paths = (
{
closed = 1;
nodes = (
"62 525 OFFCURVE",
"0 124 OFFCURVE",
"0 40 CURVE SMOOTH",
"0 13 OFFCURVE",
"14 1 OFFCURVE",
"29 1 CURVE SMOOTH",
"45 1 OFFCURVE",
"60 13 OFFCURVE",
"62 37 CURVE SMOOTH",
"78 225 OFFCURVE",
"121 468 OFFCURVE",
"163 639 CURVE SMOOTH",
"172 675 OFFCURVE",
"155 690 OFFCURVE",
"137 690 CURVE SMOOTH",
"124 690 OFFCURVE",
"110 681 OFFCURVE",
"105 666 CURVE SMOOTH"
);
}
);
width = 166;
},
{
layerId = "2B556C7D-ACF4-4058-9F01-0A4D9389EAED";
name = Regular;
paths = (
{
closed = 1;
nodes = (
"160 545 OFFCURVE",
"83 99 OFFCURVE",
"83 44 CURVE SMOOTH",
"83 17 OFFCURVE",
"97 5 OFFCURVE",
"112 5 CURVE SMOOTH",
"128 5 OFFCURVE",
"142 17 OFFCURVE",
"145 41 CURVE SMOOTH",
"161 187 OFFCURVE",
"204 444 OFFCURVE",
"246 639 CURVE SMOOTH",
"254 675 OFFCURVE",
"238 690 OFFCURVE",
"220 690 CURVE SMOOTH",
"207 690 OFFCURVE",
"191 681 OFFCURVE",
"188 666 CURVE SMOOTH"
);
},
{
closed = 1;
nodes = (
"212 693 OFFCURVE",
"160 688 OFFCURVE",
"112 684 CURVE SMOOTH",
"89 682 OFFCURVE",
"86 663 OFFCURVE",
"86 658 CURVE SMOOTH",
"86 636 OFFCURVE",
"101 629 OFFCURVE",
"127 630 CURVE SMOOTH",
"218 635 OFFCURVE",
"280 640 OFFCURVE",
"317 643 CURVE SMOOTH",
"335 645 OFFCURVE",
"345 659 OFFCURVE",
"345 673 CURVE SMOOTH",
"345 690 OFFCURVE",
"330 700 OFFCURVE",
"313 699 CURVE SMOOTH"
);
},
{
closed = 1;
nodes = (
"120 59 OFFCURVE",
"71 56 OFFCURVE",
"26 52 CURVE SMOOTH",
"3 50 OFFCURVE",
"0 31 OFFCURVE",
"0 26 CURVE SMOOTH",
"0 4 OFFCURVE",
"15 -3 OFFCURVE",
"41 -2 CURVE SMOOTH",
"125 3 OFFCURVE",
"187 6 OFFCURVE",
"218 9 CURVE SMOOTH",
"236 11 OFFCURVE",
"246 25 OFFCURVE",
"246 39 CURVE SMOOTH",
"246 56 OFFCURVE",
"231 66 OFFCURVE",
"214 65 CURVE SMOOTH"
);
}
);
width = 345;
}
);
unicode = 0049;
},
{
color = 11;
glyphname = J;
lastChange = "2016-10-14 09:59:01 +0000";
layers = (
{
associatedMasterId = "2B556C7D-ACF4-4058-9F01-0A4D9389EAED";
layerId = "372F5DCA-6443-4764-B6D6-AD68258BE9B4";
name = "Regular Aug 4 16, 16:49";
paths = (
{
closed = 1;
nodes = (
"137 590 OFFCURVE",
"118 634 OFFCURVE",
"172 655 CURVE",
"280 692 OFFCURVE",
"387 714 OFFCURVE",
"473 703 CURVE SMOOTH",
"557 692 OFFCURVE",
"583 647 OFFCURVE",
"577 578 CURVE SMOOTH",
"560 395 OFFCURVE",
"523 -32 OFFCURVE",
"258 -90 CURVE SMOOTH",
"170 -109 OFFCURVE",
"76 -69 OFFCURVE",
"44 1 CURVE SMOOTH",
"-54 217 OFFCURVE",
"263 420 OFFCURVE",
"615 392 CURVE SMOOTH",
"669 388 OFFCURVE",
"687 350 OFFCURVE",
"608 350 CURVE SMOOTH",
"530 350 OFFCURVE",
"329 339 OFFCURVE",
"205 257 CURVE SMOOTH",
"68 167 OFFCURVE",
"49 19 OFFCURVE",
"152 -26 CURVE SMOOTH",
"225 -58 OFFCURVE",
"322 -22 OFFCURVE",
"386 70 CURVE SMOOTH",
"481 206 OFFCURVE",
"523 533 OFFCURVE",
"521 610 CURVE SMOOTH",
"520 656 OFFCURVE",
"403 663 OFFCURVE",
"189 604 CURVE SMOOTH"
);
}
);
width = 600;
},
{
associatedMasterId = "2B556C7D-ACF4-4058-9F01-0A4D9389EAED";
layerId = "7B931195-48D7-4F7F-BE1A-7E9A18E4BD49";
name = "Regular Aug 18 16, 16:52";
paths = (
{
closed = 1;
nodes = (
"138 584 OFFCURVE",
"117 632 OFFCURVE",
"172 655 CURVE SMOOTH",
"261 692 OFFCURVE",
"389 713 OFFCURVE",
"481 707 CURVE SMOOTH",
"566 701 OFFCURVE",
"586 647 OFFCURVE",
"580 578 CURVE SMOOTH",
"563 395 OFFCURVE",
"525 -34 OFFCURVE",
"260 -92 CURVE SMOOTH",
"20 -144 OFFCURVE",
"-73 123 OFFCURVE",
"145 280 CURVE SMOOTH",
"264 366 OFFCURVE",
"439 417 OFFCURVE",
"697 403 CURVE SMOOTH",
"737 401 OFFCURVE",
"754 348 OFFCURVE",
"690 348 CURVE SMOOTH",
"612 348 OFFCURVE",
"357 350 OFFCURVE",
"205 250 CURVE SMOOTH",
"69 160 OFFCURVE",
"48 15 OFFCURVE",
"151 -30 CURVE SMOOTH",
"224 -62 OFFCURVE",
"322 -22 OFFCURVE",
"386 70 CURVE SMOOTH",
"481 206 OFFCURVE",
"518 533 OFFCURVE",
"516 610 CURVE SMOOTH",
"515 658 OFFCURVE",
"420 667 OFFCURVE",
"189 599 CURVE SMOOTH"
);
}
);
width = 658;
},
{
associatedMasterId = "2B556C7D-ACF4-4058-9F01-0A4D9389EAED";
layerId = "ED4158B7-451D-4BDA-B40D-FE33BFA4B643";
name = "Regular Oct 13 16, 11:49";
paths = (
{
closed = 1;
nodes = (
"163 573 OFFCURVE",
"139 624 OFFCURVE",
"196 645 CURVE SMOOTH",
"259 668 OFFCURVE",
"380 692 OFFCURVE",
"469 686 CURVE SMOOTH",
"556 680 OFFCURVE",
"571 627 OFFCURVE",
"568 557 CURVE SMOOTH",
"560 381 OFFCURVE",
"497 -73 OFFCURVE",
"232 -131 CURVE SMOOTH",
"138 -152 OFFCURVE",
"69 -120 OFFCURVE",
"30 -67 CURVE SMOOTH",
"-29 13 OFFCURVE",
"-5 159 OFFCURVE",
"126 253 CURVE SMOOTH",
"245 339 OFFCURVE",
"435 363 OFFCURVE",
"663 333 CURVE SMOOTH",
"703 328 OFFCURVE",
"720 268 OFFCURVE",
"656 273 CURVE SMOOTH",
"511 284 OFFCURVE",
"312 312 OFFCURVE",
"167 206 CURVE SMOOTH",
"64 131 OFFCURVE",
"47 37 OFFCURVE",
"78 -23 CURVE SMOOTH",
"104 -72 OFFCURVE",
"167 -93 OFFCURVE",
"229 -71 CURVE SMOOTH",
"409 -8 OFFCURVE",
"482 289 OFFCURVE",
"500 527 CURVE SMOOTH",
"505 591 OFFCURVE",
"511 625 OFFCURVE",
"442 625 CURVE SMOOTH",
"390 625 OFFCURVE",
"293 613 OFFCURVE",
"215 589 CURVE SMOOTH"
);
}
);
width = 707;
},
{
associatedMasterId = "2B556C7D-ACF4-4058-9F01-0A4D9389EAED";
layerId = "9AB60C54-8398-473A-97F8-F0C41000D1FD";
name = "Regular Oct 13 16, 11:59";
paths = (
{
closed = 1;
nodes = (
"140 584 OFFCURVE",
"117 631 OFFCURVE",
"172 655 CURVE SMOOTH",
"253 691 OFFCURVE",
"392 713 OFFCURVE",
"481 707 CURVE SMOOTH",
"568 701 OFFCURVE",
"583 648 OFFCURVE",
"580 578 CURVE SMOOTH",
"572 402 OFFCURVE",
"509 -107 OFFCURVE",
"244 -165 CURVE SMOOTH",
"150 -186 OFFCURVE",
"81 -154 OFFCURVE",
"42 -101 CURVE SMOOTH",
"-17 -21 OFFCURVE",
"7 125 OFFCURVE",
"138 219 CURVE SMOOTH",
"257 305 OFFCURVE",
"442 346 OFFCURVE",
"683 333 CURVE SMOOTH",
"723 331 OFFCURVE",
"740 275 OFFCURVE",
"676 275 CURVE SMOOTH",
"556 275 OFFCURVE",
"324 278 OFFCURVE",
"179 172 CURVE SMOOTH",
"76 97 OFFCURVE",
"59 3 OFFCURVE",
"90 -57 CURVE SMOOTH",
"116 -106 OFFCURVE",
"179 -127 OFFCURVE",
"241 -105 CURVE SMOOTH",
"421 -42 OFFCURVE",
"496 294 OFFCURVE",
"514 545 CURVE SMOOTH",
"519 609 OFFCURVE",
"523 646 OFFCURVE",
"454 646 CURVE SMOOTH",
"402 646 OFFCURVE",
"318 637 OFFCURVE",
"191 599 CURVE SMOOTH"
);
}
);
width = 658;
},
{
layerId = "2B556C7D-ACF4-4058-9F01-0A4D9389EAED";
name = Regular;
paths = (
{
closed = 1;
nodes = (
"135 579 OFFCURVE",
"115 592 OFFCURVE",
"115 610 CURVE SMOOTH",
"115 623 OFFCURVE",
"124 635 OFFCURVE",
"147 644 CURVE SMOOTH",
"204 668 OFFCURVE",
"338 685 OFFCURVE",
"408 685 CURVE SMOOTH",
"500 685 OFFCURVE",
"517 634 OFFCURVE",
"517 571 CURVE SMOOTH",
"517 447 OFFCURVE",
"461 -123 OFFCURVE",
"144 -123 CURVE SMOOTH",
"54 -123 OFFCURVE",
"0 -49 OFFCURVE",
"0 33 CURVE SMOOTH",
"0 224 OFFCURVE",
"212 343 OFFCURVE",
"445 343 CURVE SMOOTH",
"495 343 OFFCURVE",
"552 340 OFFCURVE",
"614 332 CURVE SMOOTH",
"635 329 OFFCURVE",
"647 317 OFFCURVE",
"647 301 CURVE SMOOTH",
"647 287 OFFCURVE",
"637 271 OFFCURVE",
"607 273 CURVE SMOOTH",
"548 277 OFFCURVE",
"489 285 OFFCURVE",
"429 285 CURVE SMOOTH",
"263 285 OFFCURVE",
"64 186 OFFCURVE",
"64 35 CURVE SMOOTH",
"64 -17 OFFCURVE",
"90 -66 OFFCURVE",
"152 -66 CURVE SMOOTH",
"384 -66 OFFCURVE",
"453 416 OFFCURVE",
"454 572 CURVE SMOOTH",
"454 607 OFFCURVE",
"443 626 OFFCURVE",
"397 626 CURVE SMOOTH",
"337 626 OFFCURVE",
"235 614 OFFCURVE",
"166 590 CURVE SMOOTH"
);
}
);
width = 617;
}
);
unicode = 004A;
},
{
color = 11;
glyphname = K;
lastChange = "2016-10-16 20:47:18 +0000";
layers = (
{
layerId = "2B556C7D-ACF4-4058-9F01-0A4D9389EAED";
name = Regular;
paths = (
{
closed = 1;
nodes = (
"191 108 OFFCURVE",
"240 1 OFFCURVE",
"320 1 CURVE SMOOTH",
"396 1 OFFCURVE",
"471 63 OFFCURVE",
"540 261 CURVE SMOOTH",
"562 324 OFFCURVE",
"500 328 OFFCURVE",
"487 295 CURVE SMOOTH",
"413 101 OFFCURVE",
"363 58 OFFCURVE",
"323 58 CURVE SMOOTH",
"268 58 OFFCURVE",
"247 222 OFFCURVE",
"247 262 CURVE SMOOTH",
"247 268 OFFCURVE",
"381 473 OFFCURVE",
"453 603 CURVE SMOOTH",
"481 653 OFFCURVE",
"421 674 OFFCURVE",
"399 637 CURVE SMOOTH",
"234 353 OFFCURVE",
"87 121 OFFCURVE",
"52 79 CURVE",
"59 70 LINE",
"70 164 OFFCURVE",
"87 327 OFFCURVE",
"178 643 CURVE SMOOTH",
"194 698 OFFCURVE",
"132 708 OFFCURVE",
"118 663 CURVE SMOOTH",
"51 449 OFFCURVE",
"2 181 OFFCURVE",
"2 70 CURVE SMOOTH",
"2 34 OFFCURVE",
"6 1 OFFCURVE",
"43 1 CURVE SMOOTH",
"60 1 OFFCURVE",
"77 8 OFFCURVE",
"100 39 CURVE SMOOTH",
"138 92 OFFCURVE",
"172 157 OFFCURVE",
"205 208 CURVE",
"196 216 LINE"
);
}
);
width = 505;
}
);
unicode = 004B;
},
{
color = 11;
glyphname = L;
lastChange = "2016-10-14 10:52:10 +0000";
layers = (
{
layerId = "2B556C7D-ACF4-4058-9F01-0A4D9389EAED";
name = Regular;
paths = (
{
closed = 1;
nodes = (
"132 38 OFFCURVE",
"97 21 OFFCURVE",
"64 21 CURVE SMOOTH",
"11 20 OFFCURVE",
"-1 47 OFFCURVE",
"-1 68 CURVE SMOOTH",
"-1 101 OFFCURVE",
"27 122 OFFCURVE",
"60 122 CURVE SMOOTH",
"81 122 OFFCURVE",
"102 119 OFFCURVE",
"124 112 CURVE",
"100 100 LINE",
"170 281 OFFCURVE",
"227 501 OFFCURVE",
"283 623 CURVE SMOOTH",
"304 669 OFFCURVE",
"339 689 OFFCURVE",
"374 689 CURVE SMOOTH",
"443 689 OFFCURVE",
"482 611 OFFCURVE",
"482 523 CURVE SMOOTH",
"482 395 OFFCURVE",
"403 311 OFFCURVE",
"265 311 CURVE SMOOTH",
"221 311 OFFCURVE",
"171 319 OFFCURVE",
"113 336 CURVE SMOOTH",
"92 342 OFFCURVE",
"83 357 OFFCURVE",
"83 370 CURVE SMOOTH",
"83 388 OFFCURVE",
"100 404 OFFCURVE",
"129 394 CURVE SMOOTH",
"176 378 OFFCURVE",
"224 369 OFFCURVE",
"266 369 CURVE SMOOTH",
"369 369 OFFCURVE",
"419 427 OFFCURVE",
"419 531 CURVE SMOOTH",
"419 582 OFFCURVE",
"399 631 OFFCURVE",
"374 631 CURVE SMOOTH",
"328 631 OFFCURVE",
"274 406 OFFCURVE",
"207 212 CURVE SMOOTH",
"181 137 OFFCURVE",
"173 114 OFFCURVE",
"162 85 CURVE",
"155 103 LINE",
"234 75 OFFCURVE",
"323 28 OFFCURVE",
"418 28 CURVE SMOOTH",
"497 28 OFFCURVE",
"554 98 OFFCURVE",
"573 221 CURVE SMOOTH",
"576 243 OFFCURVE",
"588 257 OFFCURVE",
"605 257 CURVE SMOOTH",
"620 257 OFFCURVE",
"637 244 OFFCURVE",
"634 219 CURVE SMOOTH",
"624 127 OFFCURVE",
"586 -31 OFFCURVE",
"409 -31 CURVE SMOOTH",
"311 -31 OFFCURVE",
"170 32 OFFCURVE",
"140 37 CURVE SMOOTH"
);
}
);
width = 581;
}
);
unicode = 004C;
},
{
color = 11;
glyphname = Lslash;
lastChange = "2016-10-14 10:52:37 +0000";
layers = (
{
associatedMasterId = "2B556C7D-ACF4-4058-9F01-0A4D9389EAED";
layerId = "6980FC65-C4DD-4B15-846F-278C6F814793";
name = "Regular Oct 13 16, 21:52";
paths = (
{
closed = 1;
nodes = (
"381 698 OFFCURVE",
"365 650 CURVE SMOOTH",
"332 552 OFFCURVE",
"252 287 OFFCURVE",
"185 103 CURVE SMOOTH",
"162 39 OFFCURVE",
"124 16 OFFCURVE",
"92 10 CURVE SMOOTH",
"18 -4 OFFCURVE",
"-31 48 OFFCURVE",
"23 94 CURVE SMOOTH",
"84 145 OFFCURVE",
"260 30 OFFCURVE",
"391 15 CURVE SMOOTH",
"497 3 OFFCURVE",
"535 100 OFFCURVE",
"583 286 CURVE SMOOTH",
"598 345 OFFCURVE",
"658 321 OFFCURVE",
"644 271 CURVE SMOOTH",
"602 119 OFFCURVE",
"566 -37 OFFCURVE",
"433 -50 CURVE SMOOTH",
"334 -60 OFFCURVE",
"179 15 OFFCURVE",
"124 25 CURVE SMOOTH",
"81 33 OFFCURVE",
"75 21 OFFCURVE",
"89 51 CURVE SMOOTH",
"171 223 OFFCURVE",
"235 488 OFFCURVE",
"297 669 CURVE SMOOTH",
"316 725 OFFCURVE"
);
},
{
closed = 1;
nodes = (
"210 323 OFFCURVE",
"266 342 OFFCURVE",
"420 424 CURVE SMOOTH",
"474 453 OFFCURVE",
"492 393 OFFCURVE",
"456 368 CURVE SMOOTH",
"386 320 OFFCURVE",
"171 234 OFFCURVE",
"76 213 CURVE SMOOTH",
"22 202 OFFCURVE",
"11 258 OFFCURVE",
"56 273 CURVE SMOOTH"
);
}
);
width = 646;
},
{
layerId = "2B556C7D-ACF4-4058-9F01-0A4D9389EAED";
name = Regular;
paths = (
{
closed = 1;
nodes = (
"312 679 OFFCURVE",
"300 676 OFFCURVE",
"290 648 CURVE SMOOTH",
"234 486 OFFCURVE",
"170 289 OFFCURVE",
"100 100 CURVE",
"125 112 LINE",
"103 119 OFFCURVE",
"82 122 OFFCURVE",
"61 122 CURVE SMOOTH",
"28 122 OFFCURVE",
"0 101 OFFCURVE",
"0 68 CURVE SMOOTH",
"0 47 OFFCURVE",
"12 20 OFFCURVE",
"65 21 CURVE SMOOTH",
"98 21 OFFCURVE",
"133 38 OFFCURVE",
"141 37 CURVE SMOOTH",
"171 32 OFFCURVE",
"312 -31 OFFCURVE",
"410 -31 CURVE SMOOTH",
"587 -31 OFFCURVE",
"618 126 OFFCURVE",
"632 218 CURVE SMOOTH",
"636 243 OFFCURVE",
"618 256 OFFCURVE",
"603 256 CURVE SMOOTH",
"586 256 OFFCURVE",
"574 242 OFFCURVE",
"571 220 CURVE SMOOTH",
"555 97 OFFCURVE",
"498 28 OFFCURVE",
"419 28 CURVE SMOOTH",
"324 28 OFFCURVE",
"235 75 OFFCURVE",
"156 103 CURVE",
"162 85 LINE",
"201 200 OFFCURVE",
"347 621 OFFCURVE",
"347 622 CURVE SMOOTH",
"360 660 OFFCURVE",
"343 679 OFFCURVE",
"324 679 CURVE SMOOTH"
);
},
{
closed = 1;
nodes = (
"258 352 OFFCURVE",
"222 331 OFFCURVE",
"57 273 CURVE SMOOTH",
"42 268 OFFCURVE",
"34 257 OFFCURVE",
"34 243 CURVE SMOOTH",
"34 226 OFFCURVE",
"50 210 OFFCURVE",
"79 220 CURVE SMOOTH",
"172 253 OFFCURVE",
"325 314 OFFCURVE",
"403 355 CURVE SMOOTH",
"414 361 OFFCURVE",
"420 373 OFFCURVE",
"420 384 CURVE SMOOTH",
"420 402 OFFCURVE",
"403 418 OFFCURVE",
"374 405 CURVE SMOOTH"
);
}
);
width = 593;
}
);
unicode = 0141;
},
{
color = 11;
glyphname = M;
lastChange = "2016-10-16 20:48:31 +0000";
layers = (
{
layerId = "2B556C7D-ACF4-4058-9F01-0A4D9389EAED";
name = Regular;
paths = (
{
closed = 1;
nodes = (
"674 448 OFFCURVE",
"645 283 OFFCURVE",
"645 198 CURVE SMOOTH",
"645 130 OFFCURVE",
"642 3 OFFCURVE",
"760 3 CURVE SMOOTH",
"856 3 OFFCURVE",
"919 78 OFFCURVE",
"977 262 CURVE SMOOTH",
"992 310 OFFCURVE",
"932 323 OFFCURVE",
"920 283 CURVE SMOOTH",
"870 123 OFFCURVE",
"820 60 OFFCURVE",
"763 60 CURVE SMOOTH",
"721 60 OFFCURVE",
"708 99 OFFCURVE",
"708 186 CURVE SMOOTH",
"708 281 OFFCURVE",
"732 427 OFFCURVE",
"775 613 CURVE SMOOTH",
"784 652 OFFCURVE",
"766 671 OFFCURVE",
"744 671 CURVE SMOOTH",
"729 671 OFFCURVE",
"712 661 OFFCURVE",
"704 643 CURVE SMOOTH",
"665 560 OFFCURVE",
"555 329 OFFCURVE",
"490 196 CURVE",
"503 196 LINE",
"512 340 OFFCURVE",
"526 505 OFFCURVE",
"534 633 CURVE SMOOTH",
"537 672 OFFCURVE",
"519 688 OFFCURVE",
"498 688 CURVE SMOOTH",
"475 688 OFFCURVE",
"459 674 OFFCURVE",
"454 657 CURVE SMOOTH",
"330 263 OFFCURVE",
"214 59 OFFCURVE",
"120 59 CURVE SMOOTH",
"85 59 OFFCURVE",
"61 78 OFFCURVE",
"61 122 CURVE SMOOTH",
"61 144 OFFCURVE",
"68 174 OFFCURVE",
"83 210 CURVE SMOOTH",
"97 243 OFFCURVE",
"80 263 OFFCURVE",
"61 263 CURVE SMOOTH",
"49 263 OFFCURVE",
"36 255 OFFCURVE",
"29 239 CURVE SMOOTH",
"10 196 OFFCURVE",
"0 154 OFFCURVE",
"0 118 CURVE SMOOTH",
"0 50 OFFCURVE",
"35 1 OFFCURVE",
"116 1 CURVE SMOOTH",
"297 1 OFFCURVE",
"414 342 OFFCURVE",
"508 637 CURVE SMOOTH",
"513 653 OFFCURVE",
"490 663 OFFCURVE",
"486 646 CURVE SMOOTH",
"451 495 OFFCURVE",
"444 208 OFFCURVE",
"438 99 CURVE SMOOTH",
"436 66 OFFCURVE",
"451 58 OFFCURVE",
"465 58 CURVE SMOOTH",
"479 58 OFFCURVE",
"491 67 OFFCURVE",
"506 97 CURVE SMOOTH",
"550 181 OFFCURVE",
"637 359 OFFCURVE",
"712 530 CURVE",
"696 535 LINE"
);
}
);
width = 934;
}
);
unicode = 004D;
},
{
color = 11;
glyphname = N;
lastChange = "2016-10-13 22:18:51 +0000";
layers = (
{
associatedMasterId = "2B556C7D-ACF4-4058-9F01-0A4D9389EAED";
layerId = "AAD9EAF2-83A9-4A88-86F8-F26525DFDF2A";
name = "Regular Jul 31 16, 21:15";
paths = (
{
closed = 1;
nodes = (
"286 462 OFFCURVE",
"419 697 OFFCURVE",
"531 770 CURVE SMOOTH",
"583 804 OFFCURVE",
"630 791 OFFCURVE",
"646 737 CURVE SMOOTH",
"687 599 OFFCURVE",
"579 234 OFFCURVE",
"538 55 CURVE SMOOTH",
"534 36 OFFCURVE",
"486 26 OFFCURVE",
"490 43 CURVE SMOOTH",
"572 369 OFFCURVE",
"689 572 OFFCURVE",
"791 661 CURVE SMOOTH",
"873 734 OFFCURVE",
"933 667 OFFCURVE",
"929 599 CURVE SMOOTH",
"919 440 OFFCURVE",
"754 55 OFFCURVE",
"898 44 CURVE SMOOTH",
"957 39 OFFCURVE",
"1082 219 OFFCURVE",
"1111 304 CURVE SMOOTH",
"1131 363 OFFCURVE",
"1179 332 OFFCURVE",
"1146 242 CURVE SMOOTH",
"1107 136 OFFCURVE",
"955 -90 OFFCURVE",
"822 6 CURVE SMOOTH",
"754 55 OFFCURVE",
"763 185 OFFCURVE",
"817 405 CURVE SMOOTH",
"850 538 OFFCURVE",
"869 626 OFFCURVE",
"856 639 CURVE SMOOTH",
"811 689 OFFCURVE",
"622 310 OFFCURVE",
"549 36 CURVE",
"526 -13 OFFCURVE",
"479 7 OFFCURVE",
"487 43 CURVE SMOOTH",
"504 116 OFFCURVE",
"616 700 OFFCURVE",
"583 723 CURVE SMOOTH",
"534 757 OFFCURVE",
"362 475 OFFCURVE",
"296 268 CURVE SMOOTH",
"284 231 OFFCURVE",
"236 262 OFFCURVE",
"244 293 CURVE SMOOTH"
);
}
);
width = 1111;
},
{
associatedMasterId = "2B556C7D-ACF4-4058-9F01-0A4D9389EAED";
layerId = "2F31857E-4547-46C3-A777-D119DBDB5D2E";
name = "Regular Aug 4 16, 17:29";
paths = (
{
closed = 1;
nodes = (
"43 462 OFFCURVE",
"176 697 OFFCURVE",
"288 770 CURVE SMOOTH",
"340 804 OFFCURVE",
"387 791 OFFCURVE",
"403 737 CURVE SMOOTH",
"438 621 OFFCURVE",
"332 215 OFFCURVE",
"291 36 CURVE SMOOTH",
"287 17 OFFCURVE",
"238 7 OFFCURVE",
"243 24 CURVE SMOOTH",
"347 350 OFFCURVE",
"443 573 OFFCURVE",
"545 662 CURVE SMOOTH",
"627 735 OFFCURVE",
"682 667 OFFCURVE",
"678 599 CURVE SMOOTH",
"668 440 OFFCURVE",
"501 45 OFFCURVE",
"645 34 CURVE SMOOTH",
"704 29 OFFCURVE",
"826 181 OFFCURVE",
"868 304 CURVE SMOOTH",
"888 363 OFFCURVE",
"936 332 OFFCURVE",
"903 242 CURVE SMOOTH",
"875 167 OFFCURVE",
"789 31 OFFCURVE",
"693 -13 CURVE SMOOTH",
"654 -31 OFFCURVE",
"614 -32 OFFCURVE",
"575 -4 CURVE SMOOTH",
"507 45 OFFCURVE",
"520 185 OFFCURVE",
"574 405 CURVE SMOOTH",
"607 538 OFFCURVE",
"627 618 OFFCURVE",
"614 631 CURVE SMOOTH",
"569 681 OFFCURVE",
"375 291 OFFCURVE",
"302 17 CURVE",
"279 -32 OFFCURVE",
"232 -12 OFFCURVE",
"240 24 CURVE SMOOTH",
"257 97 OFFCURVE",
"373 700 OFFCURVE",
"340 723 CURVE SMOOTH",
"291 757 OFFCURVE",
"119 475 OFFCURVE",
"53 268 CURVE SMOOTH",
"41 231 OFFCURVE",
"-7 262 OFFCURVE",
"1 293 CURVE SMOOTH"
);
}
);
width = 867;
},
{
associatedMasterId = "2B556C7D-ACF4-4058-9F01-0A4D9389EAED";
layerId = "1CE247E0-67F5-423B-ABB2-427C9C08D5A6";
name = "Regular Oct 13 16, 13:17";
paths = (
{
closed = 1;
nodes = (
"92 452 OFFCURVE",
"183 705 OFFCURVE",
"289 774 CURVE SMOOTH",
"341 808 OFFCURVE",
"388 790 OFFCURVE",
"404 736 CURVE SMOOTH",
"439 620 OFFCURVE",
"332 215 OFFCURVE",
"291 36 CURVE SMOOTH",
"287 17 OFFCURVE",
"242 7 OFFCURVE",
"247 24 CURVE SMOOTH",
"341 350 OFFCURVE",
"438 585 OFFCURVE",
"540 674 CURVE SMOOTH",
"620 745 OFFCURVE",
"671 669 OFFCURVE",
"671 599 CURVE SMOOTH",
"671 445 OFFCURVE",
"556 46 OFFCURVE",
"650 37 CURVE SMOOTH",
"700 32 OFFCURVE",
"782 144 OFFCURVE",
"850 303 CURVE SMOOTH",
"869 347 OFFCURVE",
"923 327 OFFCURVE",
"900 272 CURVE SMOOTH",
"828 101 OFFCURVE",
"750 -23 OFFCURVE",
"648 -18 CURVE SMOOTH",
"522 -12 OFFCURVE",
"532 137 OFFCURVE",
"583 405 CURVE SMOOTH",
"608 539 OFFCURVE",
"617 618 OFFCURVE",
"604 631 CURVE SMOOTH",
"565 674 OFFCURVE",
"375 350 OFFCURVE",
"313 17 CURVE SMOOTH",
"301 -45 OFFCURVE",
"229 -25 OFFCURVE",
"240 24 CURVE SMOOTH",
"259 105 OFFCURVE",
"380 717 OFFCURVE",
"340 728 CURVE SMOOTH",
"288 743 OFFCURVE",
"154 473 OFFCURVE",
"111 274 CURVE SMOOTH",
"100 225 OFFCURVE",
"40 245 OFFCURVE",
"52 293 CURVE SMOOTH"
);
}
);
width = 856;
},
{
layerId = "2B556C7D-ACF4-4058-9F01-0A4D9389EAED";
name = Regular;
paths = (
{
closed = 1;
nodes = (
"385 498 OFFCURVE",
"479 595 OFFCURVE",
"546 595 CURVE SMOOTH",
"591 595 OFFCURVE",
"614 563 OFFCURVE",
"615 497 CURVE SMOOTH",
"616 411 OFFCURVE",
"558 214 OFFCURVE",
"558 121 CURVE SMOOTH",
"558 67 OFFCURVE",
"572 53 OFFCURVE",
"600 53 CURVE SMOOTH",
"641 54 OFFCURVE",
"709 102 OFFCURVE",
"768 241 CURVE SMOOTH",
"787 286 OFFCURVE",
"845 265 OFFCURVE",
"822 210 CURVE SMOOTH",
"759 61 OFFCURVE",
"680 -2 OFFCURVE",
"598 -3 CURVE SMOOTH",
"528 -3 OFFCURVE",
"495 45 OFFCURVE",
"495 111 CURVE SMOOTH",
"495 245 OFFCURVE",
"586 536 OFFCURVE",
"538 536 CURVE SMOOTH",
"496 536 OFFCURVE",
"330 341 OFFCURVE",
"262 42 CURVE SMOOTH",
"256 15 OFFCURVE",
"242 2 OFFCURVE",
"226 2 CURVE SMOOTH",
"205 2 OFFCURVE",
"191 17 OFFCURVE",
"198 50 CURVE SMOOTH",
"225 173 OFFCURVE",
"337 630 OFFCURVE",
"284 630 CURVE SMOOTH",
"228 630 OFFCURVE",
"101 426 OFFCURVE",
"60 274 CURVE SMOOTH",
"47 225 OFFCURVE",
"-11 248 OFFCURVE",
"2 293 CURVE SMOOTH",
"60 495 OFFCURVE",
"195 689 OFFCURVE",
"290 689 CURVE SMOOTH",
"347 689 OFFCURVE",
"361 629 OFFCURVE",
"361 596 CURVE SMOOTH",
"361 525 OFFCURVE",
"349 469 OFFCURVE",
"315 320 CURVE",
"303 321 LINE"
);
}
);
width = 787;
}
);
unicode = 004E;
},
{
color = 11;
glyphname = Nacute;
lastChange = "2016-10-14 10:57:06 +0000";
layers = (
{
associatedMasterId = "2B556C7D-ACF4-4058-9F01-0A4D9389EAED";
layerId = "9D1B9886-9198-49C7-8804-CDEBA255F158";
name = "Regular Oct 13 16, 21:57";
paths = (
{
closed = 1;
nodes = (
"523 816 OFFCURVE",
"509 751 OFFCURVE",
"499 711 CURVE SMOOTH",
"488 667 OFFCURVE",
"544 654 OFFCURVE",
"557 695 CURVE SMOOTH",
"574 750 OFFCURVE",
"587 799 OFFCURVE",
"596 833 CURVE SMOOTH",
"608 877 OFFCURVE",
"547 896 OFFCURVE",
"533 849 CURVE SMOOTH"
);
},
{
closed = 1;
nodes = (
"92 452 OFFCURVE",
"179 641 OFFCURVE",
"279 705 CURVE SMOOTH",
"331 738 OFFCURVE",
"375 720 OFFCURVE",
"391 666 CURVE SMOOTH",
"424 557 OFFCURVE",
"332 216 OFFCURVE",
"291 36 CURVE SMOOTH",
"287 17 OFFCURVE",
"242 7 OFFCURVE",
"247 24 CURVE SMOOTH",
"339 344 OFFCURVE",
"420 509 OFFCURVE",
"526 602 CURVE SMOOTH",
"575 645 OFFCURVE",
"620 629 OFFCURVE",
"640 596 CURVE SMOOTH",
"670 549 OFFCURVE",
"659 484 OFFCURVE",
"647 409 CURVE SMOOTH",
"621 245 OFFCURVE",
"571 35 OFFCURVE",
"652 35 CURVE SMOOTH",
"702 35 OFFCURVE",
"770 121 OFFCURVE",
"848 303 CURVE SMOOTH",
"867 347 OFFCURVE",
"919 326 OFFCURVE",
"897 272 CURVE SMOOTH",
"830 107 OFFCURVE",
"744 -22 OFFCURVE",
"648 -17 CURVE SMOOTH",
"530 -11 OFFCURVE",
"528 108 OFFCURVE",
"569 333 CURVE SMOOTH",
"597 485 OFFCURVE",
"605 553 OFFCURVE",
"591 565 CURVE SMOOTH",
"552 597 OFFCURVE",
"375 325 OFFCURVE",
"313 17 CURVE SMOOTH",
"302 -40 OFFCURVE",
"233 -21 OFFCURVE",
"243 25 CURVE SMOOTH",
"262 106 OFFCURVE",
"368 646 OFFCURVE",
"329 659 CURVE SMOOTH",
"281 675 OFFCURVE",
"158 472 OFFCURVE",
"110 279 CURVE SMOOTH",
"98 230 OFFCURVE",
"40 245 OFFCURVE",
"52 293 CURVE SMOOTH"
);
}
);
width = 856;
},
{
layerId = "2B556C7D-ACF4-4058-9F01-0A4D9389EAED";
rightMetricsKey = N;
name = Regular;
paths = (
{
closed = 1;
nodes = (
"385 498 OFFCURVE",
"479 595 OFFCURVE",
"546 595 CURVE SMOOTH",
"591 595 OFFCURVE",
"614 563 OFFCURVE",
"615 497 CURVE SMOOTH",
"616 411 OFFCURVE",
"558 214 OFFCURVE",
"558 121 CURVE SMOOTH",
"558 67 OFFCURVE",
"572 53 OFFCURVE",
"600 53 CURVE SMOOTH",
"641 54 OFFCURVE",
"709 102 OFFCURVE",
"768 241 CURVE SMOOTH",
"787 286 OFFCURVE",
"845 265 OFFCURVE",
"822 210 CURVE SMOOTH",
"759 61 OFFCURVE",
"680 -2 OFFCURVE",
"598 -3 CURVE SMOOTH",
"528 -3 OFFCURVE",
"495 45 OFFCURVE",
"495 111 CURVE SMOOTH",
"495 245 OFFCURVE",
"586 536 OFFCURVE",
"538 536 CURVE SMOOTH",
"496 536 OFFCURVE",
"330 341 OFFCURVE",
"262 42 CURVE SMOOTH",
"256 15 OFFCURVE",
"242 2 OFFCURVE",
"226 2 CURVE SMOOTH",
"205 2 OFFCURVE",
"191 17 OFFCURVE",
"198 50 CURVE SMOOTH",
"225 173 OFFCURVE",
"337 630 OFFCURVE",
"284 630 CURVE SMOOTH",
"228 630 OFFCURVE",
"101 426 OFFCURVE",
"60 274 CURVE SMOOTH",
"47 225 OFFCURVE",
"-11 248 OFFCURVE",
"2 293 CURVE SMOOTH",
"60 495 OFFCURVE",
"195 689 OFFCURVE",
"290 689 CURVE SMOOTH",
"347 689 OFFCURVE",
"361 629 OFFCURVE",
"361 596 CURVE SMOOTH",
"361 525 OFFCURVE",
"349 469 OFFCURVE",
"315 320 CURVE",
"303 321 LINE"
);
},
{
closed = 1;
nodes = (
"501 753 OFFCURVE",
"491 729 OFFCURVE",
"476 694 CURVE SMOOTH",
"465 670 OFFCURVE",
"478 652 OFFCURVE",
"494 649 CURVE SMOOTH",
"506 647 OFFCURVE",
"521 653 OFFCURVE",
"529 669 CURVE SMOOTH",
"556 720 OFFCURVE",
"562 734 OFFCURVE",
"577 766 CURVE SMOOTH",
"588 790 OFFCURVE",
"575 811 OFFCURVE",
"556 814 CURVE SMOOTH",
"543 816 OFFCURVE",
"528 810 OFFCURVE",
"519 792 CURVE SMOOTH"
);
}
);
width = 787;
}
);
leftMetricsKey = N;
rightMetricsKey = N;
unicode = 0143;
},
{
color = 11;
glyphname = O;
lastChange = "2016-10-13 21:37:19 +0000";
layers = (
{
associatedMasterId = "2B556C7D-ACF4-4058-9F01-0A4D9389EAED";
layerId = "4BD79CE9-C251-4200-A8B1-4EBAA13B8E1A";
name = "Regular Aug 4 16, 17:31";
paths = (
{
closed = 1;
nodes = (
"660 378 OFFCURVE",
"665 440 OFFCURVE",
"614 414 CURVE SMOOTH",
"288 246 OFFCURVE",
"109 292 OFFCURVE",
"92 438 CURVE SMOOTH",
"74 590 OFFCURVE",
"219 782 OFFCURVE",
"326 746 CURVE SMOOTH",
"503 686 OFFCURVE",
"434 75 OFFCURVE",
"204 37 CURVE SMOOTH",
"73 15 OFFCURVE",
"49 191 OFFCURVE",
"101 392 CURVE SMOOTH",
"101 392 OFFCURVE",
"60 444 OFFCURVE",
"42 391 CURVE SMOOTH",
"-4 257 OFFCURVE",
"-24 -34 OFFCURVE",
"198 -20 CURVE SMOOTH",
"518 0 OFFCURVE",
"612 750 OFFCURVE",
"332 799 CURVE SMOOTH",
"168 828 OFFCURVE",
"25 631 OFFCURVE",
"28 461 CURVE SMOOTH",
"33 139 OFFCURVE",
"444 233 OFFCURVE",
"660 378 CURVE SMOOTH"
);
}
);
width = 610;
},
{
associatedMasterId = "2B556C7D-ACF4-4058-9F01-0A4D9389EAED";
layerId = "4E936917-CDF8-4F1F-9058-D7AA19F762BE";
name = "Regular Aug 4 16, 17:32";
paths = (
{
closed = 1;
nodes = (
"685 395 OFFCURVE",
"668 444 OFFCURVE",
"616 416 CURVE SMOOTH",
"323 256 OFFCURVE",
"110 292 OFFCURVE",
"93 438 CURVE SMOOTH",
"75 590 OFFCURVE",
"220 776 OFFCURVE",
"327 740 CURVE SMOOTH",
"504 680 OFFCURVE",
"435 79 OFFCURVE",
"205 41 CURVE SMOOTH",
"74 19 OFFCURVE",
"49 191 OFFCURVE",
"101 392 CURVE SMOOTH",
"101 392 OFFCURVE",
"60 444 OFFCURVE",
"42 391 CURVE SMOOTH",
"-4 257 OFFCURVE",
"-24 -34 OFFCURVE",
"198 -20 CURVE SMOOTH",
"518 0 OFFCURVE",
"612 750 OFFCURVE",
"332 799 CURVE SMOOTH",
"168 828 OFFCURVE",
"25 631 OFFCURVE",
"28 461 CURVE SMOOTH",
"33 149 OFFCURVE",
"442 236 OFFCURVE",
"649 371 CURVE SMOOTH"
);
}
);
width = 598;
},
{
associatedMasterId = "2B556C7D-ACF4-4058-9F01-0A4D9389EAED";
layerId = "0B8694FC-22AB-44C7-A4E2-8DF1BDDAE8DB";
name = "Regular Oct 13 16, 13:32";
paths = (
{
closed = 1;
nodes = (
"685 349 OFFCURVE",
"668 398 OFFCURVE",
"616 370 CURVE SMOOTH",
"323 210 OFFCURVE",
"110 292 OFFCURVE",
"93 438 CURVE SMOOTH",
"75 590 OFFCURVE",
"208 738 OFFCURVE",
"328 702 CURVE SMOOTH",
"511 647 OFFCURVE",
"442 88 OFFCURVE",
"205 37 CURVE SMOOTH",
"80 10 OFFCURVE",
"35 186 OFFCURVE",
"101 392 CURVE SMOOTH",
"101 392 OFFCURVE",
"60 444 OFFCURVE",
"42 391 CURVE SMOOTH",
"-4 257 OFFCURVE",
"-24 -34 OFFCURVE",
"198 -20 CURVE SMOOTH",
"457 -3 OFFCURVE",
"567 482 OFFCURVE",
"443 679 CURVE SMOOTH",
"387 770 OFFCURVE",
"273 787 OFFCURVE",
"173 728 CURVE SMOOTH",
"87 675 OFFCURVE",
"27 571 OFFCURVE",
"29 461 CURVE SMOOTH",
"34 149 OFFCURVE",
"442 190 OFFCURVE",
"649 325 CURVE SMOOTH"
);
}
);
width = 598;
},
{
layerId = "2B556C7D-ACF4-4058-9F01-0A4D9389EAED";
name = Regular;
paths = (
{
closed = 1;
nodes = (
"593 313 OFFCURVE",
"574 371 OFFCURVE",
"524 338 CURVE SMOOTH",
"420 268 OFFCURVE",
"327 253 OFFCURVE",
"250 253 CURVE SMOOTH",
"149 253 OFFCURVE",
"88 295 OFFCURVE",
"88 383 CURVE SMOOTH",
"87 501 OFFCURVE",
"145 633 OFFCURVE",
"246 633 CURVE SMOOTH",
"315 633 OFFCURVE",
"364 558 OFFCURVE",
"365 420 CURVE SMOOTH",
"366 279 OFFCURVE",
"296 57 OFFCURVE",
"162 57 CURVE SMOOTH",
"88 57 OFFCURVE",
"63 123 OFFCURVE",
"63 212 CURVE SMOOTH",
"63 247 OFFCURVE",
"72 281 OFFCURVE",
"84 329 CURVE SMOOTH",
"96 375 OFFCURVE",
"42 380 OFFCURVE",
"33 357 CURVE SMOOTH",
"14 314 OFFCURVE",
"0 262 OFFCURVE",
"0 204 CURVE SMOOTH",
"0 103 OFFCURVE",
"37 0 OFFCURVE",
"162 0 CURVE SMOOTH",
"347 0 OFFCURVE",
"428 246 OFFCURVE",
"428 433 CURVE SMOOTH",
"428 558 OFFCURVE",
"376 690 OFFCURVE",
"247 690 CURVE SMOOTH",
"111 690 OFFCURVE",
"23 534 OFFCURVE",
"26 376 CURVE SMOOTH",
"29 240 OFFCURVE",
"131 195 OFFCURVE",
"252 195 CURVE SMOOTH",
"375 195 OFFCURVE",
"472 235 OFFCURVE",
"557 290 CURVE SMOOTH"
);
}
);
width = 536;
}
);
unicode = 004F;
},
{
color = 11;
glyphname = Oacute;
lastChange = "2016-10-13 21:37:25 +0000";
layers = (
{
associatedMasterId = "2B556C7D-ACF4-4058-9F01-0A4D9389EAED";
layerId = "04D29943-FDBB-4404-A444-49CE8273DA2C";
name = "Regular Oct 13 16, 21:38";
paths = (
{
closed = 1;
nodes = (
"664 275 OFFCURVE",
"646 325 OFFCURVE",
"594 297 CURVE SMOOTH",
"317 149 OFFCURVE",
"114 202 OFFCURVE",
"97 363 CURVE SMOOTH",
"81 515 OFFCURVE",
"203 664 OFFCURVE",
"329 627 CURVE SMOOTH",
"509 574 OFFCURVE",
"439 79 OFFCURVE",
"218 37 CURVE SMOOTH",
"90 13 OFFCURVE",
"43 191 OFFCURVE",
"95 392 CURVE SMOOTH",
"95 392 OFFCURVE",
"49 445 OFFCURVE",
"36 391 CURVE SMOOTH",
"0 244 OFFCURVE",
"-10 -33 OFFCURVE",
"212 -19 CURVE SMOOTH",
"455 -3 OFFCURVE",
"564 437 OFFCURVE",
"441 612 CURVE SMOOTH",
"376 705 OFFCURVE",
"251 706 OFFCURVE",
"159 644 CURVE SMOOTH",
"80 589 OFFCURVE",
"34 489 OFFCURVE",
"36 386 CURVE SMOOTH",
"41 74 OFFCURVE",
"420 125 OFFCURVE",
"627 252 CURVE SMOOTH"
);
},
{
closed = 1;
nodes = (
"305 876 OFFCURVE",
"291 811 OFFCURVE",
"282 774 CURVE SMOOTH",
"271 730 OFFCURVE",
"327 717 OFFCURVE",
"340 758 CURVE SMOOTH",
"357 813 OFFCURVE",
"370 862 OFFCURVE",
"379 896 CURVE SMOOTH",
"391 940 OFFCURVE",
"330 959 OFFCURVE",
"316 912 CURVE SMOOTH"
);
}
);
width = 598;
},
{
associatedMasterId = "2B556C7D-ACF4-4058-9F01-0A4D9389EAED";
layerId = "39F4DC03-7AF2-49A7-8B8E-88FB8C977D35";
name = "Regular Oct 13 16, 21:43";
paths = (
{
closed = 1;
nodes = (
"664 275 OFFCURVE",
"646 325 OFFCURVE",
"594 297 CURVE SMOOTH",
"317 149 OFFCURVE",
"114 202 OFFCURVE",
"97 363 CURVE SMOOTH",
"81 515 OFFCURVE",
"203 664 OFFCURVE",
"329 627 CURVE SMOOTH",
"509 574 OFFCURVE",
"439 79 OFFCURVE",
"218 37 CURVE SMOOTH",
"90 13 OFFCURVE",
"43 191 OFFCURVE",
"95 392 CURVE SMOOTH",
"95 392 OFFCURVE",
"49 445 OFFCURVE",
"36 391 CURVE SMOOTH",
"0 244 OFFCURVE",
"-10 -33 OFFCURVE",
"212 -19 CURVE SMOOTH",
"455 -3 OFFCURVE",
"564 437 OFFCURVE",
"441 612 CURVE SMOOTH",
"376 705 OFFCURVE",
"251 706 OFFCURVE",
"159 644 CURVE SMOOTH",
"80 589 OFFCURVE",
"34 489 OFFCURVE",
"36 386 CURVE SMOOTH",
"41 74 OFFCURVE",
"420 125 OFFCURVE",
"627 252 CURVE SMOOTH"
);
},
{
closed = 1;
nodes = (
"305 876 OFFCURVE",
"291 811 OFFCURVE",
"282 774 CURVE SMOOTH",
"271 730 OFFCURVE",
"327 717 OFFCURVE",
"340 758 CURVE SMOOTH",
"357 813 OFFCURVE",
"370 862 OFFCURVE",
"379 896 CURVE SMOOTH",
"391 940 OFFCURVE",
"330 959 OFFCURVE",
"316 912 CURVE SMOOTH"
);
}
);
width = 598;
},
{
layerId = "2B556C7D-ACF4-4058-9F01-0A4D9389EAED";
rightMetricsKey = O;
name = Regular;
paths = (
{
closed = 1;
nodes = (
"588 313 OFFCURVE",
"577 348 OFFCURVE",
"552 348 CURVE SMOOTH",
"544 348 OFFCURVE",
"535 344 OFFCURVE",
"524 334 CURVE SMOOTH",
"438 257 OFFCURVE",
"350 211 OFFCURVE",
"250 211 CURVE SMOOTH",
"162 211 OFFCURVE",
"88 241 OFFCURVE",
"88 354 CURVE SMOOTH",
"87 455 OFFCURVE",
"145 569 OFFCURVE",
"246 569 CURVE SMOOTH",
"315 569 OFFCURVE",
"357 498 OFFCURVE",
"358 377 CURVE SMOOTH",
"359 227 OFFCURVE",
"281 57 OFFCURVE",
"162 57 CURVE SMOOTH",
"88 57 OFFCURVE",
"63 123 OFFCURVE",
"63 212 CURVE SMOOTH",
"63 247 OFFCURVE",
"72 281 OFFCURVE",
"84 329 CURVE SMOOTH",
"96 375 OFFCURVE",
"42 380 OFFCURVE",
"33 357 CURVE SMOOTH",
"14 314 OFFCURVE",
"0 262 OFFCURVE",
"0 204 CURVE SMOOTH",
"0 103 OFFCURVE",
"37 0 OFFCURVE",
"162 0 CURVE SMOOTH",
"333 0 OFFCURVE",
"421 203 OFFCURVE",
"421 390 CURVE SMOOTH",
"421 496 OFFCURVE",
"376 626 OFFCURVE",
"247 626 CURVE SMOOTH",
"111 626 OFFCURVE",
"23 487 OFFCURVE",
"26 347 CURVE SMOOTH",
"29 184 OFFCURVE",
"143 153 OFFCURVE",
"252 153 CURVE SMOOTH",
"395 153 OFFCURVE",
"509 233 OFFCURVE",
"563 288 CURVE SMOOTH"
);
},
{
closed = 1;
nodes = (
"257 770 OFFCURVE",
"247 746 OFFCURVE",
"232 711 CURVE SMOOTH",
"221 687 OFFCURVE",
"234 669 OFFCURVE",
"250 666 CURVE SMOOTH",
"262 664 OFFCURVE",
"277 670 OFFCURVE",
"285 686 CURVE SMOOTH",
"312 737 OFFCURVE",
"318 751 OFFCURVE",
"333 783 CURVE SMOOTH",
"344 807 OFFCURVE",
"331 828 OFFCURVE",
"312 831 CURVE SMOOTH",
"299 833 OFFCURVE",
"284 827 OFFCURVE",
"275 809 CURVE SMOOTH"
);
}
);
width = 538;
}
);
leftMetricsKey = O;
rightMetricsKey = O;
unicode = 00D3;
},
{
color = 11;
glyphname = P;
lastChange = "2016-10-13 23:10:58 +0000";
layers = (
{
associatedMasterId = "2B556C7D-ACF4-4058-9F01-0A4D9389EAED";
layerId = "044AA697-A073-462B-A784-6045D5104B82";
name = "Regular Aug 4 16, 18:07 Aug 4 16, 18:11";
paths = (
{
closed = 1;
nodes = (
"248 336 OFFCURVE",
"211 104 OFFCURVE",
"203 -14 CURVE SMOOTH",
"199 -60 OFFCURVE",
"258 -57 OFFCURVE",
"264 -14 CURVE SMOOTH",
"275 58 OFFCURVE",
"286 183 OFFCURVE",
"329 405 CURVE SMOOTH",
"329 407 OFFCURVE",
"236 251 OFFCURVE",
"51 261 CURVE SMOOTH",
"-2 264 OFFCURVE",
"-85 317 OFFCURVE",
"-39 447 CURVE SMOOTH",
"41 672 OFFCURVE",
"402 772 OFFCURVE",
"515 619 CURVE SMOOTH",
"582 529 OFFCURVE",
"487 389 OFFCURVE",
"402 341 CURVE SMOOTH",
"355 315 OFFCURVE",
"390 270 OFFCURVE",
"434 292 CURVE SMOOTH",
"589 369 OFFCURVE",
"644 539 OFFCURVE",
"570 651 CURVE SMOOTH",
"485 780 OFFCURVE",
"289 766 OFFCURVE",
"180 726 CURVE SMOOTH",
"-182 594 OFFCURVE",
"-190 239 OFFCURVE",
"23 204 CURVE SMOOTH",
"190 177 OFFCURVE",
"353 298 OFFCURVE",
"354 383 CURVE SMOOTH",
"355 470 OFFCURVE",
"282 450 OFFCURVE",
"269 406 CURVE SMOOTH"
);
}
);
width = 646;
},
{
associatedMasterId = "2B556C7D-ACF4-4058-9F01-0A4D9389EAED";
layerId = "96A59D7C-D817-4B1C-B634-1F6580A00FB4";
name = "Regular Aug 4 16, 18:07 Aug 4 16, 18:11 Aug 4 16, 18:15";
paths = (
{
closed = 1;
nodes = (
"248 336 OFFCURVE",
"211 104 OFFCURVE",
"203 -14 CURVE SMOOTH",
"199 -60 OFFCURVE",
"258 -57 OFFCURVE",
"264 -14 CURVE SMOOTH",
"275 58 OFFCURVE",
"286 183 OFFCURVE",
"329 405 CURVE SMOOTH",
"329 407 OFFCURVE",
"236 251 OFFCURVE",
"51 261 CURVE SMOOTH",
"-2 264 OFFCURVE",
"-85 317 OFFCURVE",
"-39 447 CURVE SMOOTH",
"41 672 OFFCURVE",
"367 753 OFFCURVE",
"480 600 CURVE SMOOTH",
"547 510 OFFCURVE",
"452 370 OFFCURVE",
"367 322 CURVE SMOOTH",
"320 296 OFFCURVE",
"355 251 OFFCURVE",
"399 273 CURVE SMOOTH",
"554 350 OFFCURVE",
"609 520 OFFCURVE",
"535 632 CURVE SMOOTH",
"450 761 OFFCURVE",
"289 766 OFFCURVE",
"180 726 CURVE SMOOTH",
"-182 594 OFFCURVE",
"-190 239 OFFCURVE",
"23 204 CURVE SMOOTH",
"190 177 OFFCURVE",
"353 298 OFFCURVE",
"354 383 CURVE SMOOTH",
"355 470 OFFCURVE",
"282 450 OFFCURVE",
"269 406 CURVE SMOOTH"
);
}
);
width = 646;
},
{
associatedMasterId = "2B556C7D-ACF4-4058-9F01-0A4D9389EAED";
layerId = "3D72E360-BFB2-4817-80E9-D0364575D11A";
name = "Regular Aug 23 16, 15:46";
paths = (
{
closed = 1;
nodes = (
"248 336 OFFCURVE",
"211 104 OFFCURVE",
"203 -14 CURVE SMOOTH",
"199 -60 OFFCURVE",
"258 -57 OFFCURVE",
"264 -14 CURVE SMOOTH",
"275 58 OFFCURVE",
"286 183 OFFCURVE",
"329 405 CURVE SMOOTH",
"329 407 OFFCURVE",
"189 222 OFFCURVE",
"4 232 CURVE SMOOTH",
"-49 235 OFFCURVE",
"-132 288 OFFCURVE",
"-86 418 CURVE SMOOTH",
"-3 654 OFFCURVE",
"394 777 OFFCURVE",
"511 619 CURVE SMOOTH",
"578 529 OFFCURVE",
"487 389 OFFCURVE",
"402 341 CURVE SMOOTH",
"355 315 OFFCURVE",
"390 270 OFFCURVE",
"434 292 CURVE SMOOTH",
"589 369 OFFCURVE",
"640 539 OFFCURVE",
"566 651 CURVE SMOOTH",
"481 780 OFFCURVE",
"283 766 OFFCURVE",
"174 726 CURVE SMOOTH",
"-222 582 OFFCURVE",
"-250 212 OFFCURVE",
"-24 175 CURVE SMOOTH",
"143 148 OFFCURVE",
"353 298 OFFCURVE",
"354 383 CURVE SMOOTH",
"355 470 OFFCURVE",
"282 450 OFFCURVE",
"269 406 CURVE SMOOTH"
);
}
);
width = 599;
},
{
associatedMasterId = "2B556C7D-ACF4-4058-9F01-0A4D9389EAED";
layerId = "1E6F59C1-6301-4153-8F5F-F29959292E85";
name = "Regular Oct 13 16, 15:07";
paths = (
{
closed = 1;
nodes = (
"511 336 OFFCURVE",
"474 104 OFFCURVE",
"466 -14 CURVE SMOOTH",
"462 -62 OFFCURVE",
"524 -62 OFFCURVE",
"530 -17 CURVE SMOOTH",
"541 55 OFFCURVE",
"549 183 OFFCURVE",
"592 405 CURVE SMOOTH",
"592 363 OFFCURVE",
"423 229 OFFCURVE",
"262 239 CURVE SMOOTH",
"150 246 OFFCURVE",
"94 352 OFFCURVE",
"172 516 CURVE SMOOTH",
"237 652 OFFCURVE",
"358 747 OFFCURVE",
"488 787 CURVE SMOOTH",
"819 890 OFFCURVE",
"958 578 OFFCURVE",
"665 344 CURVE SMOOTH",
"622 310 OFFCURVE",
"661 261 OFFCURVE",
"702 289 CURVE SMOOTH",
"886 414 OFFCURVE",
"942 615 OFFCURVE",
"869 742 CURVE SMOOTH",
"750 948 OFFCURVE",
"428 883 OFFCURVE",
"252 734 CURVE SMOOTH",
"138 638 OFFCURVE",
"84 527 OFFCURVE",
"69 431 CURVE SMOOTH",
"45 256 OFFCURVE",
"136 157 OFFCURVE",
"318 178 CURVE SMOOTH",
"461 195 OFFCURVE",
"616 284 OFFCURVE",
"617 383 CURVE SMOOTH",
"618 470 OFFCURVE",
"545 450 OFFCURVE",
"532 406 CURVE SMOOTH"
);
}
);
width = 861;
},
{
layerId = "2B556C7D-ACF4-4058-9F01-0A4D9389EAED";
name = Regular;
paths = (
{
closed = 1;
nodes = (
"355 141 OFFCURVE",
"267 111 OFFCURVE",
"197 111 CURVE SMOOTH",
"82 111 OFFCURVE",
"0 173 OFFCURVE",
"0 291 CURVE SMOOTH",
"0 508 OFFCURVE",
"246 689 OFFCURVE",
"488 689 CURVE SMOOTH",
"639 689 OFFCURVE",
"738 602 OFFCURVE",
"738 474 CURVE SMOOTH",
"738 392 OFFCURVE",
"689 275 OFFCURVE",
"563 189 CURVE SMOOTH",
"522 161 OFFCURVE",
"484 206 OFFCURVE",
"528 238 CURVE SMOOTH",
"621 306 OFFCURVE",
"675 391 OFFCURVE",
"675 476 CURVE SMOOTH",
"675 562 OFFCURVE",
"607 631 OFFCURVE",
"482 631 CURVE SMOOTH",
"285 631 OFFCURVE",
"63 474 OFFCURVE",
"63 283 CURVE SMOOTH",
"63 205 OFFCURVE",
"123 169 OFFCURVE",
"203 169 CURVE SMOOTH",
"274 169 OFFCURVE",
"343 219 OFFCURVE",
"396 285 CURVE SMOOTH",
"408 300 OFFCURVE",
"411 316 OFFCURVE",
"432 316 CURVE SMOOTH",
"442 316 OFFCURVE",
"457 309 OFFCURVE",
"450 272 CURVE SMOOTH",
"444 239 OFFCURVE",
"409 23 OFFCURVE",
"405 1 CURVE SMOOTH",
"402 -20 OFFCURVE",
"385 -30 OFFCURVE",
"370 -30 CURVE SMOOTH",
"354 -30 OFFCURVE",
"340 -19 OFFCURVE",
"343 4 CURVE SMOOTH",
"347 35 OFFCURVE",
"365 144 OFFCURVE",
"375 196 CURVE",
"399 205 LINE"
);
}
);
width = 768;
}
);
unicode = 0050;
},
{
color = 11;
glyphname = Q;
lastChange = "2016-10-13 13:48:12 +0000";
layers = (
{
associatedMasterId = "2B556C7D-ACF4-4058-9F01-0A4D9389EAED";
layerId = "490BA0A3-749D-46CB-93E0-3781CFF70672";
name = "Regular Aug 4 16, 19:09";
paths = (
{
closed = 1;
nodes = (
"414 -79 OFFCURVE",
"463 -42 OFFCURVE",
"417 -2 CURVE SMOOTH",
"329 76 OFFCURVE",
"211 214 OFFCURVE",
"190 510 CURVE SMOOTH",
"184 590 OFFCURVE",
"213 760 OFFCURVE",
"322 737 CURVE SMOOTH",
"492 701 OFFCURVE",
"456 88 OFFCURVE",
"220 40 CURVE SMOOTH",
"113 18 OFFCURVE",
"62 162 OFFCURVE",
"112 368 CURVE SMOOTH",
"130 444 OFFCURVE",
"61 426 OFFCURVE",
"51 391 CURVE SMOOTH",
"5 233 OFFCURVE",
"5 -34 OFFCURVE",
"214 -20 CURVE SMOOTH",
"516 1 OFFCURVE",
"594 741 OFFCURVE",
"337 795 CURVE SMOOTH",
"200 824 OFFCURVE",
"122 675 OFFCURVE",
"128 505 CURVE SMOOTH",
"139 198 OFFCURVE",
"300 19 OFFCURVE",
"366 -38 CURVE SMOOTH"
);
}
);
width = 561;
},
{
associatedMasterId = "2B556C7D-ACF4-4058-9F01-0A4D9389EAED";
layerId = "2D1B088D-C66D-447B-B644-AEBA7EC6C2D2";
name = "Regular Oct 13 16, 15:17";
paths = (
{
closed = 1;
nodes = (
"414 -79 OFFCURVE",
"463 -42 OFFCURVE",
"417 -2 CURVE SMOOTH",
"329 76 OFFCURVE",
"209 163 OFFCURVE",
"188 452 CURVE SMOOTH",
"182 532 OFFCURVE",
"213 760 OFFCURVE",
"322 737 CURVE SMOOTH",
"492 701 OFFCURVE",
"456 88 OFFCURVE",
"220 40 CURVE SMOOTH",
"113 18 OFFCURVE",
"62 162 OFFCURVE",
"112 368 CURVE SMOOTH",
"130 444 OFFCURVE",
"65 426 OFFCURVE",
"55 391 CURVE SMOOTH",
"9 233 OFFCURVE",
"9 -34 OFFCURVE",
"218 -20 CURVE SMOOTH",
"520 1 OFFCURVE",
"594 741 OFFCURVE",
"337 795 CURVE SMOOTH",
"198 824 OFFCURVE",
"120 637 OFFCURVE",
"126 460 CURVE SMOOTH",
"137 153 OFFCURVE",
"300 19 OFFCURVE",
"366 -38 CURVE SMOOTH"
);
}
);
width = 561;
},
{
layerId = "2B556C7D-ACF4-4058-9F01-0A4D9389EAED";
name = Regular;
paths = (
{
closed = 1;
nodes = (
"453 -68 OFFCURVE",
"487 -19 OFFCURVE",
"444 6 CURVE SMOOTH",
"267 110 OFFCURVE",
"147 269 OFFCURVE",
"148 446 CURVE SMOOTH",
"148 540 OFFCURVE",
"183 633 OFFCURVE",
"256 633 CURVE SMOOTH",
"318 633 OFFCURVE",
"365 563 OFFCURVE",
"366 420 CURVE SMOOTH",
"367 279 OFFCURVE",
"297 58 OFFCURVE",
"163 58 CURVE SMOOTH",
"89 58 OFFCURVE",
"62 114 OFFCURVE",
"62 172 CURVE SMOOTH",
"62 188 OFFCURVE",
"61 211 OFFCURVE",
"73 265 CURVE SMOOTH",
"80 292 OFFCURVE",
"63 304 OFFCURVE",
"48 304 CURVE SMOOTH",
"35 304 OFFCURVE",
"23 296 OFFCURVE",
"18 284 CURVE SMOOTH",
"4 245 OFFCURVE",
"0 213 OFFCURVE",
"0 168 CURVE SMOOTH",
"0 94 OFFCURVE",
"38 0 OFFCURVE",
"163 0 CURVE SMOOTH",
"348 0 OFFCURVE",
"429 246 OFFCURVE",
"429 433 CURVE SMOOTH",
"429 549 OFFCURVE",
"379 690 OFFCURVE",
"257 690 CURVE SMOOTH",
"142 690 OFFCURVE",
"85 577 OFFCURVE",
"85 450 CURVE SMOOTH",
"85 244 OFFCURVE",
"221 56 OFFCURVE",
"414 -47 CURVE SMOOTH"
);
}
);
width = 464;
}
);
unicode = 0051;
},
{
color = 11;
glyphname = R;
lastChange = "2016-10-14 10:57:44 +0000";
layers = (
{
associatedMasterId = "2B556C7D-ACF4-4058-9F01-0A4D9389EAED";
layerId = "B5973992-03A4-4BA3-B60B-AA8DA9E3A922";
name = "Regular Aug 23 16, 22:08";
paths = (
{
closed = 1;
nodes = (
"385 835 OFFCURVE",
"91 709 OFFCURVE",
"46 657 CURVE SMOOTH",
"26 633 OFFCURVE",
"48 591 OFFCURVE",
"85 615 CURVE SMOOTH",
"215 700 OFFCURVE",
"415 755 OFFCURVE",
"447 658 CURVE SMOOTH",
"489 531 OFFCURVE",
"356 317 OFFCURVE",
"271 245 CURVE SMOOTH",
"243 222 OFFCURVE",
"230 216 OFFCURVE",
"245 188 CURVE SMOOTH",
"282 118 OFFCURVE",
"384 -23 OFFCURVE",
"480 -15 CURVE SMOOTH",
"569 -8 OFFCURVE",
"629 122 OFFCURVE",
"642 188 CURVE SMOOTH",
"646 210 OFFCURVE",
"614 245 OFFCURVE",
"592 197 CURVE SMOOTH",
"548 100 OFFCURVE",
"508 44 OFFCURVE",
"479 44 CURVE SMOOTH",
"415 44 OFFCURVE",
"323 192 OFFCURVE",
"271 245 CURVE SMOOTH",
"206 310 OFFCURVE",
"180 137 OFFCURVE",
"226 154 CURVE SMOOTH",
"441 235 OFFCURVE",
"588 608 OFFCURVE",
"489 719 CURVE SMOOTH"
);
},
{
closed = 1;
nodes = (
"234 600 OFFCURVE",
"178 596 OFFCURVE",
"168 548 CURVE SMOOTH",
"158 500 OFFCURVE",
"126 117 OFFCURVE",
"73 60 CURVE SMOOTH",
"38 23 OFFCURVE",
"-13 125 OFFCURVE",
"-36 188 CURVE SMOOTH",
"-52 233 OFFCURVE",
"-102 209 OFFCURVE",
"-88 161 CURVE SMOOTH",
"-75 117 OFFCURVE",
"-30 15 OFFCURVE",
"37 -3 CURVE SMOOTH",
"66 -10 OFFCURVE",
"108 -3 OFFCURVE",
"132 37 CURVE SMOOTH",
"176 110 OFFCURVE",
"219 426 OFFCURVE",
"229 545 CURVE SMOOTH"
);
}
);
width = 622;
},
{
associatedMasterId = "2B556C7D-ACF4-4058-9F01-0A4D9389EAED";
layerId = "3B16C1AA-A2A4-4AB1-94A8-88733F072F5E";
name = "Regular Oct 13 16, 15:42";
paths = (
{
closed = 1;
nodes = (
"387 836 OFFCURVE",
"91 709 OFFCURVE",
"46 657 CURVE SMOOTH",
"22 629 OFFCURVE",
"41 582 OFFCURVE",
"85 611 CURVE SMOOTH",
"215 696 OFFCURVE",
"418 742 OFFCURVE",
"447 658 CURVE SMOOTH",
"495 521 OFFCURVE",
"362 321 OFFCURVE",
"277 249 CURVE SMOOTH",
"249 226 OFFCURVE",
"230 216 OFFCURVE",
"245 188 CURVE SMOOTH",
"282 118 OFFCURVE",
"384 -23 OFFCURVE",
"480 -15 CURVE SMOOTH",
"569 -8 OFFCURVE",
"640 119 OFFCURVE",
"653 185 CURVE SMOOTH",
"660 225 OFFCURVE",
"619 256 OFFCURVE",
"592 197 CURVE SMOOTH",
"548 100 OFFCURVE",
"508 53 OFFCURVE",
"479 53 CURVE SMOOTH",
"415 53 OFFCURVE",
"323 192 OFFCURVE",
"271 245 CURVE SMOOTH",
"271 245 OFFCURVE",
"233 161 OFFCURVE",
"277 184 CURVE SMOOTH",
"480 289 OFFCURVE",
"590 609 OFFCURVE",
"491 720 CURVE SMOOTH"
);
},
{
closed = 1;
nodes = (
"234 600 OFFCURVE",
"176 596 OFFCURVE",
"166 548 CURVE SMOOTH",
"156 500 OFFCURVE",
"126 120 OFFCURVE",
"73 63 CURVE SMOOTH",
"38 26 OFFCURVE",
"-7 125 OFFCURVE",
"-30 188 CURVE SMOOTH",
"-46 233 OFFCURVE",
"-102 209 OFFCURVE",
"-88 161 CURVE SMOOTH",
"-75 117 OFFCURVE",
"-30 15 OFFCURVE",
"37 -3 CURVE SMOOTH",
"66 -10 OFFCURVE",
"108 -3 OFFCURVE",
"132 37 CURVE SMOOTH",
"176 110 OFFCURVE",
"219 426 OFFCURVE",
"229 545 CURVE SMOOTH"
);
}
);
width = 622;
},
{
layerId = "2B556C7D-ACF4-4058-9F01-0A4D9389EAED";
name = Regular;
paths = (
{
closed = 1;
nodes = (
"279 492 OFFCURVE",
"263 506 OFFCURVE",
"248 506 CURVE SMOOTH",
"233 506 OFFCURVE",
"218 496 OFFCURVE",
"214 473 CURVE SMOOTH",
"198 377 OFFCURVE",
"182 284 OFFCURVE",
"169 219 CURVE SMOOTH",
"146 108 OFFCURVE",
"136 56 OFFCURVE",
"93 56 CURVE SMOOTH",
"80 56 OFFCURVE",
"39 68 OFFCURVE",
"72 174 CURVE SMOOTH",
"86 220 OFFCURVE",
"28 236 OFFCURVE",
"14 187 CURVE SMOOTH",
"-29 38 OFFCURVE",
"33 0 OFFCURVE",
"92 0 CURVE SMOOTH",
"180 0 OFFCURVE",
"199 58 OFFCURVE",
"229 210 CURVE SMOOTH",
"250 319 OFFCURVE",
"268 425 OFFCURVE",
"275 469 CURVE SMOOTH"
);
},
{
closed = 1;
nodes = (
"464 277 OFFCURVE",
"550 416 OFFCURVE",
"550 527 CURVE SMOOTH",
"550 629 OFFCURVE",
"490 688 OFFCURVE",
"383 688 CURVE SMOOTH",
"258 688 OFFCURVE",
"110 610 OFFCURVE",
"72 578 CURVE SMOOTH",
"64 571 OFFCURVE",
"60 563 OFFCURVE",
"60 554 CURVE SMOOTH",
"60 533 OFFCURVE",
"81 514 OFFCURVE",
"111 534 CURVE SMOOTH",
"193 587 OFFCURVE",
"304 629 OFFCURVE",
"382 629 CURVE SMOOTH",
"459 629 OFFCURVE",
"486 593 OFFCURVE",
"486 528 CURVE SMOOTH",
"486 410 OFFCURVE",
"387 312 OFFCURVE",
"305 247 CURVE SMOOTH",
"290 235 OFFCURVE",
"280 228 OFFCURVE",
"280 215 CURVE SMOOTH",
"280 206 OFFCURVE",
"284 195 OFFCURVE",
"291 183 CURVE SMOOTH",
"333 115 OFFCURVE",
"405 1 OFFCURVE",
"504 1 CURVE SMOOTH",
"600 1 OFFCURVE",
"649 107 OFFCURVE",
"664 163 CURVE SMOOTH",
"672 189 OFFCURVE",
"660 211 OFFCURVE",
"643 211 CURVE SMOOTH",
"633 211 OFFCURVE",
"618 204 OFFCURVE",
"610 185 CURVE SMOOTH",
"571 88 OFFCURVE",
"536 58 OFFCURVE",
"507 58 CURVE SMOOTH",
"447 58 OFFCURVE",
"377 163 OFFCURVE",
"339 217 CURVE",
"332 198 LINE"
);
}
);
width = 647;
}
);
unicode = 0052;
},
{
color = 11;
glyphname = S;
lastChange = "2016-10-14 10:55:39 +0000";
layers = (
{
associatedMasterId = "2B556C7D-ACF4-4058-9F01-0A4D9389EAED";
layerId = "EB011582-192A-4845-83AD-36BA89833A7D";
name = "Regular Aug 31 16, 22:03";
paths = (
{
closed = 1;
nodes = (
"332 22 CURVE SMOOTH",
"282 -31 OFFCURVE",
"208 -47 OFFCURVE",
"151 -26 CURVE SMOOTH",
"84 -2 OFFCURVE",
"57 68 OFFCURVE",
"73 140 CURVE SMOOTH",
"102 267 OFFCURVE",
"264 372 OFFCURVE",
"510 403 CURVE SMOOTH",
"562 410 OFFCURVE",
"556 348 OFFCURVE",
"517 345 CURVE SMOOTH",
"382 336 OFFCURVE",
"158 253 OFFCURVE",
"135 120 CURVE SMOOTH",
"127 74 OFFCURVE",
"149 36 OFFCURVE",
"188 29 CURVE SMOOTH",
"255 17 OFFCURVE",
"330 91 OFFCURVE",
"308 166 CURVE SMOOTH",
"272 288 OFFCURVE",
"-16 333 OFFCURVE",
"-1 563 CURVE SMOOTH",
"7 692 OFFCURVE",
"118 808 OFFCURVE",
"264 814 CURVE SMOOTH",
"466 822 OFFCURVE",
"524 613 OFFCURVE",
"393 462 CURVE SMOOTH",
"364 429 OFFCURVE",
"307 451 OFFCURVE",
"341 498 CURVE SMOOTH",
"446 643 OFFCURVE",
"381 752 OFFCURVE",
"278 752 CURVE SMOOTH",
"166 752 OFFCURVE",
"80 667 OFFCURVE",
"71 567 CURVE SMOOTH",
"57 409 OFFCURVE",
"231 367 OFFCURVE",
"344 242 CURVE SMOOTH",
"397 181 OFFCURVE",
"395 87 OFFCURVE"
);
}
);
width = 487;
},
{
associatedMasterId = "2B556C7D-ACF4-4058-9F01-0A4D9389EAED";
layerId = "947B82D0-EF62-49BB-BF9D-1F96B658D2A6";
name = "Regular Oct 13 16, 16:26";
paths = (
{
closed = 1;
nodes = (
"399 183 OFFCURVE",
"395 87 OFFCURVE",
"332 22 CURVE SMOOTH",
"282 -31 OFFCURVE",
"208 -47 OFFCURVE",
"151 -26 CURVE SMOOTH",
"84 -2 OFFCURVE",
"57 68 OFFCURVE",
"73 140 CURVE SMOOTH",
"102 267 OFFCURVE",
"264 372 OFFCURVE",
"510 403 CURVE SMOOTH",
"562 410 OFFCURVE",
"556 348 OFFCURVE",
"517 345 CURVE SMOOTH",
"382 336 OFFCURVE",
"158 253 OFFCURVE",
"135 120 CURVE SMOOTH",
"127 74 OFFCURVE",
"149 36 OFFCURVE",
"188 29 CURVE SMOOTH",
"255 17 OFFCURVE",
"330 91 OFFCURVE",
"308 166 CURVE SMOOTH",
"272 288 OFFCURVE",
"-16 281 OFFCURVE",
"-1 511 CURVE SMOOTH",
"7 640 OFFCURVE",
"118 756 OFFCURVE",
"264 762 CURVE SMOOTH",
"466 770 OFFCURVE",
"524 597 OFFCURVE",
"393 446 CURVE SMOOTH",
"364 413 OFFCURVE",
"307 435 OFFCURVE",
"341 482 CURVE SMOOTH",
"446 627 OFFCURVE",
"381 700 OFFCURVE",
"278 700 CURVE SMOOTH",
"166 700 OFFCURVE",
"77 616 OFFCURVE",
"68 516 CURVE SMOOTH",
"54 358 OFFCURVE",
"229 353 OFFCURVE",
"342 240 CURVE SMOOTH"
);
}
);
width = 487;
},
{
layerId = "2B556C7D-ACF4-4058-9F01-0A4D9389EAED";
name = Regular;
paths = (
{
closed = 1;
nodes = (
"335 297 OFFCURVE",
"335 141 CURVE SMOOTH",
"335 28 OFFCURVE",
"221 -14 OFFCURVE",
"156 -14 CURVE SMOOTH",
"85 -14 OFFCURVE",
"45 28 OFFCURVE",
"45 87 CURVE SMOOTH",
"45 158 OFFCURVE",
"106 214 OFFCURVE",
"205 254 CURVE SMOOTH",
"280 284 OFFCURVE",
"393 307 OFFCURVE",
"508 310 CURVE SMOOTH",
"534 311 OFFCURVE",
"546 296 OFFCURVE",
"546 281 CURVE SMOOTH",
"546 267 OFFCURVE",
"534 252 OFFCURVE",
"515 252 CURVE SMOOTH",
"464 252 OFFCURVE",
"333 240 OFFCURVE",
"244 208 CURVE SMOOTH",
"164 179 OFFCURVE",
"108 136 OFFCURVE",
"108 85 CURVE SMOOTH",
"108 62 OFFCURVE",
"126 44 OFFCURVE",
"157 44 CURVE SMOOTH",
"195 43 OFFCURVE",
"271 72 OFFCURVE",
"271 137 CURVE SMOOTH",
"271 250 OFFCURVE",
"0 218 OFFCURVE",
"0 447 CURVE SMOOTH",
"0 604 OFFCURVE",
"168 689 OFFCURVE",
"277 689 CURVE SMOOTH",
"405 689 OFFCURVE",
"459 620 OFFCURVE",
"459 533 CURVE SMOOTH",
"459 482 OFFCURVE",
"436 426 OFFCURVE",
"389 372 CURVE SMOOTH",
"360 339 OFFCURVE",
"306 362 OFFCURVE",
"340 409 CURVE SMOOTH",
"377 460 OFFCURVE",
"395 499 OFFCURVE",
"395 532 CURVE SMOOTH",
"395 593 OFFCURVE",
"350 631 OFFCURVE",
"280 631 CURVE SMOOTH",
"167 631 OFFCURVE",
"64 543 OFFCURVE",
"64 443 CURVE SMOOTH",
"64 259 OFFCURVE"
);
}
);
width = 516;
}
);
unicode = 0053;
},
{
color = 11;
glyphname = Sacute;
lastChange = "2016-10-14 10:55:54 +0000";
layers = (
{
associatedMasterId = "2B556C7D-ACF4-4058-9F01-0A4D9389EAED";
layerId = "0EB4451E-0397-4DA9-987C-F1C2C0610E5D";
name = "Regular Oct 13 16, 22:08";
paths = (
{
closed = 1;
nodes = (
"287 960 OFFCURVE",
"273 895 OFFCURVE",
"264 858 CURVE SMOOTH",
"253 814 OFFCURVE",
"309 801 OFFCURVE",
"322 842 CURVE SMOOTH",
"339 897 OFFCURVE",
"352 946 OFFCURVE",
"361 980 CURVE SMOOTH",
"373 1024 OFFCURVE",
"312 1043 OFFCURVE",
"298 996 CURVE SMOOTH"
);
},
{
closed = 1;
nodes = (
"399 183 OFFCURVE",
"395 87 OFFCURVE",
"332 22 CURVE SMOOTH",
"282 -31 OFFCURVE",
"208 -47 OFFCURVE",
"151 -26 CURVE SMOOTH",
"84 -2 OFFCURVE",
"57 68 OFFCURVE",
"73 140 CURVE SMOOTH",
"102 267 OFFCURVE",
"264 372 OFFCURVE",
"510 403 CURVE SMOOTH",
"562 410 OFFCURVE",
"556 348 OFFCURVE",
"517 345 CURVE SMOOTH",
"382 336 OFFCURVE",
"158 253 OFFCURVE",
"135 120 CURVE SMOOTH",
"127 74 OFFCURVE",
"149 36 OFFCURVE",
"188 29 CURVE SMOOTH",
"255 17 OFFCURVE",
"330 91 OFFCURVE",
"308 166 CURVE SMOOTH",
"272 288 OFFCURVE",
"-16 281 OFFCURVE",
"-1 511 CURVE SMOOTH",
"7 640 OFFCURVE",
"118 756 OFFCURVE",
"264 762 CURVE SMOOTH",
"466 770 OFFCURVE",
"524 597 OFFCURVE",
"393 446 CURVE SMOOTH",
"364 413 OFFCURVE",
"307 435 OFFCURVE",
"341 482 CURVE SMOOTH",
"446 627 OFFCURVE",
"381 700 OFFCURVE",
"278 700 CURVE SMOOTH",
"166 700 OFFCURVE",
"77 616 OFFCURVE",
"68 516 CURVE SMOOTH",
"54 358 OFFCURVE",
"229 353 OFFCURVE",
"342 240 CURVE SMOOTH"
);
}
);
width = 487;
},
{
layerId = "2B556C7D-ACF4-4058-9F01-0A4D9389EAED";
rightMetricsKey = S;
name = Regular;
paths = (
{
closed = 1;
nodes = (
"459 546 OFFCURVE",
"405 619 OFFCURVE",
"277 619 CURVE SMOOTH",
"168 619 OFFCURVE",
"0 534 OFFCURVE",
"0 377 CURVE SMOOTH",
"0 175 OFFCURVE",
"267 248 OFFCURVE",
"267 138 CURVE SMOOTH",
"267 85 OFFCURVE",
"201 44 OFFCURVE",
"157 44 CURVE SMOOTH",
"126 44 OFFCURVE",
"108 62 OFFCURVE",
"108 85 CURVE SMOOTH",
"108 136 OFFCURVE",
"164 179 OFFCURVE",
"244 208 CURVE SMOOTH",
"333 240 OFFCURVE",
"464 252 OFFCURVE",
"515 252 CURVE SMOOTH",
"534 252 OFFCURVE",
"546 267 OFFCURVE",
"546 281 CURVE SMOOTH",
"546 296 OFFCURVE",
"534 311 OFFCURVE",
"508 310 CURVE SMOOTH",
"393 307 OFFCURVE",
"280 284 OFFCURVE",
"205 254 CURVE SMOOTH",
"106 214 OFFCURVE",
"45 158 OFFCURVE",
"45 87 CURVE SMOOTH",
"45 28 OFFCURVE",
"85 -14 OFFCURVE",
"156 -14 CURVE SMOOTH",
"228 -14 OFFCURVE",
"330 40 OFFCURVE",
"330 136 CURVE SMOOTH",
"330 292 OFFCURVE",
"64 233 OFFCURVE",
"64 373 CURVE SMOOTH",
"64 473 OFFCURVE",
"167 561 OFFCURVE",
"280 561 CURVE SMOOTH",
"350 561 OFFCURVE",
"397 528 OFFCURVE",
"397 453 CURVE SMOOTH",
"397 413 OFFCURVE",
"371 378 OFFCURVE",
"367 371 CURVE SMOOTH",
"348 339 OFFCURVE",
"396 322 OFFCURVE",
"424 352 CURVE SMOOTH",
"440 369 OFFCURVE",
"459 413 OFFCURVE",
"459 461 CURVE SMOOTH"
);
},
{
closed = 1;
nodes = (
"269 757 OFFCURVE",
"259 733 OFFCURVE",
"244 698 CURVE SMOOTH",
"233 674 OFFCURVE",
"246 656 OFFCURVE",
"262 653 CURVE SMOOTH",
"274 651 OFFCURVE",
"289 657 OFFCURVE",
"297 673 CURVE SMOOTH",
"324 724 OFFCURVE",
"330 738 OFFCURVE",
"345 770 CURVE SMOOTH",
"356 794 OFFCURVE",
"343 815 OFFCURVE",
"324 818 CURVE SMOOTH",
"311 820 OFFCURVE",
"296 814 OFFCURVE",
"287 796 CURVE SMOOTH"
);
}
);
width = 516;
}
);
leftMetricsKey = S;
rightMetricsKey = S;
unicode = 015A;
},
{
color = 11;
glyphname = T;
lastChange = "2016-10-14 11:07:37 +0000";
layers = (
{
associatedMasterId = "2B556C7D-ACF4-4058-9F01-0A4D9389EAED";
layerId = "3CF6BFD5-C2C2-4C40-8EBD-52C077E50CEF";
name = "Regular Aug 1 16, 16:41";
paths = (
{
closed = 1;
nodes = (
"278 537 OFFCURVE",
"85 494 OFFCURVE",
"88 601 CURVE SMOOTH",
"93 764 OFFCURVE",
"421 636 OFFCURVE",
"741 636 CURVE SMOOTH",
"837 636 OFFCURVE",
"833 705 OFFCURVE",
"776 724 CURVE SMOOTH",
"730 739 OFFCURVE",
"544 747 OFFCURVE",
"498 655 CURVE SMOOTH",
"436 532 OFFCURVE",
"365 100 OFFCURVE",
"289 88 CURVE SMOOTH",
"221 77 OFFCURVE",
"234 222 OFFCURVE",
"248 271 CURVE SMOOTH",
"264 326 OFFCURVE",
"210 326 OFFCURVE",
"191 285 CURVE SMOOTH",
"172 244 OFFCURVE",
"135 77 OFFCURVE",
"237 39 CURVE SMOOTH",
"272 26 OFFCURVE",
"329 40 OFFCURVE",
"357 61 CURVE SMOOTH",
"456 135 OFFCURVE",
"494 514 OFFCURVE",
"567 645 CURVE SMOOTH",
"594 693 OFFCURVE",
"725 676 OFFCURVE",
"746 688 CURVE SMOOTH",
"765 699 OFFCURVE",
"641 684 OFFCURVE",
"457 712 CURVE SMOOTH",
"327 731 OFFCURVE",
"164 764 OFFCURVE",
"81 698 CURVE SMOOTH",
"-2 635 OFFCURVE",
"11 509 OFFCURVE",
"123 484 CURVE SMOOTH",
"203 466 OFFCURVE",
"309 489 OFFCURVE",
"317 491 CURVE SMOOTH",
"381 510 OFFCURVE",
"362 560 OFFCURVE",
"315 547 CURVE SMOOTH"
);
}
);
width = 600;
},
{
associatedMasterId = "2B556C7D-ACF4-4058-9F01-0A4D9389EAED";
layerId = "7D33F483-B677-4F48-9164-9143EEB29400";
name = "Regular Oct 13 16, 16:30";
paths = (
{
closed = 1;
nodes = (
"363 461 OFFCURVE",
"339 300 OFFCURVE",
"285 42 CURVE SMOOTH",
"279 14 OFFCURVE",
"297 1 OFFCURVE",
"315 1 CURVE SMOOTH",
"328 1 OFFCURVE",
"340 9 OFFCURVE",
"346 32 CURVE SMOOTH",
"381 189 OFFCURVE",
"441 532 OFFCURVE",
"452 584 CURVE SMOOTH",
"459 615 OFFCURVE",
"403 637 OFFCURVE",
"394 596 CURVE SMOOTH"
);
},
{
closed = 1;
nodes = (
"173 463 OFFCURVE",
"63 462 OFFCURVE",
"63 524 CURVE SMOOTH",
"63 577 OFFCURVE",
"111 605 OFFCURVE",
"193 605 CURVE SMOOTH",
"283 605 OFFCURVE",
"385 562 OFFCURVE",
"531 562 CURVE SMOOTH",
"605 562 OFFCURVE",
"677 577 OFFCURVE",
"721 627 CURVE SMOOTH",
"749 659 OFFCURVE",
"712 701 OFFCURVE",
"675 666 CURVE SMOOTH",
"560 557 OFFCURVE",
"370 662 OFFCURVE",
"190 662 CURVE SMOOTH",
"93 662 OFFCURVE",
"1 631 OFFCURVE",
"0 522 CURVE SMOOTH",
"-1 385 OFFCURVE",
"183 402 OFFCURVE",
"246 446 CURVE SMOOTH",
"263 458 OFFCURVE",
"272 470 OFFCURVE",
"272 485 CURVE SMOOTH",
"272 509 OFFCURVE",
"248 518 OFFCURVE",
"224 500 CURVE SMOOTH"
);
}
);
width = 667;
},
{
associatedMasterId = "2B556C7D-ACF4-4058-9F01-0A4D9389EAED";
layerId = "068A2BE3-D327-4462-A800-68E0A91B32E3";
name = "Regular Oct 13 16, 17:07";
paths = (
{
closed = 1;
nodes = (
"8 717 OFFCURVE",
"-28 663 OFFCURVE",
"29 641 CURVE SMOOTH",
"112 609 OFFCURVE",
"371 555 OFFCURVE",
"584 617 CURVE SMOOTH",
"695 649 OFFCURVE",
"679 739 OFFCURVE",
"629 768 CURVE SMOOTH",
"597 786 OFFCURVE",
"537 792 OFFCURVE",
"476 770 CURVE SMOOTH",
"359 728 OFFCURVE",
"291 635 OFFCURVE",
"245 497 CURVE SMOOTH",
"195 347 OFFCURVE",
"162 117 OFFCURVE",
"162 13 CURVE SMOOTH",
"162 -21 OFFCURVE",
"225 -42 OFFCURVE",
"229 16 CURVE SMOOTH",
"241 177 OFFCURVE",
"279 686 OFFCURVE",
"530 720 CURVE SMOOTH",
"572 726 OFFCURVE",
"608 722 OFFCURVE",
"598 698 CURVE SMOOTH",
"581 657 OFFCURVE",
"343 611 OFFCURVE",
"60 700 CURVE SMOOTH"
);
}
);
width = 667;
},
{
layerId = "2B556C7D-ACF4-4058-9F01-0A4D9389EAED";
name = Regular;
paths = (
{
closed = 1;
nodes = (
"348 483 OFFCURVE",
"311 225 OFFCURVE",
"281 42 CURVE SMOOTH",
"276 14 OFFCURVE",
"293 1 OFFCURVE",
"311 1 CURVE SMOOTH",
"324 1 OFFCURVE",
"338 9 OFFCURVE",
"342 32 CURVE SMOOTH",
"377 234 OFFCURVE",
"427 561 OFFCURVE",
"438 632 CURVE SMOOTH",
"442 658 OFFCURVE",
"386 680 OFFCURVE",
"379 644 CURVE SMOOTH"
);
},
{
closed = 1;
nodes = (
"175 451 OFFCURVE",
"62 433 OFFCURVE",
"62 509 CURVE SMOOTH",
"62 571 OFFCURVE",
"137 599 OFFCURVE",
"260 605 CURVE SMOOTH",
"346 610 OFFCURVE",
"518 609 OFFCURVE",
"663 614 CURVE SMOOTH",
"687 615 OFFCURVE",
"699 630 OFFCURVE",
"699 644 CURVE SMOOTH",
"699 664 OFFCURVE",
"684 673 OFFCURVE",
"659 672 CURVE SMOOTH",
"524 666 OFFCURVE",
"277 663 OFFCURVE",
"217 657 CURVE SMOOTH",
"95 647 OFFCURVE",
"1 601 OFFCURVE",
"0 507 CURVE SMOOTH",
"-2 359 OFFCURVE",
"185 390 OFFCURVE",
"248 434 CURVE SMOOTH",
"265 446 OFFCURVE",
"274 458 OFFCURVE",
"274 473 CURVE SMOOTH",
"274 497 OFFCURVE",
"250 506 OFFCURVE",
"226 488 CURVE SMOOTH"
);
}
);
width = 589;
}
);
unicode = 0054;
},
{
color = 11;
glyphname = U;
lastChange = "2016-10-14 10:59:41 +0000";
layers = (
{
associatedMasterId = "2B556C7D-ACF4-4058-9F01-0A4D9389EAED";
layerId = "74FD58FB-AFB4-43DC-BF96-18864B3E6551";
name = "Regular Aug 5 16, 12:29";
paths = (
{
closed = 1;
nodes = (
"191 783 OFFCURVE",
"129 804 OFFCURVE",
"119 757 CURVE SMOOTH",
"78 559 OFFCURVE",
"-23 73 OFFCURVE",
"61 4 CURVE SMOOTH",
"102 -30 OFFCURVE",
"154 -11 OFFCURVE",
"180 18 CURVE SMOOTH",
"267 114 OFFCURVE",
"358 455 OFFCURVE",
"412 649 CURVE SMOOTH",
"412 649 OFFCURVE",
"421 666 OFFCURVE",
"419 667 CURVE SMOOTH",
"414 671 OFFCURVE",
"392 669 OFFCURVE",
"392 669 CURVE SMOOTH",
"337 378 OFFCURVE",
"263 0 OFFCURVE",
"406 -2 CURVE SMOOTH",
"455 -3 OFFCURVE",
"534 37 OFFCURVE",
"602 293 CURVE SMOOTH",
"611 327 OFFCURVE",
"563 334 OFFCURVE",
"560 325 CURVE SMOOTH",
"514 169 OFFCURVE",
"454 44 OFFCURVE",
"412 49 CURVE SMOOTH",
"356 55 OFFCURVE",
"393 422 OFFCURVE",
"444 649 CURVE SMOOTH",
"458 711 OFFCURVE",
"386 718 OFFCURVE",
"374 678 CURVE SMOOTH",
"318 498 OFFCURVE",
"227 189 OFFCURVE",
"150 66 CURVE SMOOTH",
"133 39 OFFCURVE",
"122 36 OFFCURVE",
"109 42 CURVE SMOOTH",
"54 66 OFFCURVE",
"128 484 OFFCURVE",
"184 749 CURVE SMOOTH"
);
}
);
width = 553;
},
{
associatedMasterId = "2B556C7D-ACF4-4058-9F01-0A4D9389EAED";
layerId = "4EE5C1E3-2A9F-4705-B4D8-633D5105CF06";
name = "Regular Oct 13 16, 17:11";
paths = (
{
closed = 1;
nodes = (
"294 217 OFFCURVE",
"277 2 OFFCURVE",
"387 1 CURVE SMOOTH",
"428 0 OFFCURVE",
"519 17 OFFCURVE",
"587 227 CURVE SMOOTH",
"597 257 OFFCURVE",
"578 271 OFFCURVE",
"562 271 CURVE SMOOTH",
"550 271 OFFCURVE",
"539 261 OFFCURVE",
"535 250 CURVE SMOOTH",
"477 97 OFFCURVE",
"425 58 OFFCURVE",
"392 58 CURVE SMOOTH",
"347 58 OFFCURVE",
"359 316 OFFCURVE",
"409 625 CURVE SMOOTH",
"414 657 OFFCURVE",
"403 672 OFFCURVE",
"382 672 CURVE SMOOTH",
"366 672 OFFCURVE",
"353 660 OFFCURVE",
"348 643 CURVE SMOOTH",
"254 300 OFFCURVE",
"158 60 OFFCURVE",
"88 60 CURVE SMOOTH",
"70 60 OFFCURVE",
"63 92 OFFCURVE",
"63 128 CURVE SMOOTH",
"63 235 OFFCURVE",
"110 467 OFFCURVE",
"158 650 CURVE SMOOTH",
"163 671 OFFCURVE",
"150 691 OFFCURVE",
"130 691 CURVE SMOOTH",
"117 691 OFFCURVE",
"101 682 OFFCURVE",
"96 662 CURVE SMOOTH",
"57 513 OFFCURVE",
"2 275 OFFCURVE",
"2 142 CURVE SMOOTH",
"2 76 OFFCURVE",
"14 2 OFFCURVE",
"94 2 CURVE SMOOTH",
"190 2 OFFCURVE",
"265 191 OFFCURVE",
"325 380 CURVE",
"319 405 LINE"
);
}
);
width = 588;
},
{
associatedMasterId = "2B556C7D-ACF4-4058-9F01-0A4D9389EAED";
layerId = "8AC46E5B-C5D0-4E3A-9D44-8423D04D96B6";
name = "Regular Oct 13 16, 17:27";
paths = (
{
closed = 1;
nodes = (
"189 740 OFFCURVE",
"130 764 OFFCURVE",
"115 715 CURVE SMOOTH",
"67 551 OFFCURVE",
"-6 185 OFFCURVE",
"32 48 CURVE SMOOTH",
"42 5 OFFCURVE",
"79 -13 OFFCURVE",
"115 -13 CURVE SMOOTH",
"253 -13 OFFCURVE",
"344 389 OFFCURVE",
"409 633 CURVE SMOOTH",
"409 633 OFFCURVE",
"418 650 OFFCURVE",
"416 651 CURVE SMOOTH",
"411 655 OFFCURVE",
"383 670 OFFCURVE",
"383 669 CURVE SMOOTH",
"331 392 OFFCURVE",
"254 -4 OFFCURVE",
"406 -6 CURVE SMOOTH",
"455 -7 OFFCURVE",
"539 37 OFFCURVE",
"607 293 CURVE SMOOTH",
"621 347 OFFCURVE",
"565 350 OFFCURVE",
"557 325 CURVE SMOOTH",
"511 169 OFFCURVE",
"454 49 OFFCURVE",
"412 54 CURVE SMOOTH",
"351 61 OFFCURVE",
"387 420 OFFCURVE",
"439 649 CURVE SMOOTH",
"453 711 OFFCURVE",
"377 716 OFFCURVE",
"367 676 CURVE SMOOTH",
"305 437 OFFCURVE",
"178 39 OFFCURVE",
"109 50 CURVE SMOOTH",
"57 58 OFFCURVE",
"114 453 OFFCURVE",
"180 704 CURVE SMOOTH"
);
}
);
width = 553;
},
{
associatedMasterId = "2B556C7D-ACF4-4058-9F01-0A4D9389EAED";
layerId = "4349C63A-F659-46DD-8184-DD78F42C8283";
name = "Regular Oct 13 16, 17:32";
paths = (
{
closed = 1;
nodes = (
"307 313 OFFCURVE",
"291 216 OFFCURVE",
"291 139 CURVE SMOOTH",
"291 58 OFFCURVE",
"309 3 OFFCURVE",
"374 1 CURVE SMOOTH",
"406 -1 OFFCURVE",
"519 24 OFFCURVE",
"587 227 CURVE SMOOTH",
"597 257 OFFCURVE",
"578 271 OFFCURVE",
"562 271 CURVE SMOOTH",
"550 271 OFFCURVE",
"539 261 OFFCURVE",
"535 250 CURVE SMOOTH",
"477 97 OFFCURVE",
"409 58 OFFCURVE",
"386 58 CURVE SMOOTH",
"357 58 OFFCURVE",
"351 81 OFFCURVE",
"351 120 CURVE SMOOTH",
"351 215 OFFCURVE",
"383 439 OFFCURVE",
"418 625 CURVE SMOOTH",
"424 657 OFFCURVE",
"412 672 OFFCURVE",
"391 672 CURVE SMOOTH",
"375 672 OFFCURVE",
"362 660 OFFCURVE",
"357 643 CURVE SMOOTH",
"263 300 OFFCURVE",
"158 60 OFFCURVE",
"88 60 CURVE SMOOTH",
"70 60 OFFCURVE",
"54 71 OFFCURVE",
"69 185 CURVE SMOOTH",
"92 357 OFFCURVE",
"137 552 OFFCURVE",
"158 650 CURVE SMOOTH",
"162 671 OFFCURVE",
"150 691 OFFCURVE",
"130 691 CURVE SMOOTH",
"117 691 OFFCURVE",
"101 683 OFFCURVE",
"97 663 CURVE SMOOTH",
"57 476 OFFCURVE",
"11 260 OFFCURVE",
"2 142 CURVE SMOOTH",
"-4 62 OFFCURVE",
"14 2 OFFCURVE",
"88 2 CURVE SMOOTH",
"194 2 OFFCURVE",
"272 191 OFFCURVE",
"332 380 CURVE",
"319 405 LINE"
);
}
);
width = 588;
},
{
layerId = "2B556C7D-ACF4-4058-9F01-0A4D9389EAED";
name = Regular;
paths = (
{
closed = 1;
nodes = (
"307 313 OFFCURVE",
"291 216 OFFCURVE",
"291 109 CURVE SMOOTH",
"291 58 OFFCURVE",
"309 3 OFFCURVE",
"374 1 CURVE SMOOTH",
"406 -1 OFFCURVE",
"519 24 OFFCURVE",
"587 227 CURVE SMOOTH",
"597 257 OFFCURVE",
"578 271 OFFCURVE",
"562 271 CURVE SMOOTH",
"550 271 OFFCURVE",
"539 261 OFFCURVE",
"535 250 CURVE SMOOTH",
"477 97 OFFCURVE",
"409 58 OFFCURVE",
"386 58 CURVE SMOOTH",
"357 58 OFFCURVE",
"351 81 OFFCURVE",
"351 120 CURVE SMOOTH",
"351 215 OFFCURVE",
"383 439 OFFCURVE",
"418 625 CURVE SMOOTH",
"424 657 OFFCURVE",
"412 672 OFFCURVE",
"391 672 CURVE SMOOTH",
"375 672 OFFCURVE",
"361 660 OFFCURVE",
"357 643 CURVE SMOOTH",
"270 312 OFFCURVE",
"161 58 OFFCURVE",
"107 58 CURVE SMOOTH",
"89 58 OFFCURVE",
"73 62 OFFCURVE",
"88 183 CURVE SMOOTH",
"109 355 OFFCURVE",
"142 552 OFFCURVE",
"158 650 CURVE SMOOTH",
"162 671 OFFCURVE",
"150 691 OFFCURVE",
"130 691 CURVE SMOOTH",
"117 691 OFFCURVE",
"101 683 OFFCURVE",
"97 663 CURVE SMOOTH",
"65 475 OFFCURVE",
"29 258 OFFCURVE",
"21 140 CURVE SMOOTH",
"15 60 OFFCURVE",
"33 0 OFFCURVE",
"107 0 CURVE SMOOTH",
"205 0 OFFCURVE",
"277 190 OFFCURVE",
"332 380 CURVE",
"319 405 LINE"
);
}
);
width = 555;
}
);
unicode = 0055;
},
{
color = 11;
glyphname = V;
lastChange = "2016-10-14 11:06:36 +0000";
layers = (
{
associatedMasterId = "2B556C7D-ACF4-4058-9F01-0A4D9389EAED";
layerId = "4764487F-2D2D-4296-94D9-D170E6025FDA";
name = "Regular Aug 5 16, 12:33";
paths = (
{
closed = 1;
nodes = (
"134 635 OFFCURVE",
"78 658 OFFCURVE",
"60 594 CURVE SMOOTH",
"14 429 OFFCURVE",
"-71 0 OFFCURVE",
"81 0 CURVE SMOOTH",
"209 0 OFFCURVE",
"379 391 OFFCURVE",
"392 645 CURVE SMOOTH",
"398 766 OFFCURVE",
"335 775 OFFCURVE",
"313 776 CURVE SMOOTH",
"214 776 OFFCURVE",
"170 583 OFFCURVE",
"270 521 CURVE SMOOTH",
"310 496 OFFCURVE",
"412 482 OFFCURVE",
"503 494 CURVE SMOOTH",
"556 501 OFFCURVE",
"553 549 OFFCURVE",
"532 549 CURVE SMOOTH",
"513 549 OFFCURVE",
"342 524 OFFCURVE",
"289 577 CURVE SMOOTH",
"244 622 OFFCURVE",
"276 733 OFFCURVE",
"312 725 CURVE SMOOTH",
"358 715 OFFCURVE",
"331 555 OFFCURVE",
"275 391 CURVE SMOOTH",
"217 224 OFFCURVE",
"130 54 OFFCURVE",
"85 54 CURVE SMOOTH",
"44 54 OFFCURVE",
"42 255 OFFCURVE",
"119 572 CURVE SMOOTH"
);
}
);
width = 451;
},
{
associatedMasterId = "2B556C7D-ACF4-4058-9F01-0A4D9389EAED";
layerId = "C4F76150-91B1-4985-885C-5E4D34E2A588";
name = "Regular Oct 13 16, 17:40";
paths = (
{
closed = 1;
nodes = (
"132 626 OFFCURVE",
"75 647 OFFCURVE",
"60 594 CURVE SMOOTH",
"14 429 OFFCURVE",
"-43 0 OFFCURVE",
"109 0 CURVE SMOOTH",
"231 0 OFFCURVE",
"386 399 OFFCURVE",
"399 641 CURVE SMOOTH",
"405 762 OFFCURVE",
"335 775 OFFCURVE",
"313 776 CURVE SMOOTH",
"210 776 OFFCURVE",
"162 581 OFFCURVE",
"266 517 CURVE SMOOTH",
"306 492 OFFCURVE",
"417 477 OFFCURVE",
"508 489 CURVE SMOOTH",
"570 497 OFFCURVE",
"562 557 OFFCURVE",
"532 549 CURVE SMOOTH",
"503 541 OFFCURVE",
"342 521 OFFCURVE",
"289 574 CURVE SMOOTH",
"244 619 OFFCURVE",
"275 727 OFFCURVE",
"313 719 CURVE SMOOTH",
"411 698 OFFCURVE",
"205 63 OFFCURVE",
"113 63 CURVE SMOOTH",
"72 63 OFFCURVE",
"39 241 OFFCURVE",
"119 572 CURVE SMOOTH"
);
}
);
width = 451;
},
{
layerId = "2B556C7D-ACF4-4058-9F01-0A4D9389EAED";
name = Regular;
paths = (
{
closed = 1;
nodes = (
"123 567 OFFCURVE",
"65 588 OFFCURVE",
"52 535 CURVE SMOOTH",
"33 459 OFFCURVE",
"0 306 OFFCURVE",
"0 162 CURVE SMOOTH",
"0 77 OFFCURVE",
"24 0 OFFCURVE",
"92 0 CURVE SMOOTH",
"163 0 OFFCURVE",
"229 94 OFFCURVE",
"277 197 CURVE SMOOTH",
"346 342 OFFCURVE",
"384 496 OFFCURVE",
"385 570 CURVE SMOOTH",
"385 676 OFFCURVE",
"324 688 OFFCURVE",
"296 688 CURVE SMOOTH",
"233 688 OFFCURVE",
"189 626 OFFCURVE",
"189 563 CURVE SMOOTH",
"189 452 OFFCURVE",
"269 424 OFFCURVE",
"420 424 CURVE SMOOTH",
"443 424 OFFCURVE",
"467 425 OFFCURVE",
"491 428 CURVE SMOOTH",
"560 437 OFFCURVE",
"529 491 OFFCURVE",
"494 486 CURVE SMOOTH",
"477 484 OFFCURVE",
"447 481 OFFCURVE",
"414 481 CURVE SMOOTH",
"317 481 OFFCURVE",
"251 491 OFFCURVE",
"251 559 CURVE SMOOTH",
"251 602 OFFCURVE",
"271 631 OFFCURVE",
"296 631 CURVE SMOOTH",
"315 631 OFFCURVE",
"323 608 OFFCURVE",
"323 576 CURVE SMOOTH",
"323 502 OFFCURVE",
"278 348 OFFCURVE",
"223 229 CURVE SMOOTH",
"179 133 OFFCURVE",
"131 58 OFFCURVE",
"96 58 CURVE SMOOTH",
"75 58 OFFCURVE",
"61 90 OFFCURVE",
"61 165 CURVE SMOOTH",
"61 238 OFFCURVE",
"74 350 OFFCURVE",
"111 513 CURVE SMOOTH"
);
}
);
width = 455;
}
);
unicode = 0056;
},
{
color = 11;
glyphname = W;
lastChange = "2016-10-14 11:14:46 +0000";
layers = (
{
associatedMasterId = "2B556C7D-ACF4-4058-9F01-0A4D9389EAED";
layerId = "3E1951ED-B4E7-424A-BECF-B7AC3AC58382";
name = "Regular Aug 5 16, 13:13";
paths = (
{
closed = 1;
nodes = (
"231 391 OFFCURVE",
"67 286 CURVE SMOOTH",
"25 259 OFFCURVE",
"41 225 OFFCURVE",
"67 226 CURVE SMOOTH",
"112 227 OFFCURVE",
"254 347 OFFCURVE",
"296 497 CURVE SMOOTH",
"323 593 OFFCURVE",
"291 612 OFFCURVE",
"278 612 CURVE SMOOTH",
"237 612 OFFCURVE",
"229 573 OFFCURVE",
"228 570 CURVE SMOOTH",
"169 366 OFFCURVE",
"160 114 OFFCURVE",
"214 31 CURVE SMOOTH",
"235 -2 OFFCURVE",
"296 -22 OFFCURVE",
"347 13 CURVE SMOOTH",
"473 101 OFFCURVE",
"519 383 OFFCURVE",
"519 485 CURVE SMOOTH",
"519 536 OFFCURVE",
"459 552 OFFCURVE",
"446 487 CURVE SMOOTH",
"416 337 OFFCURVE",
"420 119 OFFCURVE",
"494 22 CURVE SMOOTH",
"523 -16 OFFCURVE",
"604 -40 OFFCURVE",
"659 28 CURVE SMOOTH",
"743 132 OFFCURVE",
"805 447 OFFCURVE",
"789 646 CURVE SMOOTH",
"785 697 OFFCURVE",
"768 785 OFFCURVE",
"687 785 CURVE SMOOTH",
"579 785 OFFCURVE",
"545 584 OFFCURVE",
"596 494 CURVE SMOOTH",
"654 392 OFFCURVE",
"816 396 OFFCURVE",
"894 420 CURVE SMOOTH",
"959 440 OFFCURVE",
"928 484 OFFCURVE",
"923 483 CURVE SMOOTH",
"748 434 OFFCURVE",
"680 485 OFFCURVE",
"655 520 CURVE SMOOTH",
"611 582 OFFCURVE",
"633 730 OFFCURVE",
"691 730 CURVE SMOOTH",
"773 730 OFFCURVE",
"695 44 OFFCURVE",
"572 44 CURVE SMOOTH",
"517 44 OFFCURVE",
"486 203 OFFCURVE",
"505 437 CURVE SMOOTH",
"509 489 OFFCURVE",
"463 503 OFFCURVE",
"457 450 CURVE SMOOTH",
"420 119 OFFCURVE",
"319 51 OFFCURVE",
"288 51 CURVE SMOOTH",
"245 51 OFFCURVE",
"213 176 OFFCURVE",
"280 550 CURVE SMOOTH",
"282 560 OFFCURVE"
);
}
);
width = 872;
},
{
associatedMasterId = "2B556C7D-ACF4-4058-9F01-0A4D9389EAED";
layerId = "2AB8DF51-5FDC-4782-BA0F-52C791A56D94";
name = "Regular Oct 13 16, 17:41";
paths = (
{
closed = 1;
nodes = (
"399 58 OFFCURVE",
"444 -17 OFFCURVE",
"512 -10 CURVE SMOOTH",
"666 5 OFFCURVE",
"768 328 OFFCURVE",
"751 559 CURVE SMOOTH",
"747 610 OFFCURVE",
"722 691 OFFCURVE",
"641 691 CURVE SMOOTH",
"522 691 OFFCURVE",
"489 518 OFFCURVE",
"559 413 CURVE SMOOTH",
"618 324 OFFCURVE",
"766 328 OFFCURVE",
"873 345 CURVE SMOOTH",
"943 357 OFFCURVE",
"925 415 OFFCURVE",
"901 410 CURVE SMOOTH",
"779 384 OFFCURVE",
"624 381 OFFCURVE",
"594 491 CURVE SMOOTH",
"575 560 OFFCURVE",
"592 644 OFFCURVE",
"647 634 CURVE SMOOTH",
"750 616 OFFCURVE",
"650 87 OFFCURVE",
"513 53 CURVE SMOOTH",
"475 43 OFFCURVE",
"429 141 OFFCURVE",
"486 441 CURVE SMOOTH",
"492 470 OFFCURVE",
"474 485 OFFCURVE",
"456 485 CURVE SMOOTH",
"438 485 OFFCURVE",
"421 470 OFFCURVE",
"417 441 CURVE SMOOTH",
"369 108 OFFCURVE",
"278 40 OFFCURVE",
"247 40 CURVE SMOOTH",
"201 40 OFFCURVE",
"185 190 OFFCURVE",
"257 553 CURVE SMOOTH",
"259 563 OFFCURVE",
"209 373 OFFCURVE",
"25 285 CURVE SMOOTH",
"-19 264 OFFCURVE",
"3 225 OFFCURVE",
"29 226 CURVE SMOOTH",
"74 227 OFFCURVE",
"234 325 OFFCURVE",
"276 475 CURVE SMOOTH",
"303 571 OFFCURVE",
"269 590 OFFCURVE",
"256 593 CURVE SMOOTH",
"218 604 OFFCURVE",
"206 553 OFFCURVE",
"204 549 CURVE SMOOTH",
"145 345 OFFCURVE",
"117 105 OFFCURVE",
"171 22 CURVE SMOOTH",
"192 -11 OFFCURVE",
"252 -31 OFFCURVE",
"305 3 CURVE SMOOTH",
"351 32 OFFCURVE",
"384 78 OFFCURVE",
"410 145 CURVE",
"399 148 LINE"
);
}
);
width = 862;
},
{
layerId = "2B556C7D-ACF4-4058-9F01-0A4D9389EAED";
name = Regular;
paths = (
{
closed = 1;
nodes = (
"95 427 OFFCURVE",
"123 533 CURVE SMOOTH",
"135 578 OFFCURVE",
"117 589 OFFCURVE",
"100 589 CURVE SMOOTH",
"70 589 OFFCURVE",
"65 553 OFFCURVE",
"63 549 CURVE SMOOTH",
"26 421 OFFCURVE",
"0 278 OFFCURVE",
"0 168 CURVE SMOOTH",
"0 81 OFFCURVE",
"19 -2 OFFCURVE",
"105 -2 CURVE SMOOTH",
"182 -2 OFFCURVE",
"240 100 OFFCURVE",
"269 198 CURVE",
"258 201 LINE",
"252 81 OFFCURVE",
"301 1 OFFCURVE",
"369 1 CURVE SMOOTH",
"523 1 OFFCURVE",
"593 358 OFFCURVE",
"593 496 CURVE SMOOTH",
"593 598 OFFCURVE",
"569 689 OFFCURVE",
"487 689 CURVE SMOOTH",
"410 689 OFFCURVE",
"372 624 OFFCURVE",
"373 548 CURVE SMOOTH",
"374 444 OFFCURVE",
"453 408 OFFCURVE",
"558 408 CURVE SMOOTH",
"613 407 OFFCURVE",
"703 411 OFFCURVE",
"740 418 CURVE SMOOTH",
"768 423 OFFCURVE",
"777 437 OFFCURVE",
"777 449 CURVE SMOOTH",
"778 475 OFFCURVE",
"756 480 OFFCURVE",
"742 478 CURVE SMOOTH",
"688 472 OFFCURVE",
"623 467 OFFCURVE",
"572 467 CURVE SMOOTH",
"499 467 OFFCURVE",
"436 474 OFFCURVE",
"436 556 CURVE SMOOTH",
"436 603 OFFCURVE",
"459 631 OFFCURVE",
"484 631 CURVE SMOOTH",
"521 631 OFFCURVE",
"530 565 OFFCURVE",
"530 509 CURVE SMOOTH",
"530 336 OFFCURVE",
"450 59 OFFCURVE",
"372 59 CURVE SMOOTH",
"333 59 OFFCURVE",
"283 137 OFFCURVE",
"340 437 CURVE SMOOTH",
"346 466 OFFCURVE",
"333 485 OFFCURVE",
"315 485 CURVE SMOOTH",
"297 485 OFFCURVE",
"283 474 OFFCURVE",
"277 447 CURVE SMOOTH",
"208 113 OFFCURVE",
"137 56 OFFCURVE",
"106 56 CURVE SMOOTH",
"79 56 OFFCURVE",
"63 87 OFFCURVE",
"63 149 CURVE SMOOTH",
"63 298 OFFCURVE"
);
}
);
width = 692;
}
);
unicode = 0057;
},
{
color = 11;
glyphname = X;
lastChange = "2016-10-13 16:40:52 +0000";
layers = (
{
associatedMasterId = "2B556C7D-ACF4-4058-9F01-0A4D9389EAED";
layerId = "08467FD3-08CB-4E8A-B1A8-F7DAF07781C3";
name = "Regular Oct 13 16, 18:40";
paths = (
{
closed = 1;
nodes = (
"361 -35 OFFCURVE",
"422 -15 OFFCURVE",
"398 37 CURVE SMOOTH",
"316 212 OFFCURVE",
"198 469 OFFCURVE",
"121 649 CURVE SMOOTH",
"97 706 OFFCURVE",
"41 663 OFFCURVE",
"58 622 CURVE SMOOTH",
"136 436 OFFCURVE",
"271 137 OFFCURVE",
"343 0 CURVE SMOOTH"
);
},
{
closed = 1;
nodes = (
"-11 -36 OFFCURVE",
"50 -56 OFFCURVE",
"74 -14 CURVE SMOOTH",
"202 213 OFFCURVE",
"330 445 OFFCURVE",
"454 660 CURVE SMOOTH",
"480 705 OFFCURVE",
"423 743 OFFCURVE",
"398 700 CURVE SMOOTH",
"208 372 OFFCURVE",
"119 196 OFFCURVE",
"17 13 CURVE SMOOTH"
);
}
);
width = 438;
},
{
layerId = "2B556C7D-ACF4-4058-9F01-0A4D9389EAED";
name = Regular;
paths = (
{
closed = 1;
nodes = (
"340 7 OFFCURVE",
"350 1 OFFCURVE",
"362 1 CURVE SMOOTH",
"383 1 OFFCURVE",
"403 21 OFFCURVE",
"386 55 CURVE SMOOTH",
"337 151 OFFCURVE",
"288 253 OFFCURVE",
"240 355 CURVE SMOOTH",
"194 454 OFFCURVE",
"150 554 OFFCURVE",
"111 649 CURVE SMOOTH",
"103 669 OFFCURVE",
"93 676 OFFCURVE",
"77 676 CURVE SMOOTH",
"55 676 OFFCURVE",
"40 652 OFFCURVE",
"51 625 CURVE SMOOTH",
"88 533 OFFCURVE",
"140 419 OFFCURVE",
"190 312 CURVE SMOOTH",
"248 188 OFFCURVE",
"302 74 OFFCURVE",
"333 19 CURVE SMOOTH"
);
},
{
closed = 1;
nodes = (
"-11 13 OFFCURVE",
"6 -8 OFFCURVE",
"27 -8 CURVE SMOOTH",
"40 -8 OFFCURVE",
"52 -2 OFFCURVE",
"61 14 CURVE SMOOTH",
"189 241 OFFCURVE",
"300 417 OFFCURVE",
"424 632 CURVE SMOOTH",
"442 663 OFFCURVE",
"427 689 OFFCURVE",
"404 689 CURVE SMOOTH",
"394 689 OFFCURVE",
"380 683 OFFCURVE",
"372 670 CURVE SMOOTH",
"182 342 OFFCURVE",
"107 228 OFFCURVE",
"6 44 CURVE SMOOTH"
);
}
);
width = 435;
}
);
unicode = 0058;
},
{
color = 11;
glyphname = Y;
lastChange = "2016-10-13 23:12:17 +0000";
layers = (
{
associatedMasterId = "2B556C7D-ACF4-4058-9F01-0A4D9389EAED";
layerId = "30C777AB-8F5B-4CB5-A990-DA115806C3FE";
name = "Regular Aug 5 16, 12:36";
paths = (
{
closed = 1;
nodes = (
"317 456 OFFCURVE",
"223 -82 OFFCURVE",
"223 -121 CURVE SMOOTH",
"223 -159 OFFCURVE",
"272 -172 OFFCURVE",
"283 -121 CURVE SMOOTH",
"283 -121 OFFCURVE",
"334 261 OFFCURVE",
"442 653 CURVE SMOOTH",
"455 700 OFFCURVE",
"399 731 OFFCURVE",
"386 687 CURVE SMOOTH"
);
},
{
closed = 1;
nodes = (
"196 783 OFFCURVE",
"135 812 OFFCURVE",
"119 752 CURVE SMOOTH",
"76 591 OFFCURVE",
"1 208 OFFCURVE",
"41 137 CURVE SMOOTH",
"67 91 OFFCURVE",
"130 82 OFFCURVE",
"175 126 CURVE SMOOTH",
"252 202 OFFCURVE",
"350 454 OFFCURVE",
"418 647 CURVE SMOOTH",
"418 647 OFFCURVE",
"418 661 OFFCURVE",
"412 669 CURVE SMOOTH",
"406 676 OFFCURVE",
"387 687 OFFCURVE",
"383 677 CURVE SMOOTH",
"295 445 OFFCURVE",
"163 148 OFFCURVE",
"107 154 CURVE SMOOTH",
"66 158 OFFCURVE",
"109 426 OFFCURVE",
"183 730 CURVE SMOOTH"
);
}
);
width = 479;
},
{
associatedMasterId = "2B556C7D-ACF4-4058-9F01-0A4D9389EAED";
layerId = "DA7EDAE0-BEB9-4C7E-9603-50042EE0B93E";
name = "Regular Oct 13 16, 18:56";
paths = (
{
closed = 1;
nodes = (
"329 398 OFFCURVE",
"241 -95 OFFCURVE",
"241 -134 CURVE SMOOTH",
"241 -172 OFFCURVE",
"290 -185 OFFCURVE",
"301 -134 CURVE SMOOTH",
"301 -134 OFFCURVE",
"352 217 OFFCURVE",
"460 609 CURVE SMOOTH",
"472 653 OFFCURVE",
"410 670 OFFCURVE",
"398 629 CURVE SMOOTH"
);
},
{
closed = 1;
nodes = (
"200 697 OFFCURVE",
"142 716 OFFCURVE",
"128 664 CURVE SMOOTH",
"85 503 OFFCURVE",
"16 160 OFFCURVE",
"60 81 CURVE SMOOTH",
"71 62 OFFCURVE",
"90 46 OFFCURVE",
"111 42 CURVE SMOOTH",
"239 19 OFFCURVE",
"354 346 OFFCURVE",
"436 589 CURVE SMOOTH",
"436 589 OFFCURVE",
"436 603 OFFCURVE",
"430 611 CURVE SMOOTH",
"424 618 OFFCURVE",
"400 628 OFFCURVE",
"396 618 CURVE SMOOTH",
"308 375 OFFCURVE",
"182 90 OFFCURVE",
"126 96 CURVE SMOOTH",
"85 100 OFFCURVE",
"115 357 OFFCURVE",
"189 652 CURVE SMOOTH"
);
}
);
width = 479;
},
{
layerId = "2B556C7D-ACF4-4058-9F01-0A4D9389EAED";
name = Regular;
paths = (
{
closed = 1;
nodes = (
"285 153 OFFCURVE",
"260 17 OFFCURVE",
"248 -59 CURVE SMOOTH",
"240 -104 OFFCURVE",
"232 -150 OFFCURVE",
"201 -150 CURVE SMOOTH",
"187 -150 OFFCURVE",
"179 -132 OFFCURVE",
"179 -117 CURVE SMOOTH",
"179 -57 OFFCURVE",
"229 -4 OFFCURVE",
"306 34 CURVE SMOOTH",
"357 60 OFFCURVE",
"419 71 OFFCURVE",
"488 71 CURVE SMOOTH",
"517 71 OFFCURVE",
"525 87 OFFCURVE",
"525 100 CURVE SMOOTH",
"525 115 OFFCURVE",
"514 128 OFFCURVE",
"489 129 CURVE SMOOTH",
"407 132 OFFCURVE",
"339 116 OFFCURVE",
"284 89 CURVE SMOOTH",
"171 36 OFFCURVE",
"115 -48 OFFCURVE",
"115 -113 CURVE SMOOTH",
"115 -178 OFFCURVE",
"146 -208 OFFCURVE",
"197 -208 CURVE SMOOTH",
"245 -208 OFFCURVE",
"292 -175 OFFCURVE",
"306 -96 CURVE SMOOTH",
"325 12 OFFCURVE",
"370 317 OFFCURVE",
"456 630 CURVE SMOOTH",
"464 660 OFFCURVE",
"445 680 OFFCURVE",
"426 680 CURVE SMOOTH",
"413 680 OFFCURVE",
"400 670 OFFCURVE",
"393 648 CURVE SMOOTH",
"305 359 OFFCURVE",
"195 96 OFFCURVE",
"139 96 CURVE SMOOTH",
"124 96 OFFCURVE",
"117 126 OFFCURVE",
"117 165 CURVE SMOOTH",
"117 261 OFFCURVE",
"141 423 OFFCURVE",
"189 613 CURVE SMOOTH",
"200 658 OFFCURVE",
"142 677 OFFCURVE",
"128 625 CURVE SMOOTH",
"96 505 OFFCURVE",
"54 314 OFFCURVE",
"54 167 CURVE SMOOTH",
"54 72 OFFCURVE",
"87 41 OFFCURVE",
"136 41 CURVE SMOOTH",
"204 41 OFFCURVE",
"266 138 OFFCURVE",
"320 275 CURVE",
"310 282 LINE"
);
}
);
width = 479;
}
);
unicode = 0059;
},
{
color = 11;
glyphname = Z;
lastChange = "2016-10-14 10:58:01 +0000";
layers = (
{
layerId = "2B556C7D-ACF4-4058-9F01-0A4D9389EAED";
name = Regular;
paths = (
{
closed = 1;
nodes = (
"325 520 OFFCURVE",
"284 419 OFFCURVE",
"240 325 CURVE SMOOTH",
"154 142 OFFCURVE",
"118 58 OFFCURVE",
"87 58 CURVE SMOOTH",
"69 58 OFFCURVE",
"60 75 OFFCURVE",
"60 98 CURVE SMOOTH",
"60 124 OFFCURVE",
"72 149 OFFCURVE",
"94 149 CURVE SMOOTH",
"138 149 OFFCURVE",
"205 2 OFFCURVE",
"320 2 CURVE SMOOTH",
"401 2 OFFCURVE",
"485 134 OFFCURVE",
"514 241 CURVE SMOOTH",
"523 275 OFFCURVE",
"507 290 OFFCURVE",
"490 290 CURVE SMOOTH",
"477 290 OFFCURVE",
"466 281 OFFCURVE",
"462 269 CURVE SMOOTH",
"412 119 OFFCURVE",
"345 59 OFFCURVE",
"318 59 CURVE SMOOTH",
"258 59 OFFCURVE",
"173 208 OFFCURVE",
"96 208 CURVE SMOOTH",
"40 208 OFFCURVE",
"0 160 OFFCURVE",
"0 94 CURVE SMOOTH",
"0 33 OFFCURVE",
"42 1 OFFCURVE",
"84 1 CURVE SMOOTH",
"126 1 OFFCURVE",
"162 24 OFFCURVE",
"210 119 CURVE SMOOTH",
"265 227 OFFCURVE",
"380 480 OFFCURVE",
"430 607 CURVE SMOOTH",
"449 654 OFFCURVE",
"414 677 OFFCURVE",
"375 653 CURVE SMOOTH",
"332 626 OFFCURVE",
"260 594 OFFCURVE",
"199 594 CURVE SMOOTH",
"154 594 OFFCURVE",
"119 601 OFFCURVE",
"119 646 CURVE SMOOTH",
"119 675 OFFCURVE",
"106 683 OFFCURVE",
"91 683 CURVE SMOOTH",
"63 683 OFFCURVE",
"57 654 OFFCURVE",
"57 635 CURVE SMOOTH",
"57 549 OFFCURVE",
"146 537 OFFCURVE",
"197 537 CURVE SMOOTH",
"242 537 OFFCURVE",
"323 551 OFFCURVE",
"361 579 CURVE",
"356 591 LINE"
);
}
);
width = 487;
}
);
unicode = 005A;
},
{
color = 11;
glyphname = Zacute;
lastChange = "2016-10-13 20:21:59 +0000";
layers = (
{
layerId = "2B556C7D-ACF4-4058-9F01-0A4D9389EAED";
rightMetricsKey = Z;
name = Regular;
paths = (
{
closed = 1;
nodes = (
"239 734 OFFCURVE",
"229 710 OFFCURVE",
"214 675 CURVE SMOOTH",
"203 651 OFFCURVE",
"216 633 OFFCURVE",
"232 630 CURVE SMOOTH",
"244 628 OFFCURVE",
"259 634 OFFCURVE",
"267 650 CURVE SMOOTH",
"294 701 OFFCURVE",
"300 715 OFFCURVE",
"315 747 CURVE SMOOTH",
"326 771 OFFCURVE",
"313 792 OFFCURVE",
"294 795 CURVE SMOOTH",
"281 797 OFFCURVE",
"266 791 OFFCURVE",
"257 773 CURVE SMOOTH"
);
},
{
closed = 1;
nodes = (
"311 488 OFFCURVE",
"284 419 OFFCURVE",
"240 325 CURVE SMOOTH",
"154 142 OFFCURVE",
"118 58 OFFCURVE",
"87 58 CURVE SMOOTH",
"69 58 OFFCURVE",
"60 75 OFFCURVE",
"60 98 CURVE SMOOTH",
"60 124 OFFCURVE",
"72 149 OFFCURVE",
"94 149 CURVE SMOOTH",
"138 149 OFFCURVE",
"205 2 OFFCURVE",
"320 2 CURVE SMOOTH",
"401 2 OFFCURVE",
"467 99 OFFCURVE",
"496 193 CURVE SMOOTH",
"507 227 OFFCURVE",
"489 242 OFFCURVE",
"472 242 CURVE SMOOTH",
"459 242 OFFCURVE",
"449 233 OFFCURVE",
"444 221 CURVE SMOOTH",
"394 88 OFFCURVE",
"345 59 OFFCURVE",
"318 59 CURVE SMOOTH",
"258 59 OFFCURVE",
"173 208 OFFCURVE",
"96 208 CURVE SMOOTH",
"40 208 OFFCURVE",
"0 160 OFFCURVE",
"0 94 CURVE SMOOTH",
"0 33 OFFCURVE",
"42 1 OFFCURVE",
"84 1 CURVE SMOOTH",
"126 1 OFFCURVE",
"162 24 OFFCURVE",
"210 119 CURVE SMOOTH",
"265 227 OFFCURVE",
"366 448 OFFCURVE",
"416 575 CURVE SMOOTH",
"435 622 OFFCURVE",
"400 645 OFFCURVE",
"361 621 CURVE SMOOTH",
"318 594 OFFCURVE",
"246 562 OFFCURVE",
"185 562 CURVE SMOOTH",
"140 562 OFFCURVE",
"105 569 OFFCURVE",
"105 614 CURVE SMOOTH",
"105 643 OFFCURVE",
"92 651 OFFCURVE",
"77 651 CURVE SMOOTH",
"49 651 OFFCURVE",
"43 622 OFFCURVE",
"43 603 CURVE SMOOTH",
"43 517 OFFCURVE",
"132 505 OFFCURVE",
"183 505 CURVE SMOOTH",
"228 505 OFFCURVE",
"309 519 OFFCURVE",
"347 547 CURVE",
"342 559 LINE"
);
}
);
width = 499;
}
);
leftMetricsKey = Z;
rightMetricsKey = Z;
unicode = 0179;
},
{
color = 11;
glyphname = Zdotaccent;
lastChange = "2016-10-13 20:20:55 +0000";
layers = (
{
associatedMasterId = "2B556C7D-ACF4-4058-9F01-0A4D9389EAED";
layerId = "3ECC501D-765B-43F5-8ECB-D9A997CF9ADB";
name = "Regular Oct 13 16, 22:16";
paths = (
{
closed = 1;
nodes = (
"245 313 OFFCURVE",
"294 303 OFFCURVE",
"330 299 CURVE SMOOTH",
"368 294 OFFCURVE",
"377 338 OFFCURVE",
"337 347 CURVE SMOOTH",
"283 359 OFFCURVE",
"210 360 OFFCURVE",
"175 356 CURVE SMOOTH",
"142 352 OFFCURVE",
"144 307 OFFCURVE",
"180 309 CURVE SMOOTH"
);
},
{
closed = 1;
nodes = (
"61 514 OFFCURVE",
"148 494 OFFCURVE",
"216 500 CURVE SMOOTH",
"330 510 OFFCURVE",
"406 591 OFFCURVE",
"420 606 CURVE SMOOTH",
"465 653 OFFCURVE",
"399 702 OFFCURVE",
"367 646 CURVE SMOOTH",
"308 542 OFFCURVE",
"135 69 OFFCURVE",
"78 56 CURVE SMOOTH",
"37 46 OFFCURVE",
"65 203 OFFCURVE",
"104 159 CURVE SMOOTH",
"144 115 OFFCURVE",
"188 -44 OFFCURVE",
"279 -35 CURVE SMOOTH",
"379 -25 OFFCURVE",
"437 115 OFFCURVE",
"475 227 CURVE SMOOTH",
"495 286 OFFCURVE",
"441 292 OFFCURVE",
"430 259 CURVE SMOOTH",
"367 69 OFFCURVE",
"304 19 OFFCURVE",
"277 19 CURVE SMOOTH",
"223 19 OFFCURVE",
"168 228 OFFCURVE",
"94 228 CURVE SMOOTH",
"11 228 OFFCURVE",
"-31 31 OFFCURVE",
"44 3 CURVE SMOOTH",
"82 -11 OFFCURVE",
"138 12 OFFCURVE",
"188 110 CURVE SMOOTH",
"245 222 OFFCURVE",
"361 483 OFFCURVE",
"411 603 CURVE SMOOTH",
"433 656 OFFCURVE",
"407 653 OFFCURVE",
"376 644 CURVE SMOOTH",
"376 644 OFFCURVE",
"312 580 OFFCURVE",
"220 562 CURVE SMOOTH",
"179 554 OFFCURVE",
"129 556 OFFCURVE",
"138 636 CURVE SMOOTH",
"144 687 OFFCURVE",
"84 679 OFFCURVE",
"78 637 CURVE SMOOTH"
);
}
);
width = 448;
},
{
associatedMasterId = "2B556C7D-ACF4-4058-9F01-0A4D9389EAED";
layerId = "5CEE6C30-D5E0-4357-AF90-B2A3675B10FB";
rightMetricsKey = Z;
name = "Regular Oct 13 16, 22:20";
paths = (
{
closed = 1;
nodes = (
"325 520 OFFCURVE",
"284 419 OFFCURVE",
"240 325 CURVE SMOOTH",
"154 142 OFFCURVE",
"118 58 OFFCURVE",
"87 58 CURVE SMOOTH",
"69 58 OFFCURVE",
"60 75 OFFCURVE",
"60 98 CURVE SMOOTH",
"60 124 OFFCURVE",
"72 149 OFFCURVE",
"94 149 CURVE SMOOTH",
"138 149 OFFCURVE",
"205 2 OFFCURVE",
"320 2 CURVE SMOOTH",
"401 2 OFFCURVE",
"457 99 OFFCURVE",
"495 193 CURVE SMOOTH",
"508 226 OFFCURVE",
"489 242 OFFCURVE",
"472 242 CURVE SMOOTH",
"459 242 OFFCURVE",
"449 233 OFFCURVE",
"444 221 CURVE SMOOTH",
"390 94 OFFCURVE",
"345 59 OFFCURVE",
"318 59 CURVE SMOOTH",
"258 59 OFFCURVE",
"173 208 OFFCURVE",
"96 208 CURVE SMOOTH",
"40 208 OFFCURVE",
"0 160 OFFCURVE",
"0 94 CURVE SMOOTH",
"0 33 OFFCURVE",
"42 1 OFFCURVE",
"84 1 CURVE SMOOTH",
"126 1 OFFCURVE",
"162 24 OFFCURVE",
"210 119 CURVE SMOOTH",
"265 227 OFFCURVE",
"380 480 OFFCURVE",
"430 607 CURVE SMOOTH",
"449 654 OFFCURVE",
"412 680 OFFCURVE",
"375 653 CURVE SMOOTH",
"303 599 OFFCURVE",
"148 563 OFFCURVE",
"113 631 CURVE SMOOTH",
"103 651 OFFCURVE",
"100 666 OFFCURVE",
"81 666 CURVE SMOOTH",
"62 666 OFFCURVE",
"58 641 OFFCURVE",
"58 630 CURVE SMOOTH",
"58 546 OFFCURVE",
"148 537 OFFCURVE",
"204 537 CURVE SMOOTH",
"242 537 OFFCURVE",
"323 553 OFFCURVE",
"361 581 CURVE",
"356 591 LINE"
);
},
{
closed = 1;
nodes = (
"264 314 OFFCURVE",
"201 309 OFFCURVE",
"145 305 CURVE SMOOTH",
"122 303 OFFCURVE",
"119 284 OFFCURVE",
"119 279 CURVE SMOOTH",
"119 257 OFFCURVE",
"134 250 OFFCURVE",
"160 251 CURVE SMOOTH",
"268 256 OFFCURVE",
"347 261 OFFCURVE",
"386 264 CURVE SMOOTH",
"404 266 OFFCURVE",
"414 280 OFFCURVE",
"414 294 CURVE SMOOTH",
"414 311 OFFCURVE",
"399 321 OFFCURVE",
"382 320 CURVE SMOOTH"
);
}
);
width = 499;
},
{
layerId = "2B556C7D-ACF4-4058-9F01-0A4D9389EAED";
rightMetricsKey = Z;
name = Regular;
paths = (
{
closed = 1;
nodes = (
"264 314 OFFCURVE",
"201 309 OFFCURVE",
"145 305 CURVE SMOOTH",
"122 303 OFFCURVE",
"119 284 OFFCURVE",
"119 279 CURVE SMOOTH",
"119 257 OFFCURVE",
"134 250 OFFCURVE",
"160 251 CURVE SMOOTH",
"268 256 OFFCURVE",
"347 261 OFFCURVE",
"386 264 CURVE SMOOTH",
"404 266 OFFCURVE",
"414 280 OFFCURVE",
"414 294 CURVE SMOOTH",
"414 311 OFFCURVE",
"399 321 OFFCURVE",
"382 320 CURVE SMOOTH"
);
},
{
closed = 1;
nodes = (
"325 520 OFFCURVE",
"284 419 OFFCURVE",
"240 325 CURVE SMOOTH",
"154 142 OFFCURVE",
"118 58 OFFCURVE",
"87 58 CURVE SMOOTH",
"69 58 OFFCURVE",
"60 75 OFFCURVE",
"60 98 CURVE SMOOTH",
"60 124 OFFCURVE",
"72 149 OFFCURVE",
"94 149 CURVE SMOOTH",
"138 149 OFFCURVE",
"205 2 OFFCURVE",
"320 2 CURVE SMOOTH",
"401 2 OFFCURVE",
"467 99 OFFCURVE",
"496 193 CURVE SMOOTH",
"507 227 OFFCURVE",
"489 242 OFFCURVE",
"472 242 CURVE SMOOTH",
"459 242 OFFCURVE",
"449 233 OFFCURVE",
"444 221 CURVE SMOOTH",
"394 88 OFFCURVE",
"345 59 OFFCURVE",
"318 59 CURVE SMOOTH",
"258 59 OFFCURVE",
"173 208 OFFCURVE",
"96 208 CURVE SMOOTH",
"40 208 OFFCURVE",
"0 160 OFFCURVE",
"0 94 CURVE SMOOTH",
"0 33 OFFCURVE",
"42 1 OFFCURVE",
"84 1 CURVE SMOOTH",
"126 1 OFFCURVE",
"162 24 OFFCURVE",
"210 119 CURVE SMOOTH",
"265 227 OFFCURVE",
"380 480 OFFCURVE",
"430 607 CURVE SMOOTH",
"449 654 OFFCURVE",
"414 677 OFFCURVE",
"375 653 CURVE SMOOTH",
"332 626 OFFCURVE",
"260 594 OFFCURVE",
"199 594 CURVE SMOOTH",
"154 594 OFFCURVE",
"119 601 OFFCURVE",
"119 646 CURVE SMOOTH",
"119 675 OFFCURVE",
"106 683 OFFCURVE",
"91 683 CURVE SMOOTH",
"63 683 OFFCURVE",
"57 654 OFFCURVE",
"57 635 CURVE SMOOTH",
"57 549 OFFCURVE",
"146 537 OFFCURVE",
"197 537 CURVE SMOOTH",
"242 537 OFFCURVE",
"323 551 OFFCURVE",
"361 579 CURVE",
"356 591 LINE"
);
}
);
width = 499;
}
);
leftMetricsKey = Z;
rightMetricsKey = Z;
unicode = 017B;
},
{
color = 11;
glyphname = a;
lastChange = "2016-10-16 20:46:33 +0000";
layers = (
{
annotations = (
{
position = "{80.880, 291.008}";
type = Plus;
},
{
position = "{112, 237}";
type = Plus;
},
{
position = "{253, -3}";
type = Plus;
}
);
layerId = "2B556C7D-ACF4-4058-9F01-0A4D9389EAED";
name = Regular;
paths = (
{
closed = 1;
nodes = (
"215 18 OFFCURVE",
"266 -5 OFFCURVE",
"313 -5 CURVE SMOOTH",
"393 -5 OFFCURVE",
"473 93 OFFCURVE",
"514 215 CURVE SMOOTH",
"527 253 OFFCURVE",
"509 269 OFFCURVE",
"494 269 CURVE SMOOTH",
"483 269 OFFCURVE",
"474 263 OFFCURVE",
"467 245 CURVE SMOOTH",
"407 89 OFFCURVE",
"345 48 OFFCURVE",
"313 48 CURVE SMOOTH",
"295 48 OFFCURVE",
"276 65 OFFCURVE",
"276 141 CURVE SMOOTH",
"276 196 OFFCURVE",
"292 305 OFFCURVE",
"335 439 CURVE SMOOTH",
"345 470 OFFCURVE",
"328 489 OFFCURVE",
"310 489 CURVE SMOOTH",
"296 489 OFFCURVE",
"282 479 OFFCURVE",
"275 458 CURVE SMOOTH",
"256 408 OFFCURVE",
"237 326 OFFCURVE",
"223 258 CURVE SMOOTH",
"202 157 OFFCURVE",
"141 53 OFFCURVE",
"94 53 CURVE SMOOTH",
"67 53 OFFCURVE",
"46 84 OFFCURVE",
"46 171 CURVE SMOOTH",
"46 268 OFFCURVE",
"95 422 OFFCURVE",
"166 422 CURVE SMOOTH",
"204 422 OFFCURVE",
"219 365 OFFCURVE",
"199 286 CURVE SMOOTH",
"192 257 OFFCURVE",
"240 262 OFFCURVE",
"251 288 CURVE SMOOTH",
"287 366 OFFCURVE",
"255 477 OFFCURVE",
"166 477 CURVE SMOOTH",
"48 477 OFFCURVE",
"-15 310 OFFCURVE",
"-15 156 CURVE SMOOTH",
"-15 64 OFFCURVE",
"21 -1 OFFCURVE",
"94 -1 CURVE SMOOTH",
"169 -1 OFFCURVE",
"213 80 OFFCURVE",
"240 153 CURVE",
"215 164 LINE"
);
}
);
width = 493;
}
);
unicode = 0061;
},
{
color = 11;
glyphname = aogonek;
lastChange = "2016-10-14 09:59:18 +0000";
layers = (
{
associatedMasterId = "2B556C7D-ACF4-4058-9F01-0A4D9389EAED";
layerId = "82B57420-1683-412F-BFD5-C9CB8B012120";
rightMetricsKey = a;
name = "main Oct 7 16, 18:45";
paths = (
{
closed = 1;
nodes = (
"230 18 OFFCURVE",
"281 -5 OFFCURVE",
"328 -5 CURVE SMOOTH",
"397 -5 OFFCURVE",
"466 64 OFFCURVE",
"501 150 CURVE SMOOTH",
"514 188 OFFCURVE",
"505 204 OFFCURVE",
"481 204 CURVE SMOOTH",
"481 204 OFFCURVE",
"461 198 OFFCURVE",
"454 180 CURVE SMOOTH",
"405 75 OFFCURVE",
"354 48 OFFCURVE",
"328 48 CURVE SMOOTH",
"310 48 OFFCURVE",
"291 65 OFFCURVE",
"291 141 CURVE SMOOTH",
"291 196 OFFCURVE",
"307 305 OFFCURVE",
"350 439 CURVE SMOOTH",
"360 470 OFFCURVE",
"343 489 OFFCURVE",
"325 489 CURVE SMOOTH",
"311 489 OFFCURVE",
"297 479 OFFCURVE",
"290 458 CURVE SMOOTH",
"271 408 OFFCURVE",
"252 326 OFFCURVE",
"238 258 CURVE SMOOTH",
"217 157 OFFCURVE",
"156 53 OFFCURVE",
"109 53 CURVE SMOOTH",
"82 53 OFFCURVE",
"61 84 OFFCURVE",
"61 171 CURVE SMOOTH",
"61 268 OFFCURVE",
"110 422 OFFCURVE",
"181 422 CURVE SMOOTH",
"219 422 OFFCURVE",
"234 365 OFFCURVE",
"214 286 CURVE SMOOTH",
"207 257 OFFCURVE",
"255 262 OFFCURVE",
"266 288 CURVE SMOOTH",
"302 366 OFFCURVE",
"270 477 OFFCURVE",
"181 477 CURVE SMOOTH",
"63 477 OFFCURVE",
"0 310 OFFCURVE",
"0 156 CURVE SMOOTH",
"0 64 OFFCURVE",
"36 -1 OFFCURVE",
"109 -1 CURVE SMOOTH",
"184 -1 OFFCURVE",
"228 80 OFFCURVE",
"255 153 CURVE",
"230 164 LINE"
);
},
{
closed = 1;
nodes = (
"492 220 OFFCURVE",
"446 232 OFFCURVE",
"390 179 CURVE SMOOTH",
"327 119 OFFCURVE",
"265 -69 OFFCURVE",
"321 -128 CURVE SMOOTH",
"341 -150 OFFCURVE",
"389 -161 OFFCURVE",
"431 -129 CURVE SMOOTH",
"459 -108 OFFCURVE",
"480 -78 OFFCURVE",
"486 -41 CURVE SMOOTH",
"494 9 OFFCURVE",
"444 8 OFFCURVE",
"437 -16 CURVE SMOOTH",
"424 -59 OFFCURVE",
"399 -94 OFFCURVE",
"373 -94 CURVE SMOOTH",
"334 -94 OFFCURVE",
"369 71 OFFCURVE",
"423 134 CURVE SMOOTH",
"436 150 OFFCURVE",
"455 184 OFFCURVE",
"485 160 CURVE SMOOTH",
"505 144 OFFCURVE",
"512 175 OFFCURVE",
"503 195 CURVE SMOOTH"
);
}
);
width = 533;
},
{
associatedMasterId = "2B556C7D-ACF4-4058-9F01-0A4D9389EAED";
layerId = "58369C19-FD18-4DF7-800E-1BC6A7270DEA";
rightMetricsKey = a;
name = "Regular Oct 13 16, 21:55";
paths = (
{
closed = 1;
nodes = (
"491 203 OFFCURVE",
"467 203 CURVE SMOOTH",
"448 203 OFFCURVE",
"431 198 OFFCURVE",
"399 166 CURVE SMOOTH",
"353 120 OFFCURVE",
"310 19 OFFCURVE",
"310 -57 CURVE SMOOTH",
"310 -108 OFFCURVE",
"337 -149 OFFCURVE",
"385 -149 CURVE SMOOTH",
"461 -149 OFFCURVE",
"488 -80 OFFCURVE",
"488 -39 CURVE SMOOTH",
"488 -14 OFFCURVE",
"474 0 OFFCURVE",
"461 0 CURVE SMOOTH",
"450 0 OFFCURVE",
"435 -7 OFFCURVE",
"432 -33 CURVE SMOOTH",
"428 -69 OFFCURVE",
"407 -96 OFFCURVE",
"388 -96 CURVE SMOOTH",
"336 -96 OFFCURVE",
"390 100 OFFCURVE",
"448 160 CURVE",
"441 160 LINE",
"388 57 OFFCURVE",
"354 48 OFFCURVE",
"328 48 CURVE SMOOTH",
"310 48 OFFCURVE",
"291 65 OFFCURVE",
"291 141 CURVE SMOOTH",
"291 196 OFFCURVE",
"307 305 OFFCURVE",
"350 439 CURVE SMOOTH",
"360 470 OFFCURVE",
"343 489 OFFCURVE",
"325 489 CURVE SMOOTH",
"311 489 OFFCURVE",
"297 479 OFFCURVE",
"290 458 CURVE SMOOTH",
"271 408 OFFCURVE",
"252 326 OFFCURVE",
"238 258 CURVE SMOOTH",
"217 157 OFFCURVE",
"156 53 OFFCURVE",
"109 53 CURVE SMOOTH",
"82 53 OFFCURVE",
"61 84 OFFCURVE",
"61 171 CURVE SMOOTH",
"61 268 OFFCURVE",
"110 422 OFFCURVE",
"181 422 CURVE SMOOTH",
"219 422 OFFCURVE",
"234 365 OFFCURVE",
"214 286 CURVE SMOOTH",
"207 257 OFFCURVE",
"255 262 OFFCURVE",
"266 288 CURVE SMOOTH",
"302 366 OFFCURVE",
"270 477 OFFCURVE",
"181 477 CURVE SMOOTH",
"63 477 OFFCURVE",
"0 310 OFFCURVE",
"0 156 CURVE SMOOTH",
"0 64 OFFCURVE",
"36 -1 OFFCURVE",
"109 -1 CURVE SMOOTH",
"184 -1 OFFCURVE",
"228 80 OFFCURVE",
"255 153 CURVE",
"230 164 LINE",
"230 18 OFFCURVE",
"281 -5 OFFCURVE",
"328 -5 CURVE SMOOTH",
"417 -5 OFFCURVE",
"497 115 OFFCURVE",
"498 166 CURVE SMOOTH",
"499 187 OFFCURVE"
);
}
);
width = 506;
},
{
layerId = "2B556C7D-ACF4-4058-9F01-0A4D9389EAED";
leftMetricsKey = a;
rightMetricsKey = a;
name = Regular;
paths = (
{
closed = 1;
nodes = (
"476 203 OFFCURVE",
"448 203 CURVE SMOOTH",
"381 203 OFFCURVE",
"295 53 OFFCURVE",
"295 -57 CURVE SMOOTH",
"295 -114 OFFCURVE",
"322 -150 OFFCURVE",
"370 -150 CURVE SMOOTH",
"421 -150 OFFCURVE",
"452 -113 OFFCURVE",
"468 -88 CURVE SMOOTH",
"482 -66 OFFCURVE",
"473 -47 OFFCURVE",
"463 -42 CURVE SMOOTH",
"450 -36 OFFCURVE",
"437 -39 OFFCURVE",
"422 -60 CURVE SMOOTH",
"407 -80 OFFCURVE",
"392 -97 OFFCURVE",
"373 -97 CURVE SMOOTH",
"358 -97 OFFCURVE",
"352 -80 OFFCURVE",
"352 -56 CURVE SMOOTH",
"352 4 OFFCURVE",
"391 117 OFFCURVE",
"433 160 CURVE",
"426 160 LINE",
"373 57 OFFCURVE",
"339 48 OFFCURVE",
"313 48 CURVE SMOOTH",
"295 48 OFFCURVE",
"276 65 OFFCURVE",
"276 141 CURVE SMOOTH",
"276 196 OFFCURVE",
"292 305 OFFCURVE",
"335 439 CURVE SMOOTH",
"345 470 OFFCURVE",
"328 489 OFFCURVE",
"310 489 CURVE SMOOTH",
"296 489 OFFCURVE",
"282 479 OFFCURVE",
"275 458 CURVE SMOOTH",
"256 408 OFFCURVE",
"237 326 OFFCURVE",
"223 258 CURVE SMOOTH",
"202 157 OFFCURVE",
"141 53 OFFCURVE",
"94 53 CURVE SMOOTH",
"67 53 OFFCURVE",
"46 84 OFFCURVE",
"46 171 CURVE SMOOTH",
"46 268 OFFCURVE",
"95 422 OFFCURVE",
"166 422 CURVE SMOOTH",
"204 422 OFFCURVE",
"219 365 OFFCURVE",
"199 286 CURVE SMOOTH",
"192 257 OFFCURVE",
"240 262 OFFCURVE",
"251 288 CURVE SMOOTH",
"287 366 OFFCURVE",
"255 477 OFFCURVE",
"166 477 CURVE SMOOTH",
"48 477 OFFCURVE",
"-15 310 OFFCURVE",
"-15 156 CURVE SMOOTH",
"-15 64 OFFCURVE",
"21 -1 OFFCURVE",
"94 -1 CURVE SMOOTH",
"169 -1 OFFCURVE",
"213 80 OFFCURVE",
"240 153 CURVE",
"215 164 LINE",
"215 18 OFFCURVE",
"266 -5 OFFCURVE",
"313 -5 CURVE SMOOTH",
"402 -5 OFFCURVE",
"482 115 OFFCURVE",
"483 166 CURVE SMOOTH",
"484 187 OFFCURVE"
);
}
);
width = 515;
}
);
leftMetricsKey = a;
rightMetricsKey = a;
unicode = 0105;
},
{
color = 11;
glyphname = b;
lastChange = "2016-10-16 20:07:10 +0000";
layers = (
{
associatedMasterId = "2B556C7D-ACF4-4058-9F01-0A4D9389EAED";
layerId = "494FAF39-05FF-4E68-B96C-637D7835B18D";
name = fina;
paths = (
{
closed = 1;
nodes = (
"174 731 OFFCURVE",
"112 743 OFFCURVE",
"97 705 CURVE SMOOTH",
"97 705 OFFCURVE",
"44 548 OFFCURVE",
"5 301 CURVE SMOOTH",
"-19 149 OFFCURVE",
"-23 -31 OFFCURVE",
"112 -19 CURVE SMOOTH",
"199 -11 OFFCURVE",
"257 81 OFFCURVE",
"287 185 CURVE SMOOTH",
"316 282 OFFCURVE",
"324 454 OFFCURVE",
"200 461 CURVE SMOOTH",
"23 470 OFFCURVE",
"-64 170 OFFCURVE",
"118 107 CURVE SMOOTH",
"245 63 OFFCURVE",
"373 107 OFFCURVE",
"442 164 CURVE SMOOTH",
"481 196 OFFCURVE",
"452 236 OFFCURVE",
"415 212 CURVE SMOOTH",
"304 138 OFFCURVE",
"201 123 OFFCURVE",
"122 167 CURVE SMOOTH",
"68 197 OFFCURVE",
"53 288 OFFCURVE",
"102 352 CURVE SMOOTH",
"130 389 OFFCURVE",
"165 405 OFFCURVE",
"191 405 CURVE SMOOTH",
"302 405 OFFCURVE",
"216 38 OFFCURVE",
"102 38 CURVE SMOOTH",
"22 38 OFFCURVE",
"38 258 OFFCURVE",
"157 671 CURVE SMOOTH"
);
}
);
width = 426;
},
{
associatedMasterId = "2B556C7D-ACF4-4058-9F01-0A4D9389EAED";
layerId = "10E54E4B-1F79-4E02-BD1B-94CE5557E97B";
name = "Regular Oct 5 16, 15:11";
paths = (
{
closed = 1;
nodes = (
"171 738 OFFCURVE",
"112 743 OFFCURVE",
"97 705 CURVE SMOOTH",
"97 705 OFFCURVE",
"42 548 OFFCURVE",
"3 301 CURVE SMOOTH",
"-21 149 OFFCURVE",
"-23 -31 OFFCURVE",
"112 -19 CURVE SMOOTH",
"293 -2 OFFCURVE",
"391 451 OFFCURVE",
"182 461 CURVE SMOOTH",
"2 470 OFFCURVE",
"-65 166 OFFCURVE",
"118 126 CURVE SMOOTH",
"250 97 OFFCURVE",
"384 176 OFFCURVE",
"448 250 CURVE SMOOTH",
"482 289 OFFCURVE",
"447 325 OFFCURVE",
"415 295 CURVE SMOOTH",
"300 185 OFFCURVE",
"193 158 OFFCURVE",
"122 184 CURVE SMOOTH",
"58 207 OFFCURVE",
"48 295 OFFCURVE",
"98 360 CURVE SMOOTH",
"122 391 OFFCURVE",
"155 408 OFFCURVE",
"183 404 CURVE SMOOTH",
"233 396 OFFCURVE",
"250 322 OFFCURVE",
"230 226 CURVE SMOOTH",
"212 141 OFFCURVE",
"165 38 OFFCURVE",
"102 38 CURVE SMOOTH",
"22 38 OFFCURVE",
"35 265 OFFCURVE",
"154 678 CURVE SMOOTH"
);
}
);
width = 412;
},
{
layerId = "2B556C7D-ACF4-4058-9F01-0A4D9389EAED";
name = Regular;
paths = (
{
closed = 1;
nodes = (
"170 708 OFFCURVE",
"156 729 OFFCURVE",
"136 729 CURVE SMOOTH",
"123 729 OFFCURVE",
"107 721 OFFCURVE",
"97 692 CURVE SMOOTH",
"22 466 OFFCURVE",
"-10 287 OFFCURVE",
"-10 177 CURVE SMOOTH",
"-10 73 OFFCURVE",
"23 -1 OFFCURVE",
"110 -1 CURVE SMOOTH",
"232 -1 OFFCURVE",
"304 171 OFFCURVE",
"304 307 CURVE SMOOTH",
"304 444 OFFCURVE",
"242 489 OFFCURVE",
"182 489 CURVE SMOOTH",
"91 489 OFFCURVE",
"39 377 OFFCURVE",
"39 277 CURVE SMOOTH",
"39 171 OFFCURVE",
"89 120 OFFCURVE",
"193 120 CURVE SMOOTH",
"294 120 OFFCURVE",
"396 191 OFFCURVE",
"458 246 CURVE SMOOTH",
"499 283 OFFCURVE",
"460 327 OFFCURVE",
"423 295 CURVE SMOOTH",
"348 231 OFFCURVE",
"270 173 OFFCURVE",
"193 173 CURVE SMOOTH",
"140 173 OFFCURVE",
"94 197 OFFCURVE",
"94 281 CURVE SMOOTH",
"94 350 OFFCURVE",
"130 436 OFFCURVE",
"182 436 CURVE SMOOTH",
"219 436 OFFCURVE",
"243 385 OFFCURVE",
"243 309 CURVE SMOOTH",
"243 172 OFFCURVE",
"171 53 OFFCURVE",
"112 53 CURVE SMOOTH",
"68 53 OFFCURVE",
"52 102 OFFCURVE",
"52 175 CURVE SMOOTH",
"52 333 OFFCURVE",
"110 531 OFFCURVE",
"159 676 CURVE SMOOTH"
);
}
);
width = 446;
}
);
unicode = 0062;
},
{
color = 11;
glyphname = c;
lastChange = "2016-10-14 11:46:05 +0000";
layers = (
{
associatedMasterId = "2B556C7D-ACF4-4058-9F01-0A4D9389EAED";
layerId = "8F6BE77F-4512-493C-9B95-F258C5DC51FB";
name = main;
paths = (
{
closed = 1;
nodes = (
"-4 508 OFFCURVE",
"-86 103 OFFCURVE",
"21 15 CURVE SMOOTH",
"57 -16 OFFCURVE",
"110 -18 OFFCURVE",
"158 1 CURVE SMOOTH",
"244 36 OFFCURVE",
"331 144 OFFCURVE",
"372 276 CURVE SMOOTH",
"383 311 OFFCURVE",
"345 334 OFFCURVE",
"327 295 CURVE SMOOTH",
"210 40 OFFCURVE",
"107 41 OFFCURVE",
"83 47 CURVE SMOOTH",
"-22 73 OFFCURVE",
"63 424 OFFCURVE",
"149 424 CURVE SMOOTH",
"177 424 OFFCURVE",
"204 391 OFFCURVE",
"181 303 CURVE SMOOTH",
"171 265 OFFCURVE",
"227 259 OFFCURVE",
"239 293 CURVE SMOOTH",
"265 367 OFFCURVE",
"246 467 OFFCURVE",
"168 480 CURVE SMOOTH"
);
}
);
width = 322;
},
{
associatedMasterId = "2B556C7D-ACF4-4058-9F01-0A4D9389EAED";
layerId = "72B2E4A6-1FD0-40E2-87B5-ADF3D4BA0DEB";
name = "Regular Aug 19 16, 11:54";
paths = (
{
closed = 1;
nodes = (
"-4 508 OFFCURVE",
"-86 103 OFFCURVE",
"21 15 CURVE SMOOTH",
"55 -14 OFFCURVE",
"113 -9 OFFCURVE",
"158 12 CURVE SMOOTH",
"240 51 OFFCURVE",
"324 171 OFFCURVE",
"385 357 CURVE SMOOTH",
"398 399 OFFCURVE",
"351 418 OFFCURVE",
"335 371 CURVE SMOOTH",
"237 90 OFFCURVE",
"129 36 OFFCURVE",
"81 48 CURVE SMOOTH",
"-22 74 OFFCURVE",
"63 424 OFFCURVE",
"149 424 CURVE SMOOTH",
"177 424 OFFCURVE",
"204 391 OFFCURVE",
"181 303 CURVE SMOOTH",
"171 265 OFFCURVE",
"227 259 OFFCURVE",
"239 293 CURVE SMOOTH",
"265 367 OFFCURVE",
"246 467 OFFCURVE",
"168 480 CURVE SMOOTH"
);
}
);
width = 322;
},
{
associatedMasterId = "2B556C7D-ACF4-4058-9F01-0A4D9389EAED";
layerId = "ACF91996-EE3A-4BEE-8F80-51E91C2CBA1D";
name = "Regular Oct 5 16, 15:35";
paths = (
{
closed = 1;
nodes = (
"-8 508 OFFCURVE",
"-87 103 OFFCURVE",
"17 17 CURVE SMOOTH",
"51 -12 OFFCURVE",
"110 -12 OFFCURVE",
"154 12 CURVE SMOOTH",
"236 57 OFFCURVE",
"316 154 OFFCURVE",
"396 357 CURVE SMOOTH",
"410 392 OFFCURVE",
"364 416 OFFCURVE",
"348 376 CURVE SMOOTH",
"242 110 OFFCURVE",
"126 37 OFFCURVE",
"78 49 CURVE SMOOTH",
"-27 76 OFFCURVE",
"55 424 OFFCURVE",
"143 424 CURVE SMOOTH",
"171 424 OFFCURVE",
"200 394 OFFCURVE",
"177 306 CURVE SMOOTH",
"165 261 OFFCURVE",
"219 252 OFFCURVE",
"233 293 CURVE SMOOTH",
"259 367 OFFCURVE",
"240 467 OFFCURVE",
"162 480 CURVE SMOOTH"
);
}
);
width = 328;
},
{
associatedMasterId = "2B556C7D-ACF4-4058-9F01-0A4D9389EAED";
layerId = "3417954F-EED0-4240-9A85-1ABA269A6BE7";
name = "Regular Oct 5 16, 15:50";
paths = (
{
closed = 1;
nodes = (
"-8 508 OFFCURVE",
"-87 103 OFFCURVE",
"17 17 CURVE SMOOTH",
"51 -12 OFFCURVE",
"110 -12 OFFCURVE",
"154 12 CURVE SMOOTH",
"236 57 OFFCURVE",
"316 154 OFFCURVE",
"396 357 CURVE SMOOTH",
"410 392 OFFCURVE",
"364 416 OFFCURVE",
"348 376 CURVE SMOOTH",
"242 110 OFFCURVE",
"126 37 OFFCURVE",
"78 49 CURVE SMOOTH",
"-27 76 OFFCURVE",
"55 424 OFFCURVE",
"143 424 CURVE SMOOTH",
"171 424 OFFCURVE",
"200 394 OFFCURVE",
"177 306 CURVE SMOOTH",
"165 261 OFFCURVE",
"219 252 OFFCURVE",
"233 293 CURVE SMOOTH",
"259 367 OFFCURVE",
"240 467 OFFCURVE",
"162 480 CURVE SMOOTH"
);
}
);
width = 328;
},
{
layerId = "2B556C7D-ACF4-4058-9F01-0A4D9389EAED";
name = Regular;
paths = (
{
closed = 1;
nodes = (
"247 273 OFFCURVE",
"258 331 OFFCURVE",
"258 371 CURVE SMOOTH",
"258 435 OFFCURVE",
"228 490 OFFCURVE",
"155 490 CURVE SMOOTH",
"41 490 OFFCURVE",
"-25 319 OFFCURVE",
"-25 178 CURVE SMOOTH",
"-25 70 OFFCURVE",
"9 -3 OFFCURVE",
"101 -3 CURVE SMOOTH",
"201 -3 OFFCURVE",
"294 87 OFFCURVE",
"361 226 CURVE SMOOTH",
"378 261 OFFCURVE",
"361 281 OFFCURVE",
"344 281 CURVE SMOOTH",
"331 281 OFFCURVE",
"322 273 OFFCURVE",
"310 250 CURVE SMOOTH",
"225 84 OFFCURVE",
"143 52 OFFCURVE",
"105 52 CURVE SMOOTH",
"68 52 OFFCURVE",
"36 89 OFFCURVE",
"36 172 CURVE SMOOTH",
"36 262 OFFCURVE",
"77 434 OFFCURVE",
"153 434 CURVE SMOOTH",
"202 434 OFFCURVE",
"201 366 OFFCURVE",
"189 312 CURVE SMOOTH",
"183 287 OFFCURVE",
"198 273 OFFCURVE",
"214 273 CURVE SMOOTH"
);
}
);
width = 333;
}
);
unicode = 0063;
},
{
color = 11;
glyphname = cacute;
lastChange = "2016-10-14 11:02:49 +0000";
layers = (
{
associatedMasterId = "2B556C7D-ACF4-4058-9F01-0A4D9389EAED";
layerId = "6679F7B1-6466-4B40-9A8B-1208F5E88D4C";
name = "Regular Aug 18 16, 18:08";
paths = (
{
closed = 1;
nodes = (
"-4 508 OFFCURVE",
"-86 103 OFFCURVE",
"21 15 CURVE SMOOTH",
"57 -16 OFFCURVE",
"110 -18 OFFCURVE",
"158 1 CURVE SMOOTH",
"244 36 OFFCURVE",
"331 144 OFFCURVE",
"372 276 CURVE SMOOTH",
"383 311 OFFCURVE",
"345 334 OFFCURVE",
"327 295 CURVE SMOOTH",
"210 40 OFFCURVE",
"107 41 OFFCURVE",
"83 47 CURVE SMOOTH",
"-22 73 OFFCURVE",
"63 424 OFFCURVE",
"149 424 CURVE SMOOTH",
"177 424 OFFCURVE",
"204 391 OFFCURVE",
"181 303 CURVE SMOOTH",
"171 265 OFFCURVE",
"227 259 OFFCURVE",
"239 293 CURVE SMOOTH",
"265 367 OFFCURVE",
"246 467 OFFCURVE",
"168 480 CURVE SMOOTH"
);
},
{
closed = 1;
nodes = (
"166 672 OFFCURVE",
"153 620 OFFCURVE",
"144 583 CURVE SMOOTH",
"133 539 OFFCURVE",
"186 526 OFFCURVE",
"199 567 CURVE SMOOTH",
"216 622 OFFCURVE",
"228 658 OFFCURVE",
"237 692 CURVE SMOOTH",
"249 736 OFFCURVE",
"191 755 OFFCURVE",
"177 708 CURVE SMOOTH"
);
}
);
width = 322;
},
{
layerId = "2B556C7D-ACF4-4058-9F01-0A4D9389EAED";
leftMetricsKey = c;
rightMetricsKey = c;
name = Regular;
paths = (
{
closed = 1;
nodes = (
"257 273 OFFCURVE",
"268 331 OFFCURVE",
"268 371 CURVE SMOOTH",
"268 435 OFFCURVE",
"238 490 OFFCURVE",
"165 490 CURVE SMOOTH",
"51 490 OFFCURVE",
"-15 319 OFFCURVE",
"-15 178 CURVE SMOOTH",
"-15 70 OFFCURVE",
"19 -3 OFFCURVE",
"111 -3 CURVE SMOOTH",
"211 -3 OFFCURVE",
"304 87 OFFCURVE",
"371 226 CURVE SMOOTH",
"388 261 OFFCURVE",
"371 281 OFFCURVE",
"354 281 CURVE SMOOTH",
"341 281 OFFCURVE",
"332 273 OFFCURVE",
"320 250 CURVE SMOOTH",
"235 84 OFFCURVE",
"153 52 OFFCURVE",
"115 52 CURVE SMOOTH",
"78 52 OFFCURVE",
"46 89 OFFCURVE",
"46 172 CURVE SMOOTH",
"46 262 OFFCURVE",
"87 434 OFFCURVE",
"163 434 CURVE SMOOTH",
"212 434 OFFCURVE",
"211 366 OFFCURVE",
"199 312 CURVE SMOOTH",
"193 287 OFFCURVE",
"208 273 OFFCURVE",
"224 273 CURVE SMOOTH"
);
},
{
closed = 1;
nodes = (
"174 645 OFFCURVE",
"164 621 OFFCURVE",
"149 586 CURVE SMOOTH",
"138 562 OFFCURVE",
"149 545 OFFCURVE",
"165 542 CURVE SMOOTH",
"177 540 OFFCURVE",
"193 546 OFFCURVE",
"201 562 CURVE SMOOTH",
"228 613 OFFCURVE",
"233 627 OFFCURVE",
"248 659 CURVE SMOOTH",
"259 683 OFFCURVE",
"248 703 OFFCURVE",
"229 706 CURVE SMOOTH",
"216 708 OFFCURVE",
"201 702 OFFCURVE",
"192 684 CURVE SMOOTH"
);
}
);
width = 343;
}
);
leftMetricsKey = c;
rightMetricsKey = c;
unicode = 0107;
},
{
color = 11;
glyphname = d;
lastChange = "2016-10-16 20:43:30 +0000";
layers = (
{
annotations = (
{
position = "{1919, 13422}";
type = Plus;
}
);
associatedMasterId = "2B556C7D-ACF4-4058-9F01-0A4D9389EAED";
layerId = "96ADB878-E82F-495D-89AC-3ED2851F5279";
name = fina;
paths = (
{
closed = 1;
nodes = (
"251 347 LINE",
"214 127 OFFCURVE",
"129 44 OFFCURVE",
"91 44 CURVE SMOOTH",
"43 44 OFFCURVE",
"35 172 OFFCURVE",
"54 264 CURVE SMOOTH",
"73 352 OFFCURVE",
"129 441 OFFCURVE",
"190 424 CURVE SMOOTH",
"226 414 OFFCURVE",
"244 360 OFFCURVE",
"235 288 CURVE SMOOTH",
"227 224 OFFCURVE",
"198 172 OFFCURVE",
"142 162 CURVE SMOOTH",
"68 149 OFFCURVE",
"23 246 OFFCURVE",
"13 291 CURVE",
"-31 291 OFFCURVE",
"-22 239 OFFCURVE",
"-11 215 CURVE SMOOTH",
"58 61 OFFCURVE",
"239 77 OFFCURVE",
"277 250 CURVE SMOOTH",
"303 371 OFFCURVE",
"276 464 OFFCURVE",
"201 480 CURVE SMOOTH",
"164 488 OFFCURVE",
"134 479 OFFCURVE",
"105 462 CURVE SMOOTH",
"28 415 OFFCURVE",
"-18 291 OFFCURVE",
"-18 164 CURVE SMOOTH",
"-18 48 OFFCURVE",
"26 -10 OFFCURVE",
"84 -10 CURVE SMOOTH",
"168 -10 OFFCURVE",
"243 72 OFFCURVE",
"285 287 CURVE"
);
},
{
closed = 1;
nodes = (
"297 553 OFFCURVE",
"228 272 OFFCURVE",
"241 111 CURVE SMOOTH",
"257 -65 OFFCURVE",
"416 -23 OFFCURVE",
"501 163 CURVE SMOOTH",
"525 216 OFFCURVE",
"471 227 OFFCURVE",
"453 195 CURVE SMOOTH",
"334 -18 OFFCURVE",
"212 -54 OFFCURVE",
"392 649 CURVE SMOOTH",
"406 709 OFFCURVE",
"342 706 OFFCURVE",
"332 671 CURVE SMOOTH"
);
}
);
width = 507;
},
{
annotations = (
{
position = "{1919, 13422}";
type = Plus;
}
);
associatedMasterId = "2B556C7D-ACF4-4058-9F01-0A4D9389EAED";
layerId = "218414AA-D6D9-46F9-8D40-C350A7D43794";
name = main;
paths = (
{
closed = 1;
nodes = (
"251 347 LINE",
"214 127 OFFCURVE",
"129 50 OFFCURVE",
"91 50 CURVE SMOOTH",
"43 50 OFFCURVE",
"35 172 OFFCURVE",
"54 264 CURVE SMOOTH",
"73 352 OFFCURVE",
"129 441 OFFCURVE",
"190 424 CURVE SMOOTH",
"226 414 OFFCURVE",
"244 360 OFFCURVE",
"235 288 CURVE SMOOTH",
"227 224 OFFCURVE",
"198 172 OFFCURVE",
"142 162 CURVE SMOOTH",
"68 149 OFFCURVE",
"23 246 OFFCURVE",
"13 291 CURVE",
"-31 291 OFFCURVE",
"-22 239 OFFCURVE",
"-11 215 CURVE SMOOTH",
"58 61 OFFCURVE",
"239 77 OFFCURVE",
"277 250 CURVE SMOOTH",
"303 371 OFFCURVE",
"276 464 OFFCURVE",
"201 480 CURVE SMOOTH",
"164 488 OFFCURVE",
"134 479 OFFCURVE",
"105 462 CURVE SMOOTH",
"28 415 OFFCURVE",
"-18 291 OFFCURVE",
"-18 164 CURVE SMOOTH",
"-18 48 OFFCURVE",
"26 -4 OFFCURVE",
"84 -4 CURVE SMOOTH",
"168 -4 OFFCURVE",
"243 72 OFFCURVE",
"285 287 CURVE"
);
},
{
closed = 1;
nodes = (
"311 585 OFFCURVE",
"228 272 OFFCURVE",
"241 111 CURVE SMOOTH",
"248 27 OFFCURVE",
"282 -9 OFFCURVE",
"337 -4 CURVE SMOOTH",
"393 1 OFFCURVE",
"484 78 OFFCURVE",
"575 348 CURVE SMOOTH",
"593 400 OFFCURVE",
"542 407 OFFCURVE",
"530 373 CURVE SMOOTH",
"446 138 OFFCURVE",
"364 49 OFFCURVE",
"332 49 CURVE SMOOTH",
"320 49 OFFCURVE",
"250 71 OFFCURVE",
"406 681 CURVE SMOOTH",
"420 741 OFFCURVE",
"356 738 OFFCURVE",
"346 703 CURVE SMOOTH"
);
}
);
width = 507;
},
{
annotations = (
{
position = "{1919, 13422}";
type = Plus;
}
);
associatedMasterId = "2B556C7D-ACF4-4058-9F01-0A4D9389EAED";
layerId = "D3F980C1-AC2A-40D7-892B-F667367E96DF";
name = "main Oct 5 16, 15:59";
paths = (
{
closed = 0;
nodes = (
"277 250 LINE",
"303 371 OFFCURVE",
"276 464 OFFCURVE",
"201 480 CURVE SMOOTH",
"164 488 OFFCURVE",
"134 479 OFFCURVE",
"105 462 CURVE SMOOTH",
"28 415 OFFCURVE",
"-18 291 OFFCURVE",
"-18 164 CURVE SMOOTH",
"-18 48 OFFCURVE",
"26 -4 OFFCURVE",
"84 -4 CURVE SMOOTH",
"168 -4 OFFCURVE",
"243 72 OFFCURVE",
"285 287 CURVE",
"251 347 LINE",
"214 127 OFFCURVE",
"129 50 OFFCURVE",
"91 50 CURVE SMOOTH",
"43 50 OFFCURVE",
"35 172 OFFCURVE",
"54 264 CURVE SMOOTH",
"73 352 OFFCURVE",
"129 441 OFFCURVE",
"190 424 CURVE SMOOTH",
"226 414 OFFCURVE",
"244 360 OFFCURVE",
"235 288 CURVE"
);
},
{
closed = 1;
nodes = (
"311 585 OFFCURVE",
"228 272 OFFCURVE",
"241 111 CURVE SMOOTH",
"248 27 OFFCURVE",
"282 -9 OFFCURVE",
"337 -4 CURVE SMOOTH",
"393 1 OFFCURVE",
"484 78 OFFCURVE",
"575 348 CURVE SMOOTH",
"593 400 OFFCURVE",
"542 407 OFFCURVE",
"530 373 CURVE SMOOTH",
"446 138 OFFCURVE",
"364 49 OFFCURVE",
"332 49 CURVE SMOOTH",
"320 49 OFFCURVE",
"250 71 OFFCURVE",
"406 681 CURVE SMOOTH",
"420 741 OFFCURVE",
"356 738 OFFCURVE",
"346 703 CURVE SMOOTH"
);
},
{
closed = 1;
nodes = (
"230 18 OFFCURVE",
"281 -5 OFFCURVE",
"328 -5 CURVE SMOOTH",
"408 -5 OFFCURVE",
"488 93 OFFCURVE",
"529 215 CURVE SMOOTH",
"542 253 OFFCURVE",
"524 269 OFFCURVE",
"509 269 CURVE SMOOTH",
"498 269 OFFCURVE",
"489 263 OFFCURVE",
"482 245 CURVE SMOOTH",
"422 89 OFFCURVE",
"360 48 OFFCURVE",
"328 48 CURVE SMOOTH",
"310 48 OFFCURVE",
"291 65 OFFCURVE",
"291 141 CURVE SMOOTH",
"291 196 OFFCURVE",
"307 305 OFFCURVE",
"350 439 CURVE SMOOTH",
"360 470 OFFCURVE",
"343 489 OFFCURVE",
"325 489 CURVE SMOOTH",
"311 489 OFFCURVE",
"297 479 OFFCURVE",
"290 458 CURVE SMOOTH",
"271 408 OFFCURVE",
"252 326 OFFCURVE",
"238 258 CURVE SMOOTH",
"217 157 OFFCURVE",
"156 53 OFFCURVE",
"109 53 CURVE SMOOTH",
"82 53 OFFCURVE",
"61 84 OFFCURVE",
"61 171 CURVE SMOOTH",
"61 268 OFFCURVE",
"110 422 OFFCURVE",
"181 422 CURVE SMOOTH",
"219 422 OFFCURVE",
"234 365 OFFCURVE",
"214 286 CURVE SMOOTH",
"207 257 OFFCURVE",
"255 262 OFFCURVE",
"266 288 CURVE SMOOTH",
"302 366 OFFCURVE",
"270 477 OFFCURVE",
"181 477 CURVE SMOOTH",
"63 477 OFFCURVE",
"0 310 OFFCURVE",
"0 156 CURVE SMOOTH",
"0 64 OFFCURVE",
"36 -1 OFFCURVE",
"109 -1 CURVE SMOOTH",
"184 -1 OFFCURVE",
"228 80 OFFCURVE",
"255 153 CURVE",
"230 164 LINE"
);
}
);
width = 507;
},
{
annotations = (
{
position = "{1919, 13422}";
type = Plus;
}
);
associatedMasterId = "2B556C7D-ACF4-4058-9F01-0A4D9389EAED";
layerId = "7B4A3039-F2E7-489E-80C7-409140A64E0A";
name = "main Oct 5 16, 15:59 Oct 5 16, 16:03";
paths = (
{
closed = 1;
nodes = (
"230 25 OFFCURVE",
"281 -5 OFFCURVE",
"328 -5 CURVE SMOOTH",
"408 -5 OFFCURVE",
"488 93 OFFCURVE",
"529 215 CURVE SMOOTH",
"542 253 OFFCURVE",
"524 269 OFFCURVE",
"509 269 CURVE SMOOTH",
"498 269 OFFCURVE",
"489 263 OFFCURVE",
"482 245 CURVE SMOOTH",
"422 89 OFFCURVE",
"360 48 OFFCURVE",
"328 48 CURVE SMOOTH",
"310 48 OFFCURVE",
"291 72 OFFCURVE",
"291 141 CURVE SMOOTH",
"291 225 OFFCURVE",
"343 454 OFFCURVE",
"405 677 CURVE SMOOTH",
"414 708 OFFCURVE",
"398 727 OFFCURVE",
"380 727 CURVE SMOOTH",
"366 727 OFFCURVE",
"351 716 OFFCURVE",
"345 696 CURVE SMOOTH",
"315 600 OFFCURVE",
"261 368 OFFCURVE",
"238 258 CURVE SMOOTH",
"217 158 OFFCURVE",
"156 53 OFFCURVE",
"109 53 CURVE SMOOTH",
"82 53 OFFCURVE",
"61 84 OFFCURVE",
"61 171 CURVE SMOOTH",
"61 268 OFFCURVE",
"110 422 OFFCURVE",
"181 422 CURVE SMOOTH",
"219 422 OFFCURVE",
"234 365 OFFCURVE",
"214 286 CURVE SMOOTH",
"207 257 OFFCURVE",
"255 262 OFFCURVE",
"266 288 CURVE SMOOTH",
"302 366 OFFCURVE",
"270 477 OFFCURVE",
"181 477 CURVE SMOOTH",
"63 477 OFFCURVE",
"0 310 OFFCURVE",
"0 156 CURVE SMOOTH",
"0 64 OFFCURVE",
"36 -1 OFFCURVE",
"109 -1 CURVE SMOOTH",
"184 -1 OFFCURVE",
"228 80 OFFCURVE",
"255 153 CURVE",
"230 164 LINE"
);
}
);
width = 507;
},
{
annotations = (
{
position = "{1919, 13422}";
type = Plus;
}
);
layerId = "2B556C7D-ACF4-4058-9F01-0A4D9389EAED";
name = Regular;
paths = (
{
closed = 1;
nodes = (
"215 25 OFFCURVE",
"266 -5 OFFCURVE",
"313 -5 CURVE SMOOTH",
"393 -5 OFFCURVE",
"473 93 OFFCURVE",
"514 215 CURVE SMOOTH",
"527 253 OFFCURVE",
"509 269 OFFCURVE",
"494 269 CURVE SMOOTH",
"483 269 OFFCURVE",
"474 263 OFFCURVE",
"467 245 CURVE SMOOTH",
"407 89 OFFCURVE",
"345 48 OFFCURVE",
"313 48 CURVE SMOOTH",
"295 48 OFFCURVE",
"276 72 OFFCURVE",
"276 141 CURVE SMOOTH",
"276 225 OFFCURVE",
"320 448 OFFCURVE",
"390 677 CURVE SMOOTH",
"399 708 OFFCURVE",
"383 727 OFFCURVE",
"365 727 CURVE SMOOTH",
"351 727 OFFCURVE",
"336 716 OFFCURVE",
"330 696 CURVE SMOOTH",
"284 548 OFFCURVE",
"248 389 OFFCURVE",
"223 258 CURVE SMOOTH",
"204 158 OFFCURVE",
"141 53 OFFCURVE",
"94 53 CURVE SMOOTH",
"67 53 OFFCURVE",
"46 84 OFFCURVE",
"46 171 CURVE SMOOTH",
"46 268 OFFCURVE",
"95 422 OFFCURVE",
"166 422 CURVE SMOOTH",
"204 422 OFFCURVE",
"219 365 OFFCURVE",
"199 286 CURVE SMOOTH",
"192 257 OFFCURVE",
"240 262 OFFCURVE",
"251 288 CURVE SMOOTH",
"287 366 OFFCURVE",
"255 477 OFFCURVE",
"166 477 CURVE SMOOTH",
"48 477 OFFCURVE",
"-15 310 OFFCURVE",
"-15 156 CURVE SMOOTH",
"-15 64 OFFCURVE",
"21 -1 OFFCURVE",
"94 -1 CURVE SMOOTH",
"169 -1 OFFCURVE",
"213 80 OFFCURVE",
"240 153 CURVE",
"215 164 LINE"
);
}
);
width = 498;
},
{
annotations = (
{
position = "{1919, 13422}";
type = Plus;
}
);
associatedMasterId = "2B556C7D-ACF4-4058-9F01-0A4D9389EAED";
layerId = "7C4B82B7-B6B3-4B83-B31B-EF3E574B4083";
name = "Regular Oct 5 16, 16:13";
paths = (
{
closed = 1;
nodes = (
"239 356 LINE",
"202 134 OFFCURVE",
"121 46 OFFCURVE",
"83 46 CURVE SMOOTH",
"-33 46 OFFCURVE",
"50 455 OFFCURVE",
"174 420 CURVE SMOOTH",
"210 410 OFFCURVE",
"228 356 OFFCURVE",
"219 284 CURVE SMOOTH",
"199 126 OFFCURVE",
"44 123 OFFCURVE",
"17 287 CURVE SMOOTH",
"10 330 OFFCURVE",
"-25 240 OFFCURVE",
"-15 215 CURVE SMOOTH",
"46 57 OFFCURVE",
"228 79 OFFCURVE",
"265 250 CURVE SMOOTH",
"292 376 OFFCURVE",
"251 465 OFFCURVE",
"183 480 CURVE SMOOTH",
"68 506 OFFCURVE",
"-29 338 OFFCURVE",
"-29 158 CURVE SMOOTH",
"-29 42 OFFCURVE",
"18 -8 OFFCURVE",
"76 -8 CURVE SMOOTH",
"160 -8 OFFCURVE",
"231 79 OFFCURVE",
"273 287 CURVE"
);
},
{
closed = 1;
nodes = (
"285 553 OFFCURVE",
"216 272 OFFCURVE",
"229 111 CURVE SMOOTH",
"236 27 OFFCURVE",
"270 -9 OFFCURVE",
"325 -4 CURVE SMOOTH",
"381 1 OFFCURVE",
"472 78 OFFCURVE",
"563 348 CURVE SMOOTH",
"581 400 OFFCURVE",
"530 407 OFFCURVE",
"518 373 CURVE SMOOTH",
"434 138 OFFCURVE",
"353 56 OFFCURVE",
"321 56 CURVE SMOOTH",
"309 56 OFFCURVE",
"226 53 OFFCURVE",
"379 649 CURVE SMOOTH",
"394 709 OFFCURVE",
"330 706 OFFCURVE",
"320 671 CURVE SMOOTH"
);
}
);
width = 495;
}
);
unicode = 0064;
},
{
color = 11;
glyphname = e;
lastChange = "2016-10-16 20:46:52 +0000";
layers = (
{
layerId = "2B556C7D-ACF4-4058-9F01-0A4D9389EAED";
name = Regular;
paths = (
{
closed = 1;
nodes = (
"55 489 OFFCURVE",
"-15 333 OFFCURVE",
"-15 196 CURVE SMOOTH",
"-15 107 OFFCURVE",
"1 -5 OFFCURVE",
"123 -5 CURVE SMOOTH",
"229 -5 OFFCURVE",
"333 91 OFFCURVE",
"381 209 CURVE SMOOTH",
"393 241 OFFCURVE",
"378 259 OFFCURVE",
"362 259 CURVE SMOOTH",
"351 259 OFFCURVE",
"339 252 OFFCURVE",
"331 233 CURVE SMOOTH",
"269 113 OFFCURVE",
"195 50 OFFCURVE",
"122 48 CURVE SMOOTH",
"65 46 OFFCURVE",
"44 116 OFFCURVE",
"44 193 CURVE SMOOTH",
"44 307 OFFCURVE",
"102 434 OFFCURVE",
"162 434 CURVE SMOOTH",
"179 434 OFFCURVE",
"195 420 OFFCURVE",
"195 377 CURVE SMOOTH",
"195 324 OFFCURVE",
"151 216 OFFCURVE",
"48 216 CURVE SMOOTH",
"35 216 OFFCURVE",
"24 226 OFFCURVE",
"16 229 CURVE SMOOTH",
"16 229 OFFCURVE",
"5 165 OFFCURVE",
"47 165 CURVE SMOOTH",
"189 165 OFFCURVE",
"255 291 OFFCURVE",
"255 387 CURVE SMOOTH",
"255 446 OFFCURVE",
"221 489 OFFCURVE",
"166 489 CURVE SMOOTH"
);
}
);
width = 365;
}
);
unicode = 0065;
},
{
color = 11;
glyphname = eogonek;
lastChange = "2016-10-14 11:08:47 +0000";
layers = (
{
associatedMasterId = "2B556C7D-ACF4-4058-9F01-0A4D9389EAED";
layerId = "14B59A48-B000-433E-8D76-CDA2CD2F4850";
rightMetricsKey = e;
name = "Regular Oct 7 16, 20:24";
paths = (
{
closed = 1;
nodes = (
"54 165 LINE",
"201 165 OFFCURVE",
"270 286 OFFCURVE",
"270 387 CURVE SMOOTH",
"270 446 OFFCURVE",
"236 489 OFFCURVE",
"181 489 CURVE SMOOTH",
"70 489 OFFCURVE",
"0 333 OFFCURVE",
"0 196 CURVE SMOOTH",
"0 107 OFFCURVE",
"16 -5 OFFCURVE",
"138 -5 CURVE SMOOTH",
"264 -5 OFFCURVE",
"347 119 OFFCURVE",
"347 157 CURVE SMOOTH",
"347 175 OFFCURVE",
"334 191 OFFCURVE",
"296 177 CURVE SMOOTH",
"247 159 OFFCURVE",
"131 51 OFFCURVE",
"131 -63 CURVE SMOOTH",
"131 -118 OFFCURVE",
"166 -157 OFFCURVE",
"212 -157 CURVE SMOOTH",
"283 -157 OFFCURVE",
"318 -88 OFFCURVE",
"318 -46 CURVE SMOOTH",
"318 -21 OFFCURVE",
"304 -11 OFFCURVE",
"291 -11 CURVE SMOOTH",
"280 -11 OFFCURVE",
"269 -18 OFFCURVE",
"267 -32 CURVE SMOOTH",
"259 -80 OFFCURVE",
"236 -105 OFFCURVE",
"214 -105 CURVE SMOOTH",
"198 -105 OFFCURVE",
"188 -86 OFFCURVE",
"188 -59 CURVE SMOOTH",
"188 22 OFFCURVE",
"266 83 OFFCURVE",
"311 146 CURVE SMOOTH",
"254 75 OFFCURVE",
"184 48 OFFCURVE",
"137 48 CURVE SMOOTH",
"80 48 OFFCURVE",
"59 116 OFFCURVE",
"59 193 CURVE SMOOTH",
"59 307 OFFCURVE",
"117 434 OFFCURVE",
"177 434 CURVE SMOOTH",
"194 434 OFFCURVE",
"210 420 OFFCURVE",
"210 377 CURVE SMOOTH",
"210 323 OFFCURVE",
"163 216 OFFCURVE",
"54 216 CURVE"
);
}
);
width = 400;
},
{
associatedMasterId = "2B556C7D-ACF4-4058-9F01-0A4D9389EAED";
layerId = "92E4AF46-B625-478F-BB27-04435E3E4FCA";
rightMetricsKey = e;
name = "Regular Oct 13 16, 22:12";
paths = (
{
closed = 1;
nodes = (
"54 165 LINE",
"201 165 OFFCURVE",
"270 286 OFFCURVE",
"270 387 CURVE SMOOTH",
"270 446 OFFCURVE",
"236 489 OFFCURVE",
"181 489 CURVE SMOOTH",
"70 489 OFFCURVE",
"0 333 OFFCURVE",
"0 196 CURVE SMOOTH",
"0 107 OFFCURVE",
"16 -5 OFFCURVE",
"138 -5 CURVE SMOOTH",
"264 -5 OFFCURVE",
"346 119 OFFCURVE",
"347 157 CURVE SMOOTH",
"347 171 OFFCURVE",
"340 185 OFFCURVE",
"319 185 CURVE SMOOTH",
"268 185 OFFCURVE",
"117 59 OFFCURVE",
"117 -63 CURVE SMOOTH",
"117 -118 OFFCURVE",
"152 -157 OFFCURVE",
"198 -157 CURVE SMOOTH",
"269 -157 OFFCURVE",
"304 -88 OFFCURVE",
"304 -46 CURVE SMOOTH",
"304 -21 OFFCURVE",
"290 -11 OFFCURVE",
"277 -11 CURVE SMOOTH",
"266 -11 OFFCURVE",
"255 -18 OFFCURVE",
"253 -32 CURVE SMOOTH",
"245 -80 OFFCURVE",
"222 -105 OFFCURVE",
"200 -105 CURVE SMOOTH",
"184 -105 OFFCURVE",
"174 -86 OFFCURVE",
"174 -59 CURVE SMOOTH",
"174 22 OFFCURVE",
"266 83 OFFCURVE",
"311 146 CURVE SMOOTH",
"254 75 OFFCURVE",
"184 48 OFFCURVE",
"137 48 CURVE SMOOTH",
"80 48 OFFCURVE",
"59 116 OFFCURVE",
"59 193 CURVE SMOOTH",
"59 307 OFFCURVE",
"117 434 OFFCURVE",
"177 434 CURVE SMOOTH",
"194 434 OFFCURVE",
"210 420 OFFCURVE",
"210 377 CURVE SMOOTH",
"210 323 OFFCURVE",
"163 216 OFFCURVE",
"54 216 CURVE"
);
}
);
width = 400;
},
{
layerId = "2B556C7D-ACF4-4058-9F01-0A4D9389EAED";
leftMetricsKey = e;
rightMetricsKey = e;
name = Regular;
paths = (
{
closed = 1;
nodes = (
"187 64 OFFCURVE",
"151 48 OFFCURVE",
"122 48 CURVE SMOOTH",
"65 48 OFFCURVE",
"44 116 OFFCURVE",
"44 193 CURVE SMOOTH",
"44 307 OFFCURVE",
"102 434 OFFCURVE",
"162 434 CURVE SMOOTH",
"179 434 OFFCURVE",
"195 420 OFFCURVE",
"195 377 CURVE SMOOTH",
"195 323 OFFCURVE",
"148 216 OFFCURVE",
"39 216 CURVE",
"39 165 LINE",
"186 165 OFFCURVE",
"255 286 OFFCURVE",
"255 387 CURVE SMOOTH",
"255 446 OFFCURVE",
"221 489 OFFCURVE",
"166 489 CURVE SMOOTH",
"55 489 OFFCURVE",
"-15 333 OFFCURVE",
"-15 196 CURVE SMOOTH",
"-15 107 OFFCURVE",
"1 -5 OFFCURVE",
"123 -5 CURVE SMOOTH",
"246 -5 OFFCURVE",
"295 93 OFFCURVE",
"296 127 CURVE SMOOTH",
"296 144 OFFCURVE",
"289 167 OFFCURVE",
"263 167 CURVE SMOOTH",
"233 167 OFFCURVE",
"167 117 OFFCURVE",
"116 33 CURVE SMOOTH",
"93 -5 OFFCURVE",
"81 -51 OFFCURVE",
"81 -78 CURVE SMOOTH",
"81 -125 OFFCURVE",
"108 -159 OFFCURVE",
"156 -159 CURVE SMOOTH",
"198 -159 OFFCURVE",
"248 -132 OFFCURVE",
"272 -96 CURVE SMOOTH",
"289 -70 OFFCURVE",
"273 -51 OFFCURVE",
"254 -51 CURVE SMOOTH",
"246 -51 OFFCURVE",
"237 -55 OFFCURVE",
"230 -64 CURVE SMOOTH",
"202 -98 OFFCURVE",
"176 -105 OFFCURVE",
"159 -105 CURVE SMOOTH",
"143 -105 OFFCURVE",
"137 -94 OFFCURVE",
"137 -79 CURVE SMOOTH",
"137 -46 OFFCURVE",
"166 24 OFFCURVE",
"224 89 CURVE",
"224 89 LINE"
);
}
);
width = 350;
}
);
leftMetricsKey = e;
rightMetricsKey = e;
unicode = 0119;
},
{
color = 11;
glyphname = f;
lastChange = "2016-10-16 20:47:55 +0000";
layers = (
{
annotations = (
{
position = "{88, 433}";
type = Plus;
}
);
background = {
paths = (
{
closed = 0;
nodes = (
"80 500 LINE",
"71 394 OFFCURVE",
"62 -63 OFFCURVE",
"62 -63 CURVE",
"62 -63 OFFCURVE",
"54 -178 OFFCURVE",
"117 -178 CURVE",
"246 -178 OFFCURVE",
"124 183 OFFCURVE",
"33 183 CURVE SMOOTH",
"-58 183 OFFCURVE",
"102 124 OFFCURVE",
"205 186 CURVE"
);
}
);
};
layerId = "2B556C7D-ACF4-4058-9F01-0A4D9389EAED";
name = Regular;
paths = (
{
closed = 1;
nodes = (
"117 -88 OFFCURVE",
"64 -88 CURVE SMOOTH",
"46 -88 OFFCURVE",
"33 -77 OFFCURVE",
"33 -7 CURVE SMOOTH",
"33 108 OFFCURVE",
"105 431 OFFCURVE",
"187 679 CURVE SMOOTH",
"197 710 OFFCURVE",
"180 729 OFFCURVE",
"162 729 CURVE SMOOTH",
"148 729 OFFCURVE",
"134 717 OFFCURVE",
"127 698 CURVE SMOOTH",
"66 525 OFFCURVE",
"-28 158 OFFCURVE",
"-28 -12 CURVE SMOOTH",
"-28 -120 OFFCURVE",
"21 -141 OFFCURVE",
"68 -141 CURVE SMOOTH",
"179 -141 OFFCURVE",
"228 55 OFFCURVE",
"228 166 CURVE SMOOTH",
"228 255 OFFCURVE",
"195 299 OFFCURVE",
"138 299 CURVE SMOOTH",
"51 299 OFFCURVE",
"-30 257 OFFCURVE",
"-30 225 CURVE SMOOTH",
"-30 212 OFFCURVE",
"-25 198 OFFCURVE",
"-1 203 CURVE SMOOTH",
"61 217 OFFCURVE",
"174 230 OFFCURVE",
"269 230 CURVE SMOOTH",
"286 230 OFFCURVE",
"302 230 OFFCURVE",
"318 229 CURVE SMOOTH",
"374 226 OFFCURVE",
"368 280 OFFCURVE",
"327 285 CURVE SMOOTH",
"312 287 OFFCURVE",
"295 288 OFFCURVE",
"277 288 CURVE SMOOTH",
"198 288 OFFCURVE",
"46 276 OFFCURVE",
"46 253 CURVE SMOOTH",
"46 243 OFFCURVE",
"89 257 OFFCURVE",
"120 257 CURVE SMOOTH",
"137 257 OFFCURVE",
"166 249 OFFCURVE",
"166 176 CURVE SMOOTH",
"166 53 OFFCURVE"
);
}
);
width = 339;
}
);
unicode = 0066;
},
{
color = 11;
glyphname = g;
lastChange = "2016-10-14 10:51:46 +0000";
layers = (
{
associatedMasterId = "2B556C7D-ACF4-4058-9F01-0A4D9389EAED";
layerId = "92815411-5FE2-4F70-9D10-91A884723522";
name = "Regular Aug 2 16, 17:30 Aug 23 16, 11:26";
paths = (
{
closed = 1;
nodes = (
"218 310 LINE",
"162 149 OFFCURVE",
"108 63 OFFCURVE",
"66 63 CURVE SMOOTH",
"-26 63 OFFCURVE",
"49 419 OFFCURVE",
"159 419 CURVE SMOOTH",
"197 419 OFFCURVE",
"215 366 OFFCURVE",
"183 286 CURVE",
"193 264 OFFCURVE",
"234 270 OFFCURVE",
"242 288 CURVE SMOOTH",
"278 366 OFFCURVE",
"257 472 OFFCURVE",
"161 472 CURVE SMOOTH",
"40 472 OFFCURVE",
"-35 283 OFFCURVE",
"-35 143 CURVE SMOOTH",
"-35 65 OFFCURVE",
"-6 11 OFFCURVE",
"64 11 CURVE SMOOTH",
"140 11 OFFCURVE",
"203 136 OFFCURVE",
"261 287 CURVE"
);
},
{
closed = 1;
nodes = (
"192 247 OFFCURVE",
"162 67 OFFCURVE",
"143 -35 CURVE SMOOTH",
"133 -90 OFFCURVE",
"120 -179 OFFCURVE",
"90 -179 CURVE SMOOTH",
"70 -179 OFFCURVE",
"54 -135 OFFCURVE",
"88 -54 CURVE SMOOTH",
"135 57 OFFCURVE",
"232 150 OFFCURVE",
"403 237 CURVE SMOOTH",
"444 258 OFFCURVE",
"414 302 OFFCURVE",
"386 290 CURVE SMOOTH",
"254 234 OFFCURVE",
"15 43 OFFCURVE",
"15 -134 CURVE SMOOTH",
"15 -190 OFFCURVE",
"39 -232 OFFCURVE",
"98 -232 CURVE SMOOTH",
"168 -232 OFFCURVE",
"181 -135 OFFCURVE",
"203 -8 CURVE SMOOTH",
"226 122 OFFCURVE",
"249 217 OFFCURVE",
"268 273 CURVE SMOOTH",
"289 335 OFFCURVE",
"220 322 OFFCURVE",
"212 307 CURVE SMOOTH"
);
}
);
width = 379;
},
{
associatedMasterId = "2B556C7D-ACF4-4058-9F01-0A4D9389EAED";
layerId = "175ADD75-BF8A-4142-8A1C-C978FECC3787";
name = "Regular Aug 31 16, 22:22 Oct 5 16, 17:17";
paths = (
{
closed = 1;
nodes = (
"221 310 LINE",
"165 149 OFFCURVE",
"104 62 OFFCURVE",
"62 63 CURVE SMOOTH",
"-30 65 OFFCURVE",
"37 413 OFFCURVE",
"155 413 CURVE SMOOTH",
"193 413 OFFCURVE",
"218 366 OFFCURVE",
"186 286 CURVE",
"196 264 OFFCURVE",
"237 270 OFFCURVE",
"245 288 CURVE SMOOTH",
"281 366 OFFCURVE",
"250 466 OFFCURVE",
"154 466 CURVE SMOOTH",
"33 466 OFFCURVE",
"-40 283 OFFCURVE",
"-40 143 CURVE SMOOTH",
"-40 65 OFFCURVE",
"-10 11 OFFCURVE",
"60 11 CURVE SMOOTH",
"136 11 OFFCURVE",
"206 136 OFFCURVE",
"264 287 CURVE"
);
},
{
closed = 1;
nodes = (
"195 247 OFFCURVE",
"165 67 OFFCURVE",
"146 -35 CURVE SMOOTH",
"136 -90 OFFCURVE",
"123 -179 OFFCURVE",
"93 -179 CURVE SMOOTH",
"73 -179 OFFCURVE",
"57 -135 OFFCURVE",
"91 -54 CURVE SMOOTH",
"138 57 OFFCURVE",
"271 205 OFFCURVE",
"442 299 CURVE SMOOTH",
"482 321 OFFCURVE",
"453 364 OFFCURVE",
"425 352 CURVE SMOOTH",
"293 296 OFFCURVE",
"18 43 OFFCURVE",
"18 -134 CURVE SMOOTH",
"18 -190 OFFCURVE",
"42 -232 OFFCURVE",
"101 -232 CURVE SMOOTH",
"171 -232 OFFCURVE",
"184 -135 OFFCURVE",
"206 -8 CURVE SMOOTH",
"229 122 OFFCURVE",
"252 217 OFFCURVE",
"271 273 CURVE SMOOTH",
"292 335 OFFCURVE",
"223 322 OFFCURVE",
"215 307 CURVE SMOOTH"
);
}
);
width = 412;
},
{
associatedMasterId = "2B556C7D-ACF4-4058-9F01-0A4D9389EAED";
layerId = "FC903459-7212-4FB9-BCF7-3D997E39FBFC";
name = "Regular Oct 5 16, 17:18";
paths = (
{
closed = 1;
nodes = (
"261 310 LINE",
"205 149 OFFCURVE",
"144 62 OFFCURVE",
"102 63 CURVE SMOOTH",
"10 65 OFFCURVE",
"77 413 OFFCURVE",
"195 413 CURVE SMOOTH",
"233 413 OFFCURVE",
"258 366 OFFCURVE",
"226 286 CURVE",
"236 264 OFFCURVE",
"277 270 OFFCURVE",
"285 288 CURVE SMOOTH",
"321 366 OFFCURVE",
"290 466 OFFCURVE",
"194 466 CURVE SMOOTH",
"73 466 OFFCURVE",
"0 283 OFFCURVE",
"0 143 CURVE SMOOTH",
"0 65 OFFCURVE",
"30 11 OFFCURVE",
"100 11 CURVE SMOOTH",
"176 11 OFFCURVE",
"246 136 OFFCURVE",
"304 287 CURVE"
);
},
{
closed = 1;
nodes = (
"235 252 OFFCURVE",
"205 89 OFFCURVE",
"186 -4 CURVE SMOOTH",
"176 -90 OFFCURVE",
"163 -173 OFFCURVE",
"133 -173 CURVE SMOOTH",
"107 -173 OFFCURVE",
"97 -175 OFFCURVE",
"131 -63 CURVE SMOOTH",
"178 15 OFFCURVE",
"279 143 OFFCURVE",
"450 209 CURVE SMOOTH",
"490 231 OFFCURVE",
"461 274 OFFCURVE",
"433 262 CURVE SMOOTH",
"301 218 OFFCURVE",
"58 12 OFFCURVE",
"58 -128 CURVE SMOOTH",
"58 -184 OFFCURVE",
"74 -226 OFFCURVE",
"141 -226 CURVE SMOOTH",
"211 -226 OFFCURVE",
"224 -135 OFFCURVE",
"246 23 CURVE SMOOTH",
"269 139 OFFCURVE",
"292 223 OFFCURVE",
"311 273 CURVE SMOOTH",
"332 335 OFFCURVE",
"263 322 OFFCURVE",
"255 307 CURVE SMOOTH"
);
}
);
width = 470;
},
{
associatedMasterId = "2B556C7D-ACF4-4058-9F01-0A4D9389EAED";
layerId = "5CCFA4EC-BFCB-44B3-A506-A0E247CDBAE4";
name = "Regular Oct 5 16, 17:18 Oct 5 16, 17:52 Oct 6 16, 09:58";
paths = (
{
closed = 1;
nodes = (
"248 3 OFFCURVE",
"307 305 OFFCURVE",
"350 439 CURVE SMOOTH",
"360 470 OFFCURVE",
"343 489 OFFCURVE",
"325 489 CURVE SMOOTH",
"311 489 OFFCURVE",
"297 479 OFFCURVE",
"290 458 CURVE SMOOTH",
"271 408 OFFCURVE",
"252 326 OFFCURVE",
"238 258 CURVE SMOOTH",
"217 157 OFFCURVE",
"156 53 OFFCURVE",
"109 53 CURVE SMOOTH",
"82 53 OFFCURVE",
"61 84 OFFCURVE",
"61 171 CURVE SMOOTH",
"61 268 OFFCURVE",
"110 422 OFFCURVE",
"181 422 CURVE SMOOTH",
"219 422 OFFCURVE",
"234 365 OFFCURVE",
"214 286 CURVE SMOOTH",
"207 257 OFFCURVE",
"255 262 OFFCURVE",
"266 288 CURVE SMOOTH",
"302 366 OFFCURVE",
"270 477 OFFCURVE",
"181 477 CURVE SMOOTH",
"63 477 OFFCURVE",
"0 310 OFFCURVE",
"0 156 CURVE SMOOTH",
"0 64 OFFCURVE",
"36 -1 OFFCURVE",
"109 -1 CURVE SMOOTH",
"184 -1 OFFCURVE",
"228 80 OFFCURVE",
"255 153 CURVE",
"230 164 LINE",
"230 122 OFFCURVE",
"179 -70 OFFCURVE",
"162 -124 CURVE SMOOTH",
"150 -162 OFFCURVE",
"143 -186 OFFCURVE",
"125 -186 CURVE SMOOTH",
"107 -186 OFFCURVE",
"111 -118 OFFCURVE",
"163 -46 CURVE SMOOTH",
"208 16 OFFCURVE",
"366 105 OFFCURVE",
"463 147 CURVE SMOOTH",
"504 166 OFFCURVE",
"484 212 OFFCURVE",
"441 196 CURVE SMOOTH",
"398 181 OFFCURVE",
"177 83 OFFCURVE",
"92 -62 CURVE SMOOTH",
"17 -190 OFFCURVE",
"87 -247 OFFCURVE",
"138 -247 CURVE SMOOTH",
"189 -247 OFFCURVE",
"210 -222 OFFCURVE",
"239 -52 CURVE SMOOTH"
);
}
);
width = 470;
},
{
associatedMasterId = "2B556C7D-ACF4-4058-9F01-0A4D9389EAED";
layerId = "8E6FAEC3-59BF-4186-A1DA-388A02D33484";
name = "Regular Oct 6 16, 10:25";
paths = (
{
closed = 1;
nodes = (
"221 310 LINE",
"165 149 OFFCURVE",
"104 62 OFFCURVE",
"62 63 CURVE SMOOTH",
"-30 65 OFFCURVE",
"37 413 OFFCURVE",
"155 413 CURVE SMOOTH",
"193 413 OFFCURVE",
"218 366 OFFCURVE",
"186 286 CURVE",
"196 264 OFFCURVE",
"237 270 OFFCURVE",
"245 288 CURVE SMOOTH",
"281 366 OFFCURVE",
"250 466 OFFCURVE",
"154 466 CURVE SMOOTH",
"33 466 OFFCURVE",
"-40 283 OFFCURVE",
"-40 143 CURVE SMOOTH",
"-40 65 OFFCURVE",
"-10 11 OFFCURVE",
"60 11 CURVE SMOOTH",
"136 11 OFFCURVE",
"206 136 OFFCURVE",
"264 287 CURVE"
);
},
{
closed = 1;
nodes = (
"195 247 OFFCURVE",
"165 67 OFFCURVE",
"146 -35 CURVE SMOOTH",
"136 -90 OFFCURVE",
"123 -179 OFFCURVE",
"93 -179 CURVE SMOOTH",
"73 -179 OFFCURVE",
"57 -135 OFFCURVE",
"91 -54 CURVE SMOOTH",
"138 57 OFFCURVE",
"239 180 OFFCURVE",
"410 274 CURVE SMOOTH",
"450 296 OFFCURVE",
"421 339 OFFCURVE",
"393 327 CURVE SMOOTH",
"261 271 OFFCURVE",
"18 43 OFFCURVE",
"18 -134 CURVE SMOOTH",
"18 -190 OFFCURVE",
"42 -232 OFFCURVE",
"101 -232 CURVE SMOOTH",
"171 -232 OFFCURVE",
"184 -135 OFFCURVE",
"206 -8 CURVE SMOOTH",
"229 122 OFFCURVE",
"252 217 OFFCURVE",
"271 273 CURVE SMOOTH",
"292 335 OFFCURVE",
"223 322 OFFCURVE",
"215 307 CURVE SMOOTH"
);
}
);
width = 380;
},
{
layerId = "2B556C7D-ACF4-4058-9F01-0A4D9389EAED";
name = Regular;
paths = (
{
closed = 1;
nodes = (
"236 -57 OFFCURVE",
"299 291 OFFCURVE",
"330 439 CURVE SMOOTH",
"338 470 OFFCURVE",
"323 489 OFFCURVE",
"305 489 CURVE SMOOTH",
"291 489 OFFCURVE",
"275 479 OFFCURVE",
"270 458 CURVE SMOOTH",
"234 307 OFFCURVE",
"187 53 OFFCURVE",
"89 53 CURVE SMOOTH",
"62 53 OFFCURVE",
"41 84 OFFCURVE",
"41 171 CURVE SMOOTH",
"41 268 OFFCURVE",
"90 422 OFFCURVE",
"161 422 CURVE SMOOTH",
"199 422 OFFCURVE",
"214 365 OFFCURVE",
"194 286 CURVE SMOOTH",
"187 257 OFFCURVE",
"235 262 OFFCURVE",
"246 288 CURVE SMOOTH",
"282 366 OFFCURVE",
"250 477 OFFCURVE",
"161 477 CURVE SMOOTH",
"43 477 OFFCURVE",
"-20 310 OFFCURVE",
"-20 156 CURVE SMOOTH",
"-20 64 OFFCURVE",
"16 -1 OFFCURVE",
"89 -1 CURVE SMOOTH",
"164 -1 OFFCURVE",
"212 80 OFFCURVE",
"239 153 CURVE",
"214 164 LINE",
"206 111 OFFCURVE",
"181 -28 OFFCURVE",
"169 -97 CURVE SMOOTH",
"162 -137 OFFCURVE",
"152 -169 OFFCURVE",
"134 -169 CURVE SMOOTH",
"129 -169 OFFCURVE",
"125 -161 OFFCURVE",
"125 -156 CURVE SMOOTH",
"125 -80 OFFCURVE",
"354 74 OFFCURVE",
"443 134 CURVE SMOOTH",
"458 144 OFFCURVE",
"465 158 OFFCURVE",
"465 169 CURVE SMOOTH",
"465 186 OFFCURVE",
"447 198 OFFCURVE",
"421 185 CURVE SMOOTH",
"383 166 OFFCURVE",
"315 120 OFFCURVE",
"275 88 CURVE SMOOTH",
"157 -7 OFFCURVE",
"67 -76 OFFCURVE",
"67 -164 CURVE SMOOTH",
"67 -196 OFFCURVE",
"93 -222 OFFCURVE",
"130 -222 CURVE SMOOTH",
"181 -222 OFFCURVE",
"213 -183 OFFCURVE",
"228 -100 CURVE SMOOTH"
);
}
);
width = 435;
},
{
associatedMasterId = "2B556C7D-ACF4-4058-9F01-0A4D9389EAED";
layerId = "7625488D-672D-4B74-A407-7DD419520769";
name = "Regular Oct 6 16, 11:40";
paths = (
{
closed = 1;
nodes = (
"239 -46 OFFCURVE",
"313 291 OFFCURVE",
"350 439 CURVE SMOOTH",
"358 470 OFFCURVE",
"343 489 OFFCURVE",
"325 489 CURVE SMOOTH",
"311 489 OFFCURVE",
"296 479 OFFCURVE",
"290 458 CURVE SMOOTH",
"258 353 OFFCURVE",
"207 53 OFFCURVE",
"109 53 CURVE SMOOTH",
"82 53 OFFCURVE",
"61 84 OFFCURVE",
"61 171 CURVE SMOOTH",
"61 268 OFFCURVE",
"110 422 OFFCURVE",
"181 422 CURVE SMOOTH",
"219 422 OFFCURVE",
"234 365 OFFCURVE",
"214 286 CURVE SMOOTH",
"207 257 OFFCURVE",
"255 262 OFFCURVE",
"266 288 CURVE SMOOTH",
"302 366 OFFCURVE",
"270 477 OFFCURVE",
"181 477 CURVE SMOOTH",
"63 477 OFFCURVE",
"0 310 OFFCURVE",
"0 156 CURVE SMOOTH",
"0 64 OFFCURVE",
"36 -1 OFFCURVE",
"109 -1 CURVE SMOOTH",
"184 -1 OFFCURVE",
"228 80 OFFCURVE",
"255 153 CURVE",
"230 164 LINE",
"218 111 OFFCURVE",
"187 -28 OFFCURVE",
"170 -97 CURVE SMOOTH",
"164 -122 OFFCURVE",
"151 -169 OFFCURVE",
"133 -169 CURVE SMOOTH",
"128 -169 OFFCURVE",
"125 -166 OFFCURVE",
"125 -161 CURVE SMOOTH",
"125 -127 OFFCURVE",
"172 -67 OFFCURVE",
"239 -15 CURVE SMOOTH",
"279 16 OFFCURVE",
"396 94 OFFCURVE",
"463 135 CURVE SMOOTH",
"504 160 OFFCURVE",
"483 206 OFFCURVE",
"441 185 CURVE SMOOTH",
"403 166 OFFCURVE",
"328 120 OFFCURVE",
"287 90 CURVE SMOOTH",
"169 3 OFFCURVE",
"69 -77 OFFCURVE",
"69 -165 CURVE SMOOTH",
"69 -197 OFFCURVE",
"92 -222 OFFCURVE",
"129 -222 CURVE SMOOTH",
"180 -222 OFFCURVE",
"209 -183 OFFCURVE",
"227 -102 CURVE SMOOTH"
);
}
);
width = 485;
}
);
unicode = 0067;
},
